<?xml version="1.0" encoding="UTF-8"?> <!-- Generator: Adobe Illustrator 24.0.0, SVG Export Plug-In . SVG Version: 6.00 Build 0) --> <svg xmlns="http://www.w3.org/2000/svg" xmlns:xlink="http://www.w3.org/1999/xlink" id="Layer_1" x="0px" y="0px" viewBox="0 0 492 492" style="enable-background:new 0 0 492 492;" xml:space="preserve"> <style type="text/css"> .st0{fill:#FFFFFF;} </style> <g> <g> <path class="st0" d="M484.1,226.9L306.5,49.2c-5.1-5.1-11.8-7.9-19-7.9s-14,2.8-19,7.9l-16.1,16.1c-5.1,5.1-7.9,11.8-7.9,19 s2.8,14.2,7.9,19.3l103.7,103.9H26.6C11.7,207.5,0,219.1,0,234v22.8c0,14.9,11.7,27.6,26.6,27.6h330.5L252.2,388.9 c-5.1,5.1-7.9,11.7-7.9,18.9c0,7.2,2.8,13.9,7.9,18.9l16.1,16.1c5.1,5.1,11.8,7.8,19,7.8s14-2.8,19-7.9L484,265 c5.1-5.1,7.9-11.9,7.9-19.1C492,238.8,489.2,232,484.1,226.9z"></path> </g> </g> </svg> 