<?xml version="1.0" encoding="UTF-8"?> <!-- Generator: Adobe Illustrator 24.0.0, SVG Export Plug-In . SVG Version: 6.00 Build 0) --> <svg xmlns="http://www.w3.org/2000/svg" xmlns:xlink="http://www.w3.org/1999/xlink" id="Capa_1" x="0px" y="0px" width="570.4px" height="564.6px" viewBox="0 0 570.4 564.6" style="enable-background:new 0 0 570.4 564.6;" xml:space="preserve"> <style type="text/css"> .st0{fill:#FFFFFF;} </style> <g> <path class="st0" d="M511.9,462.5c-0.4-15.5-7-30.3-18-40.6L342.4,276.5l38.4-45c23,5.9,48.4-0.4,66.6-19.6 c13-13.8,26.8-39.3,34.4-63.5c10.3-32.8,8.5-57.9-5.4-72.5C462.6,61.3,439,59.3,408,70.2c-23,8.1-47.1,22.7-60,36.5 c-17.9,18.9-24.3,45.7-18.5,70.6l-45.4,43.5l-44.5-42.6c6.2-23.7,0.5-50.2-17.1-68.9c-6-6.3-56.7-60-62.9-66.6 c-5.2-5.6-13.7-5.6-18.9,0c-5.2,5.6-5.2,14.5,0,20l35.9,38l-21.4,22.6l-35.9-38.1c-5.2-5.6-13.7-5.6-18.9,0c-5.2,5.6-5.2,14.5,0,20 l35.9,38.1l-21.4,22.6l-35.9-38c-5.2-5.6-13.7-5.6-18.9,0c-5.2,5.6-5.2,14.5,0,20c1.1,1.1,55.6,58.9,62.9,66.6 c17.2,18.2,42,24.9,65,18.1l37.6,44L74.5,421.8c-11,10.3-17.6,25.1-18.1,40.6c-1,31.9,23.2,58.4,53.5,58.4c14.9,0,29.6-6.7,40-19.1 l134.3-157.1l134.3,157.1c9.9,11.8,24.4,19.1,40,19.1C488.7,520.9,512.8,494.3,511.9,462.5L511.9,462.5z M366.9,126.6 c14.9-15.6,52-35.1,76.5-35.1c6.5,0,11.5,1.4,14.2,4.2c5.8,6.1,5.3,23.2-1.1,43.5c-6.3,20.2-17.8,41.7-27.9,52.5 c-13,13.8-31.9,16.9-47.4,10.1c0,0,0,0-0.1,0C352.3,189.4,345,149.9,366.9,126.6z M341.5,203.9c4,5.6,8.6,10.6,14.2,15.1 l-33.1,38.7L304,239.9L341.5,203.9z M142.1,194.5l-8.2-8.7c26.9-28.5-12.5,13.2,61.7-65.3l8.2,8.7c12.1,12.8,14.8,31.7,8.4,47.1 c-3.8,8.7-6.9,11.4-13.3,18.2C183.1,211,157.7,211,142.1,194.5L142.1,194.5z M130.1,482.9c-17.7,20.4-47.7,6.2-47-19.5 c0.3-7.8,3.2-14.8,9.2-20.5l151.5-145.3l22.3,26.1L130.1,482.9z M477.4,484.3c-11,11.7-28.9,10.8-39-1.3 c-0.1-0.1,3.9,4.6-225.6-263.9c3.5-3,10.9-10.7,14.2-15.1c280.3,268.8,162,155.4,249,238.9C488.6,455.1,487.6,473.5,477.4,484.3 L477.4,484.3z"></path> </g> </svg> 