<svg width="400" height="250" xmlns="http://www.w3.org/2000/svg">
 <style type="text/css">.st0{fill:#FFFFFF;}</style>

 <g>
  <title>background</title>
  <rect fill="none" id="canvas_background" height="252" width="402" y="-1" x="-1"/>
 </g>
 <g>
  <title>Layer 1</title>
  <g stroke="null" id="svg_1">
   <g stroke="null" id="svg_2">
    <path stroke="null" id="svg_3" d="m31.4,187l2.3,0l0,23.6l-2.3,0l0,-23.6z" class="st0"/>
    <path stroke="null" id="svg_4" d="m54.5,209.7c-1.3,-0.7 -2.3,-1.7 -3.1,-3c-0.7,-1.3 -1.1,-2.8 -1.1,-4.4c0,-1.6 0.4,-3.1 1.1,-4.4c0.7,-1.3 1.8,-2.3 3.1,-3c1.3,-0.7 2.7,-1.1 4.4,-1.1c1.6,0 3.1,0.4 4.4,1.1c1.3,0.7 2.3,1.7 3,3c0.7,1.3 1.1,2.8 1.1,4.4c0,1.6 -0.4,3.1 -1.1,4.4c-0.7,1.3 -1.7,2.3 -3,3c-1.3,0.7 -2.7,1.1 -4.4,1.1c-1.6,0 -3.1,-0.4 -4.4,-1.1zm7.6,-1.7c0.9,-0.5 1.7,-1.3 2.2,-2.3c0.5,-1 0.8,-2.1 0.8,-3.4s-0.3,-2.4 -0.8,-3.4c-0.5,-1 -1.3,-1.8 -2.2,-2.3c-0.9,-0.5 -2,-0.8 -3.2,-0.8c-1.2,0 -2.3,0.3 -3.2,0.8c-0.9,0.5 -1.7,1.3 -2.2,2.3c-0.5,1 -0.8,2.1 -0.8,3.4s0.3,2.4 0.8,3.4c0.5,1 1.3,1.8 2.2,2.3c0.9,0.5 2,0.8 3.2,0.8c1.2,0 2.2,-0.3 3.2,-0.8z" class="st0"/>
    <path stroke="null" id="svg_5" d="m99.2,193.9l0,16.7l-2.2,0l0,-3.1c-0.6,1 -1.4,1.8 -2.4,2.4c-1,0.6 -2.2,0.8 -3.6,0.8c-2.2,0 -3.9,-0.6 -5.2,-1.8c-1.3,-1.2 -1.9,-3 -1.9,-5.4l0,-9.7l2.3,0l0,9.5c0,1.8 0.4,3.1 1.3,4c0.9,0.9 2.1,1.4 3.7,1.4c1.8,0 3.1,-0.5 4.2,-1.6c1,-1.1 1.5,-2.6 1.5,-4.5l0,-8.8l2.3,0l0,0.1z" class="st0"/>
    <path stroke="null" id="svg_6" d="m131.1,195.6c1.2,1.2 1.9,3 1.9,5.3l0,9.7l-2.3,0l0,-9.5c0,-1.7 -0.4,-3.1 -1.3,-4c-0.9,-0.9 -2.1,-1.4 -3.7,-1.4c-1.8,0 -3.2,0.5 -4.3,1.6c-1,1.1 -1.6,2.5 -1.6,4.4l0,8.8l-2.3,0l0,-16.7l2.2,0l0,3.1c0.6,-1 1.5,-1.8 2.6,-2.4c1.1,-0.6 2.4,-0.8 3.8,-0.8c2.1,0.1 3.8,0.7 5,1.9z" class="st0"/>
    <path stroke="null" id="svg_7" d="m166.8,193.9l0,14.7c0,2.8 -0.7,4.9 -2.1,6.3c-1.4,1.4 -3.5,2.1 -6.3,2.1c-1.5,0 -3,-0.2 -4.4,-0.7s-2.5,-1.1 -3.4,-1.9l1.1,-1.7c0.8,0.7 1.8,1.3 2.9,1.7c1.2,0.4 2.4,0.6 3.6,0.6c2.1,0 3.7,-0.5 4.7,-1.5c1,-1 1.5,-2.5 1.5,-4.6l0,-2.1c-0.7,1.1 -1.6,1.9 -2.8,2.4c-1.1,0.6 -2.4,0.8 -3.8,0.8c-1.6,0 -3,-0.3 -4.3,-1c-1.3,-0.7 -2.3,-1.7 -3,-2.9c-0.7,-1.2 -1.1,-2.6 -1.1,-4.2c0,-1.6 0.4,-3 1.1,-4.2c0.7,-1.2 1.7,-2.2 3,-2.9c1.3,-0.7 2.7,-1 4.3,-1c1.4,0 2.7,0.3 3.8,0.9c1.1,0.6 2.1,1.4 2.8,2.5l0,-3.2l2.4,0l0,-0.1zm-5.3,13.3c1,-0.5 1.7,-1.2 2.3,-2.2c0.5,-0.9 0.8,-2 0.8,-3.2c0,-1.2 -0.3,-2.2 -0.8,-3.2c-0.5,-0.9 -1.3,-1.6 -2.3,-2.2c-1,-0.5 -2.1,-0.8 -3.3,-0.8c-1.2,0 -2.3,0.3 -3.3,0.8c-1,0.5 -1.7,1.2 -2.3,2.2c-0.5,0.9 -0.8,2 -0.8,3.2c0,1.2 0.3,2.2 0.8,3.2c0.5,0.9 1.3,1.7 2.3,2.2c1,0.5 2.1,0.8 3.3,0.8c1.2,0 2.3,-0.3 3.3,-0.8z" class="st0"/>
    <path stroke="null" id="svg_8" d="m199.7,203l-14,0c0.1,1.7 0.8,3.1 2,4.2c1.2,1.1 2.7,1.6 4.6,1.6c1,0 2,-0.2 2.9,-0.6c0.9,-0.4 1.6,-0.9 2.3,-1.6l1.3,1.5c-0.7,0.9 -1.7,1.6 -2.8,2c-1.1,0.5 -2.3,0.7 -3.7,0.7c-1.7,0 -3.2,-0.4 -4.6,-1.1c-1.3,-0.7 -2.4,-1.7 -3.1,-3c-0.7,-1.3 -1.1,-2.8 -1.1,-4.4c0,-1.6 0.4,-3.1 1.1,-4.4c0.7,-1.3 1.7,-2.3 2.9,-3c1.2,-0.7 2.6,-1.1 4.2,-1.1c1.5,0 2.9,0.4 4.2,1.1c1.2,0.7 2.2,1.7 2.9,3c0.7,1.3 1,2.8 1,4.4l-0.1,0.7zm-12.1,-5.7c-1.1,1 -1.7,2.4 -1.9,4l11.9,0c-0.1,-1.7 -0.8,-3 -1.9,-4c-1.1,-1 -2.5,-1.5 -4.1,-1.5c-1.6,-0.1 -2.9,0.4 -4,1.5z" class="st0"/>
    <path stroke="null" id="svg_9" d="m253.3,211l-3.1,-3.2c-1.9,2 -4.4,3 -7.4,3c-1.4,0 -2.7,-0.2 -3.9,-0.7c-1.1,-0.5 -2,-1.1 -2.7,-2c-0.6,-0.9 -1,-1.8 -1,-2.9c0,-1.3 0.4,-2.5 1.3,-3.6c0.8,-1.1 2.3,-2.2 4.3,-3.3c-1.1,-1.1 -1.8,-2 -2.2,-2.8c-0.4,-0.8 -0.6,-1.6 -0.6,-2.5c0,-1.4 0.5,-2.6 1.5,-3.4c1,-0.9 2.4,-1.3 4.1,-1.3c1.6,0 2.9,0.4 3.8,1.2c0.9,0.8 1.4,1.9 1.4,3.2c0,1.1 -0.4,2.1 -1.1,3c-0.7,0.9 -2,1.9 -3.8,2.9l6.1,6.3c0.7,-1.2 1.2,-2.6 1.5,-4.3l1.8,0.6c-0.4,2 -1.1,3.7 -2,5.1l3.2,3.3l-1.2,1.4zm-4.4,-4.6l-6.7,-6.9c-1.8,1 -3,1.9 -3.6,2.7c-0.7,0.8 -1,1.7 -1,2.7c0,1.2 0.5,2.2 1.5,2.9c1,0.7 2.3,1.1 3.9,1.1c2.4,0.1 4.4,-0.8 5.9,-2.5zm-7.8,-15.7c-0.6,0.6 -0.9,1.3 -0.9,2.2c0,0.7 0.2,1.3 0.5,1.9c0.3,0.6 1,1.4 2,2.4c1.6,-0.9 2.7,-1.7 3.3,-2.4c0.6,-0.7 0.9,-1.4 0.9,-2.2c0,-0.8 -0.3,-1.5 -0.9,-2c-0.6,-0.5 -1.4,-0.7 -2.4,-0.7c-1,0 -1.8,0.3 -2.5,0.8z" class="st0"/>
    <path stroke="null" id="svg_10" d="m303.6,194.8c1.3,0.7 2.3,1.7 3,3c0.7,1.3 1.1,2.8 1.1,4.4c0,1.7 -0.4,3.1 -1.1,4.4c-0.7,1.3 -1.7,2.3 -3,3c-1.3,0.7 -2.7,1.1 -4.3,1.1c-1.4,0 -2.7,-0.3 -3.8,-0.9c-1.1,-0.6 -2,-1.5 -2.7,-2.6l0,3.3l-2.2,0l0,-23.5l2.3,0l0,10.1c0.7,-1.1 1.6,-1.9 2.7,-2.5c1.1,-0.6 2.3,-0.8 3.7,-0.8c1.6,0 3,0.3 4.3,1zm-1.3,13.2c1,-0.5 1.7,-1.3 2.2,-2.3s0.8,-2.1 0.8,-3.4s-0.3,-2.4 -0.8,-3.4c-0.5,-1 -1.3,-1.8 -2.2,-2.3c-1,-0.5 -2,-0.8 -3.2,-0.8c-1.2,0 -2.3,0.3 -3.2,0.8c-0.9,0.5 -1.7,1.3 -2.2,2.3c-0.5,1 -0.8,2.1 -0.8,3.4s0.3,2.4 0.8,3.4c0.5,1 1.3,1.8 2.2,2.3c0.9,0.5 2,0.8 3.2,0.8c1.2,0 2.3,-0.3 3.2,-0.8z" class="st0"/>
    <path stroke="null" id="svg_11" d="m335.1,195.4c1.2,1.1 1.7,2.7 1.7,4.9l0,10.4l-2.2,0l0,-2.7c-0.5,0.9 -1.3,1.5 -2.2,2c-1,0.5 -2.2,0.7 -3.5,0.7c-1.9,0 -3.4,-0.4 -4.5,-1.3c-1.1,-0.9 -1.7,-2.1 -1.7,-3.5c0,-1.4 0.5,-2.6 1.5,-3.4c1,-0.9 2.7,-1.3 4.9,-1.3l5.3,0l0,-1c0,-1.4 -0.4,-2.5 -1.2,-3.3c-0.8,-0.8 -2,-1.1 -3.5,-1.1c-1.1,0 -2.1,0.2 -3.1,0.5c-1,0.4 -1.8,0.8 -2.5,1.4l-1,-1.7c0.8,-0.7 1.9,-1.3 3.1,-1.7c1.2,-0.4 2.4,-0.6 3.8,-0.6c2.3,0.1 4,0.6 5.1,1.7zm-2.5,12.7c0.9,-0.6 1.6,-1.4 2,-2.5l0,-2.7l-5.2,0c-2.9,0 -4.3,1 -4.3,3c0,1 0.4,1.7 1.1,2.3c0.7,0.6 1.8,0.8 3.1,0.8c1.3,0 2.4,-0.3 3.3,-0.9z" class="st0"/>
    <path stroke="null" id="svg_12" d="m359.6,194.6c1,-0.6 2.3,-0.9 3.9,-0.9l0,2.2l-0.5,0c-1.8,0 -3.1,0.5 -4.1,1.6c-1,1.1 -1.5,2.6 -1.5,4.5l0,8.5l-2.3,0l0,-16.7l2.2,0l0,3.3c0.5,-1 1.3,-1.9 2.3,-2.5z" class="st0"/>
   </g>
   <g stroke="null" id="svg_13">
    <path stroke="null" id="svg_14" d="m127,149.4l-0.1,-75.1l-37.3,62.6l-6.8,0l-37.3,-62.2l0,74.7l-14.1,0l0,-103.2l12.1,0l43,72.5l42.4,-72.5l12.1,0l0.1,103.1l-14.1,0l0,0.1z" class="st0"/>
    <path stroke="null" id="svg_15" d="m302.4,145.8c-7.1,-2.4 -12.6,-5.4 -16.6,-9.1l5.3,-11.2c3.8,3.5 8.8,6.3 14.8,8.4c6,2.2 12.2,3.2 18.5,3.2c8.4,0 14.6,-1.4 18.7,-4.2c4.1,-2.8 6.2,-6.6 6.2,-11.3c0,-3.5 -1.1,-6.3 -3.4,-8.4c-2.3,-2.2 -5,-3.8 -8.4,-5c-3.3,-1.2 -8,-2.4 -14,-3.9c-7.6,-1.8 -13.7,-3.6 -18.4,-5.5c-4.7,-1.8 -8.6,-4.6 -12,-8.4c-3.3,-3.8 -5,-8.9 -5,-15.3c0,-5.4 1.4,-10.2 4.2,-14.5c2.8,-4.3 7.1,-7.8 12.9,-10.4c5.8,-2.6 12.9,-3.9 21.5,-3.9c6,0 11.8,0.8 17.6,2.3c5.8,1.5 10.7,3.7 14.8,6.6l-4.8,11.5c-4.2,-2.7 -8.7,-4.7 -13.5,-6.1c-4.8,-1.4 -9.5,-2.1 -14.1,-2.1c-8.2,0 -14.3,1.5 -18.4,4.5c-4.1,3 -6.1,6.8 -6.1,11.5c0,3.5 1.2,6.3 3.5,8.4c2.3,2.2 5.2,3.8 8.6,5c3.4,1.2 8,2.5 13.9,3.8c7.6,1.8 13.7,3.7 18.3,5.5c4.6,1.8 8.6,4.6 11.9,8.4c3.3,3.7 5,8.8 5,15.1c0,5.3 -1.4,10.1 -4.3,14.5c-2.9,4.4 -7.3,7.8 -13.1,10.4c-5.9,2.5 -13.1,3.8 -21.6,3.8c-7.6,0 -15,-1.2 -22,-3.6z" class="st0"/>
    <path stroke="null" id="svg_16" d="m216.5,46.2c-28.5,0 -51.6,23.1 -51.6,51.6s23.1,51.6 51.6,51.6s51.6,-23.1 51.6,-51.6s-23.1,-51.6 -51.6,-51.6zm0,90.1c-21.3,0 -38.6,-17.3 -38.6,-38.6s17.3,-38.6 38.6,-38.6s38.6,17.3 38.6,38.6s-17.3,38.6 -38.6,38.6z" class="st0"/>
   </g>
  </g>
 </g>
</svg>