<svg width="434.09999999999997" height="588" xmlns="http://www.w3.org/2000/svg">
 <style type="text/css">.st0{fill:#ED1E79;}</style>

 <g>
  <title>background</title>
  <rect fill="none" id="canvas_background" height="402" width="582" y="-1" x="-1"/>
 </g>
 <g>
  <title>Layer 1</title>
  <g id="Слой_2_1_">
   <g id="svg_1">
    <g id="svg_2">
     <path id="svg_3" d="m97,292.8c7.8,-3 16,-5.4 24.3,-6.6s16.9,-0.3 25.1,-2.5c-0.1,-0.2 -0.2,-0.4 -0.4,-0.6c-1.4,1.1 -2.8,2.2 -4.5,2.9c0.1,0.2 0.2,0.4 0.4,0.6c1.2,-1.5 2.8,-2.2 4.5,-2.9c-0.1,-0.2 -0.2,-0.4 -0.4,-0.6c-8,7.3 -17.4,12.8 -26,19.4c0.2,0.2 0.3,0.4 0.5,0.6c1.4,-1.1 2.8,-2.2 4.2,-3.3c-0.2,-0.2 -0.4,-0.4 -0.5,-0.5c-1.4,1.1 -2.7,2.2 -4.1,3.3c-0.4,0.3 0,0.9 0.4,0.6c10.3,-6.7 22.6,-7.4 34.4,-9.8c11.8,-2.4 22.4,-9.1 34.5,-10.5c4.3,-0.5 9.4,-0.9 11.7,-5.1c-0.2,-0.1 -0.5,-0.1 -0.7,-0.2c0.2,1.5 0.4,3 0.1,4.5c0.2,0 0.5,0 0.7,0c-0.6,-1.5 -0.6,-2.9 -0.1,-4.4c-0.2,0 -0.5,-0.1 -0.7,-0.1c0.2,2.3 0.6,4.6 1.5,6.7c0.9,2.2 2.6,3.7 4.3,5.4c2.1,2.1 4.1,4.1 6.4,5.9c2.1,1.6 4.2,3.1 6.4,4.6c4.8,3.3 9.8,6.4 14.3,10c0.8,0.6 1.7,1.8 2.6,2.2c0.7,0.3 2.2,-0.3 2.9,-0.4c2.9,-0.5 5.7,-0.9 8.6,-1.2c2.7,-0.3 5.6,-0.1 8.3,-0.5c2.8,-0.3 5.6,-1 8.2,-1.8c2.5,-0.8 4.9,-1.8 7.3,-2.9c1.3,-0.6 2.5,-1.3 3.7,-2s2.4,-1.8 3.7,-2.3c2.1,-0.8 4.7,0.3 6.8,-1c1.7,-1 3.3,-2.2 4.8,-3.3c2.5,-1.9 5,-4.4 4.5,-7.8c-0.4,-2.3 -1.7,-4.6 -2.5,-6.9c-0.8,-2.4 -1.5,-4.8 -2.4,-7.2c-1.6,-4.7 -3.6,-9.3 -6.7,-13.2c-0.6,-0.7 -0.5,-0.8 -0.2,-1.7c0.2,-0.6 0.5,-1.1 0.7,-1.7c0.3,-1 0.3,-2.1 0.2,-3.1c-0.4,-2.4 -1.9,-4.6 -3.4,-6.4c-3.1,-3.8 -7.2,-6.6 -11.2,-9.2c-1,-0.7 -2,-1.3 -3,-2c-0.6,-0.4 -1.1,-0.8 -1.7,-1.2c-0.4,-0.3 -0.9,-0.8 -1.4,-0.9c-0.6,-0.1 -1.6,0.1 -2.2,0.2c-0.8,0 -1.7,0.1 -2.5,0.1c-3.7,0 -7.5,-0.4 -11.2,-0.7c-7.2,-0.7 -14.9,-1.6 -21.9,0.5c-3.1,0.9 -6.1,2.6 -8.4,4.9c-1.3,1.3 -2.4,2.9 -3.3,4.5c-0.6,1.1 -0.8,1.6 -2,2.1c-1.1,0.5 -2.2,1 -3.2,1.7c-3.8,2.4 -6.8,6 -8.4,10.2c-1.7,4.3 -3.1,9.3 -2.4,14c0.4,2.4 1.3,4.6 2.6,6.6c0.1,0.2 0.3,0.2 0.5,0.1c1.1,-0.5 2.3,-2.2 0.6,-2.9c-1.8,-0.9 -1.5,1.8 -1.2,2.7c0.1,0.2 0.3,0.4 0.6,0.2c2.7,-1.7 5.5,-3.4 8.3,-5c2.6,-1.4 5.2,-3.2 8.1,-3.8c5.4,-1.2 7.7,4.5 10.5,7.9c0.1,-0.2 0.2,-0.4 0.3,-0.6c-4.8,0.6 -9.9,2.1 -13.7,5.2c-0.9,0.8 -1.6,1.5 -2.2,2.6c-0.9,1.7 -1.7,3.5 -3.6,4.2c-2.8,1.1 -5.8,1.4 -8.7,2.3c-4.6,1.4 -8.1,5.3 -11.6,8.4c-3.7,3.3 -7.5,6.6 -12,8.7c-5.5,2.6 -10.9,2 -15.8,-1.6c-0.2,-0.1 -0.4,0 -0.5,0.1c-5,9.9 -14.6,16.7 -25.3,19.3c0.1,0.2 0.2,0.5 0.3,0.7c23.4,-12.8 46.8,-25.6 70.2,-38.5c23.3,-12.9 46.6,-25.8 70,-38.7c13.2,-7.3 26.3,-14.6 39.5,-21.8c-0.2,-0.1 -0.4,-0.2 -0.6,-0.3c-0.1,1.5 -0.2,3.1 -0.2,4.6c0.2,0 0.5,0 0.8,0c0.1,-1.5 0.1,-3.1 0.2,-4.6c-0.2,0 -0.5,0 -0.8,0c-0.3,9.6 -1.2,19.3 0.8,28.8c1,4.8 3,9.2 5.1,13.6c2.3,4.8 4.8,9.5 7.4,14.1c2.8,5.2 5.7,10.3 8.5,15.5c0.1,0.3 0.5,0.2 0.6,0c10.1,-13.9 22.5,-31.8 14.3,-49.5c-0.2,0.1 -0.4,0.3 -0.6,0.4c2.7,4.4 4.6,9.3 6.5,14c0.9,2.2 1.9,4.4 2.9,6.5c0.9,1.9 1.9,4 3.6,5.3c2.7,2 6,0.8 8.7,-0.5c1.7,-0.8 3.4,-1.8 5.1,-2.6c2.4,-1.1 4.9,-1.3 7.6,-1.4c6.5,-0.3 13.1,0.3 19.6,0.4c0.1,0 0.3,-0.1 0.3,-0.2c5.9,-12.9 8,-27 7.8,-41.2c-0.2,0.1 -0.3,0.2 -0.5,0.4c1.5,0.5 3,1.1 4.6,1.6c0,-0.2 0.1,-0.5 0.1,-0.7c-34.1,3.4 -64.7,19.6 -96.8,29.9c-10,3.2 -20.1,6.1 -30.3,8.7c0.2,0.1 0.3,0.2 0.5,0.3c-0.6,-3.1 -0.9,-6.3 -1.7,-9.3c-0.3,-1.4 -0.8,-2.6 -0.9,-4.1s0.4,-2.8 0.8,-4.2c1.5,-5.6 2.6,-11.4 2.6,-17.2c0,-2.8 -0.2,-5.6 -0.8,-8.4c-0.3,-1.4 -0.7,-2.7 -1.1,-4.1c-0.3,-1 -0.7,-2.4 -1.3,-3.2c-0.8,-0.9 -2.4,-1.6 -3.5,-2.2c-1.3,-0.8 -2.7,-1.4 -4.1,-2.1c-2.5,-1.1 -5.1,-2 -7.7,-2.8c-6.2,-1.8 -12.6,-2.7 -19,-3.4c0.1,0.2 0.1,0.5 0.2,0.7c0.9,-0.6 1.8,-0.6 2.7,0c0,-0.2 0.1,-0.5 0.1,-0.7c-1,0.2 -2,0.1 -3,0c0.1,0.2 0.2,0.3 0.4,0.5c0.7,-1.9 2.3,-3.2 3.6,-4.7c0.8,-0.9 1.7,-2 1.6,-3.3c-0.2,-3.4 -3.5,-6.6 -5.8,-8.7c-1.5,-1.4 -3.1,-2.6 -4.6,-4c-0.8,-0.7 -1.5,-1.4 -2.2,-2.2c-0.6,-0.6 -1,-1.6 -1.7,-2.1s-2,-0.7 -2.8,-1c-1.1,-0.4 -2.2,-0.7 -3.3,-1c-2.1,-0.6 -4.2,-1.1 -6.3,-1.3c-4.8,-0.5 -9.4,0.4 -13.2,3.5c-0.4,0.3 0.1,0.7 0.5,0.6c1.4,-0.6 2.6,-1.4 3.8,-2.3c0.4,-0.3 0.1,-0.9 -0.4,-0.6c-1.3,0.7 -2.5,1.5 -3.8,2.3c-0.3,0.2 -0.2,0.7 0.2,0.7c1.1,0 5.6,-0.2 5.2,-2.1c-0.4,-2.2 -4.7,0.9 -5.4,1.4c-0.3,0.2 -0.2,0.7 0.2,0.7c5.2,0.4 10.5,0.4 15.8,0.3c4.9,-0.1 10.1,-0.7 15,-0.3c2.7,0.2 6.4,1.5 8.8,-0.4c2.2,-1.8 2.6,-5.5 2,-8c-0.7,-3.2 -2.6,-6.1 -4,-9c-0.8,-1.5 -1.5,-3.1 -1.9,-4.8s-0.6,-3.8 0.2,-5.4c1.5,-2.9 5.3,-4.2 8.2,-5.3c1.3,-0.5 2.7,-1 3.9,-1.6c1.4,-0.6 3,-1.2 3.9,-2.5c0.8,-1.2 0.4,-2.8 0.3,-4.1c-0.1,-2 -0.2,-4 -0.2,-6c-0.1,-3.8 -0.3,-7.6 -0.9,-11.3c-0.6,-3.7 -1.7,-7.4 -3.6,-10.7c-0.9,-1.6 -2,-3.1 -3.2,-4.5c-1.6,-1.8 -2.3,-4.2 -2.6,-6.6c-1.2,-8.3 3.1,-16 8.5,-21.9c2.7,-3 5.8,-5.6 9,-8c0.7,-0.5 1.4,-1.1 2.2,-1.5c1.1,-0.6 2.3,-0.1 3.4,0.1c2.6,0.5 5.2,1.1 7.8,1.7c22.2,5.2 43.8,12.7 65.7,18.9c0,-0.2 -0.1,-0.5 -0.1,-0.7c-0.7,0.5 -1.4,1 -2.1,1.5c0.2,0.2 0.3,0.4 0.5,0.6c0.7,-0.5 1.3,-1 2,-1.4c-0.2,-0.2 -0.3,-0.3 -0.5,-0.5c-3.8,5 -6.8,10.6 -11,15.3c-3.8,4.2 -8.2,7.8 -12.2,11.8c-7.9,7.9 -15.2,16.4 -21,26c-0.8,1.2 -1.5,2.5 -2.2,3.8c-0.8,1.4 -1.4,3 -2.3,4.2c-1.7,2.1 -3.1,4.5 -4.7,6.6c-1.9,2.5 -4.3,4.8 -6.6,7.1c-2.2,2.2 -4.4,4.3 -6.6,6.4c-9,8.4 -18.4,16.2 -26.8,25.2c-1.1,1.1 -2.1,2.3 -3.2,3.5c-0.9,1 -1.6,2 -2.9,2.6c-2.1,1 -4.4,1.2 -6.3,2.7c-3.2,2.6 -7.4,7.2 -5.4,11.6c1.1,2.4 3.3,4.1 4.4,6.5c0.9,1.9 1.2,4.1 2.4,5.9c1.4,2.1 3.3,2.6 5.6,3.3c2.4,0.7 5.1,1.2 7.2,2.7c1.8,1.2 2.6,3 4.9,3.3c1.9,0.2 3.8,-0.5 5.3,-1.7c2.5,-2 4.6,-4.2 7.5,-5.6c2.8,-1.4 6,-2.1 9,-2.8c5.8,-1.3 11.8,-1.8 17.6,-3.5c5.8,-1.7 11.1,-4.9 16.9,-6.8c11.9,-4 24.5,-5.5 37,-6.3c6.1,-0.4 11.7,-1.2 17.4,-3.4c5.3,-2 10.1,-4.8 15.2,-7.4c2.9,-1.5 6.2,-1.4 9.4,-2c0.5,-0.1 0.3,-0.8 -0.2,-0.7c-1.7,0.2 -3.4,0.5 -5.1,0.6c0,0.2 0.1,0.5 0.1,0.7c1.7,-0.4 3.3,-0.5 5.1,-0.6c0,-0.2 0,-0.5 0,-0.8c-8.1,0.9 -16.3,1.9 -24.4,3.2c-4.3,0.7 -8.6,1.5 -12.9,2.3c-1.9,0.4 -3.7,1.1 -5.5,0.2c-1.7,-1 -3.5,-2 -5.1,-3c-12.7,-7.9 -23.4,-18.4 -34.1,-28.7c-3,-2.9 -6.1,-5.8 -9.2,-8.7c-1.4,-1.3 -2.8,-2.8 -4.4,-4c-1.1,-0.8 -2.4,-0.8 -3.7,-1c0,0.2 0.1,0.5 0.1,0.7c0.5,0 1,0 1.5,0c0,-0.2 0.1,-0.5 0.1,-0.7c-0.6,0.1 -1.1,0.1 -1.7,0c0.1,0.2 0.1,0.4 0.2,0.6c0.4,-0.6 0.7,-1.2 1.2,-1.8c0.3,-0.4 0.7,-0.9 1.1,-1.2c0.6,-0.4 1.8,-0.6 1.9,0.4c0.2,1.7 -3.3,2.4 -4.5,2c0.1,0.2 0.1,0.4 0.2,0.6c5.3,-7.4 9.4,-15.5 13.7,-23.5c3,-5.5 6.3,-13.2 13.8,-12.3c0.5,0.1 0.5,-0.7 0,-0.8c-7,-0.9 -10.6,5.5 -13.4,10.8c-4.6,8.6 -9,17.4 -14.8,25.4c-0.1,0.2 0,0.5 0.2,0.6c1.6,0.5 6.3,-0.7 5.3,-3.2c-1.5,-3.5 -4.7,1.3 -5.5,2.6c-0.1,0.2 0,0.5 0.2,0.6c0.7,0.1 1.4,0.1 2.1,0c0.3,-0.1 0.3,-0.5 0.1,-0.7c-0.8,-0.5 -1.5,-0.5 -2.2,0c-0.3,0.2 -0.2,0.6 0.1,0.7c1.5,0.3 2.8,0.4 4.1,1.5c1.5,1.3 3,2.7 4.5,4.1c2.7,2.5 5.3,5 8,7.6c5.3,5.1 10.6,10.3 16.2,15.2c5.4,4.7 11,9.2 17,13.2c1.5,1 3,1.9 4.6,2.8c1,0.6 2.4,1.7 3.6,1.9c0.9,0.1 2.2,-0.5 3.1,-0.6c1,-0.2 2.1,-0.4 3.1,-0.6c2.3,-0.4 4.5,-0.9 6.8,-1.2c9.4,-1.6 18.9,-2.9 28.5,-3.9c0.5,-0.1 0.5,-0.8 0,-0.8c-1.8,0 -3.5,0.2 -5.3,0.6c-0.4,0.1 -0.3,0.8 0.1,0.7c1.8,-0.1 3.5,-0.3 5.3,-0.6c-0.1,-0.2 -0.1,-0.5 -0.2,-0.7c-2.8,0.5 -6,0.4 -8.6,1.5c-2.5,1.1 -4.9,2.7 -7.4,4c-5.2,2.7 -10.7,5 -16.5,6.2c-6,1.2 -12.2,1.1 -18.3,1.7c-5.9,0.6 -11.7,1.4 -17.5,2.7c-5.7,1.3 -11.3,2.9 -16.7,5.2c-2.9,1.2 -5.6,2.7 -8.6,3.8c-2.8,1 -5.6,1.7 -8.5,2.2c-5.8,1.1 -11.8,1.8 -17.4,3.7c-2.5,0.8 -4.8,1.9 -6.9,3.5s-3.8,4 -6.5,4.7c-1.2,0.3 -2.6,0.4 -3.8,-0.2c-1,-0.6 -1.7,-1.8 -2.7,-2.5c-1.8,-1.3 -4,-1.9 -6.1,-2.5c-2.8,-0.8 -5.8,-1.3 -7.2,-4.2c-1,-1.9 -1.3,-4.1 -2.4,-5.9c-1.3,-2.2 -3.7,-4 -4.2,-6.7c-0.6,-3 1.5,-5.6 3.5,-7.7c1,-1 1.9,-2.1 3.2,-2.8c1.2,-0.7 2.5,-1 3.8,-1.4c2.2,-0.8 3.3,-2.2 4.9,-3.9c8,-8.9 17.1,-16.7 25.9,-24.7c4.5,-4.1 8.8,-8.2 13,-12.6c2,-2.1 3.8,-4.2 5.4,-6.6c0.8,-1.2 1.5,-2.4 2.4,-3.4s1.4,-1.9 2.1,-3.1c5.3,-10 12.2,-19 19.9,-27.2c3.7,-3.9 7.6,-7.7 11.5,-11.4c2.1,-2 4.3,-3.9 6.1,-6.2c1.7,-2.1 3.3,-4.4 4.8,-6.6c1.6,-2.5 3.3,-5 5.1,-7.3c0.2,-0.3 -0.2,-0.7 -0.5,-0.5c-0.8,0.5 -1.5,1 -2.2,1.5c-0.3,0.3 0.1,0.8 0.5,0.6c0.7,-0.5 1.4,-1 2.1,-1.5c0.3,-0.2 0.2,-0.6 -0.1,-0.7c-19.5,-6.3 -38.8,-12.9 -58.5,-17.9c-4.9,-1.3 -9.9,-2.4 -14.9,-3.4c-0.9,-0.2 -2.2,-0.7 -3.1,-0.6c-0.5,0.1 -1.2,0.7 -1.6,1c-1.5,1.1 -3,2.2 -4.4,3.4c-5.8,4.7 -11.2,10.5 -13.7,17.6c-1.2,3.3 -1.7,6.9 -1.2,10.4c0.2,1.9 0.7,3.9 1.5,5.7c0.3,0.7 0.8,1.2 1.4,1.8c0.9,1 1.6,2 2.3,3.1c4.4,6.9 4.9,15.3 5.1,23.3c0.1,1.8 0.1,3.7 0.2,5.5c0,0.9 0.3,1.8 0.2,2.7c-0.1,1.3 -1.4,2 -2.5,2.6c-2.9,1.5 -6.1,2.4 -9.1,3.8c-2.3,1.1 -4.8,2.8 -5.4,5.4c-0.6,2.8 0.5,6 1.6,8.5c1.6,3.5 4.2,7 4.7,10.9c0.2,2 -0.2,4.6 -1.7,6.1c-1.6,1.5 -4.4,0.9 -6.4,0.7c-5,-0.7 -10.2,-0.2 -15.3,0c-5.9,0.2 -11.8,0.2 -17.7,-0.3c0.1,0.2 0.1,0.5 0.2,0.7c0.6,-0.4 1.1,-0.7 1.7,-1.1c0.3,-0.2 2.7,-1.5 2.5,-0.6c-0.2,0.8 -3.6,0.9 -4.4,1c0.1,0.2 0.1,0.5 0.2,0.7c1.2,-0.8 2.5,-1.6 3.8,-2.3c-0.1,-0.2 -0.3,-0.4 -0.4,-0.6c-1.2,0.9 -2.4,1.7 -3.8,2.3c0.2,0.2 0.3,0.4 0.5,0.6c4.5,-3.8 10.4,-3.9 15.9,-2.7c2.4,0.5 4.7,1.3 7,2.1c1.3,0.4 1.8,0.9 2.6,1.9c0.7,0.9 1.6,1.7 2.4,2.5c3.3,3.1 7.4,5.6 9.5,9.7c0.5,1 1.3,2.4 1,3.5c-0.3,1 -1.1,1.8 -1.8,2.6c-1.3,1.4 -2.6,2.7 -3.3,4.5c-0.1,0.3 0.1,0.4 0.4,0.5c1.1,0.1 2.1,0.2 3.2,0c0.3,-0.1 0.3,-0.5 0.1,-0.7c-1.1,-0.7 -2.4,-0.8 -3.5,0c-0.3,0.2 -0.2,0.7 0.2,0.7c11.1,1.3 22.6,3.2 32.3,9.3c1.5,1 2,2.1 2.6,3.8c0.5,1.4 0.9,2.9 1.2,4.4c0.6,2.9 0.8,5.8 0.7,8.8c-0.2,5.8 -1.3,11.6 -2.9,17.2c-0.3,1.2 -0.7,2.1 -0.6,3.4c0.1,1.2 0.5,2.5 0.8,3.7c0.9,3.2 1.3,6.7 1.9,10c0,0.2 0.3,0.3 0.5,0.3c17.2,-4.4 34.1,-9.7 50.7,-15.9c15.8,-6 31.5,-12.5 47.8,-17.1c9.3,-2.6 18.8,-4.6 28.4,-5.6c0.4,0 0.5,-0.6 0.1,-0.7c-1.5,-0.5 -3,-1.1 -4.6,-1.6c-0.2,-0.1 -0.5,0.1 -0.5,0.4c0.1,7.8 -0.4,15.7 -2,23.3c-0.8,3.7 -1.8,7.4 -3,11c-0.3,0.9 -0.7,1.8 -1,2.8c-0.4,1 -0.7,2.5 -1.4,3.2c-0.6,0.6 -1.7,0.3 -2.5,0.3c-1.3,0 -2.5,-0.1 -3.8,-0.1c-4.1,-0.2 -8.2,-0.4 -12.3,-0.3c-3.1,0.1 -6,0.3 -8.9,1.6c-2.6,1.2 -5.1,2.9 -7.8,3.7c-1.2,0.4 -2.5,0.5 -3.7,0.2c-2,-0.6 -3,-2.3 -4,-4.1c-4,-7.2 -6.1,-15.3 -10.4,-22.3c-0.3,-0.4 -0.8,-0.1 -0.6,0.4c8.1,17.4 -4.3,35.1 -14.3,48.8c0.2,0 0.4,0 0.6,0c-4.7,-9 -9.8,-17.6 -14.4,-26.7c-2.3,-4.6 -4.6,-9.3 -5.9,-14.2c-1.2,-4.7 -1.7,-9.6 -1.7,-14.4c-0.1,-5.5 0.3,-10.9 0.5,-16.4c0,-0.5 -0.7,-0.5 -0.8,0c-0.1,1.5 -0.2,3.1 -0.2,4.6c0,0.5 0.7,0.5 0.8,0c0.1,-1.5 0.2,-3.1 0.2,-4.6c0,-0.3 -0.3,-0.5 -0.6,-0.3c-23.4,12.9 -46.8,25.9 -70.3,38.8c-23.3,12.9 -46.6,25.8 -69.9,38.6c-13.1,7.2 -26.3,14.4 -39.5,21.6c-0.4,0.2 -0.1,0.8 0.3,0.7c10.8,-2.7 20.6,-9.6 25.7,-19.6c-0.2,0 -0.3,0.1 -0.5,0.1c3.7,2.8 8,4.1 12.6,3c4.4,-1 8.3,-3.8 11.8,-6.6c3.9,-3.2 7.5,-6.8 11.5,-9.9c2.6,-2 5.8,-2.4 8.9,-3.2c1.4,-0.3 2.9,-0.7 4.3,-1.3c1.1,-0.5 1.6,-1 2.2,-2c0.9,-1.5 1.5,-3.1 2.8,-4.3c1.2,-1.1 2.6,-2 4,-2.7c3,-1.5 6.4,-2.4 9.7,-2.8c0.3,0 0.5,-0.4 0.3,-0.6c-2.7,-3.3 -5.1,-8.9 -10.2,-8.3c-2.9,0.3 -5.5,2 -8,3.4c-3.3,1.8 -6.5,3.7 -9.7,5.7c0.2,0.1 0.4,0.1 0.6,0.2c-0.1,-0.3 -0.8,-2.2 0.2,-1.8c1,0.5 -0.3,1.3 -0.7,1.6c0.2,0 0.3,0.1 0.5,0.1c-3.1,-4.5 -3.2,-9.6 -1.8,-14.7c1.2,-4.6 2.8,-8.9 6.2,-12.3c1.7,-1.7 3.6,-3 5.7,-4.1c0.7,-0.3 1.8,-0.5 2.3,-1c0.6,-0.6 0.9,-1.9 1.4,-2.6c1.8,-3 4.4,-5.4 7.5,-7c6.1,-3 13.4,-2.7 20,-2.2c3.5,0.3 6.9,0.7 10.4,0.9c3.2,0.2 6.4,0.1 9.6,0.1c1.3,0 2.4,1.1 3.4,1.8c1.1,0.7 2.2,1.4 3.2,2.1c2.3,1.5 4.6,3.1 6.7,4.8c2,1.7 3.9,3.6 5.4,5.8c0.9,1.3 1.8,2.7 2.1,4.3c0.4,2 -0.3,3.9 -1.3,5.5c-0.1,0.1 0,0.3 0.1,0.5c6.4,7.4 7.9,17.1 11.5,25.9c0.8,2 1.1,3.9 -0.2,5.9c-1,1.6 -2.6,2.8 -4.1,3.8c-1.3,0.9 -2.7,2.1 -4.2,2.8c-2,1.1 -4.5,0 -6.5,0.8c-1,0.4 -1.9,1.2 -2.8,1.8c-1.1,0.7 -2.3,1.4 -3.4,2c-2.4,1.2 -4.8,2.3 -7.3,3.1c-2.3,0.8 -4.7,1.4 -7.1,1.8c-2.7,0.5 -5.5,0.4 -8.2,0.6c-2.4,0.2 -4.7,0.5 -7,0.8c-1.2,0.2 -2.3,0.3 -3.5,0.5c-1.4,0.2 -2.4,0.7 -3.6,-0.3c-3.8,-3.2 -7.9,-5.9 -12,-8.7c-4.7,-3.2 -9.7,-6.3 -13.8,-10.3c-2,-2 -4.7,-4 -6.2,-6.5c-1.4,-2.3 -1.9,-5.2 -2.2,-7.8c0,-0.4 -0.6,-0.5 -0.7,-0.1c-0.5,1.6 -0.5,3.2 0.1,4.8c0.1,0.3 0.7,0.4 0.7,0c0.2,-1.6 0.1,-3.2 -0.1,-4.7c0,-0.3 -0.5,-0.6 -0.7,-0.2c-2.3,4.3 -7.7,4.3 -11.9,4.9c-5.8,0.8 -11.4,2.8 -16.8,4.9c-5.5,2.1 -11,4.3 -16.8,5.5c-5.6,1.2 -11.4,1.8 -17,3c-6.3,1.3 -12.4,3.4 -17.8,6.9c0.1,0.2 0.3,0.4 0.4,0.6c1.4,-1.1 2.9,-2.2 4.3,-3.4c0.4,-0.3 -0.2,-0.8 -0.5,-0.5c-1.4,1.1 -2.8,2.2 -4.2,3.3c-0.3,0.3 0.1,0.8 0.5,0.6c8.6,-6.6 18.1,-12.1 26.1,-19.5c0.3,-0.2 0,-0.8 -0.4,-0.6c-1.8,0.7 -3.6,1.5 -4.9,3c-0.2,0.3 0,0.8 0.4,0.6c1.9,-0.6 3.3,-1.9 4.9,-3c0.3,-0.2 0,-0.7 -0.4,-0.6c-8.2,2.2 -16.8,1.3 -25.1,2.5s-16.5,3.6 -24.3,6.6c-0.5,-0.2 -0.3,0.5 0.1,0.3l0,0z" class="st0"/>
    </g>
   </g>
   <g id="svg_4">
    <g id="svg_5">
     <path id="svg_6" d="m11.8,334.4c0,1.5 1,2.7 2.5,3.7c0.7,0.5 1.5,0.9 2.3,1.3c1.5,0.7 2.2,1.4 2.9,2.4c2.2,3.2 4.8,6.3 7.9,9.2c5.7,5.5 12.6,10.3 20.8,14c8.5,3.9 18,6.6 28.2,7.9c6,0.8 12.3,0.2 18.3,1.1c3.2,0.5 6,1.3 8.4,2.8c1.9,1.2 3.5,2.7 5,4.3c3.2,3.4 5.7,6.9 10.1,9.8c4.8,3.1 10.6,5.5 14.4,9.3c0.1,0.2 0.6,0.3 0.9,0.1c7.8,-5.8 15.5,-11.6 23.3,-17.4c-0.3,-0.1 -0.6,-0.2 -0.9,-0.3c-0.3,1.9 0.3,3.6 2.6,4.8c2.2,1.1 5.1,1.5 7.9,1.9c8.5,1.2 15.8,4.4 21.6,9c0.1,0.2 0.6,0.1 0.7,0c4.8,-3.2 12,-3 17.6,-5.1c5.9,-2.2 11.9,-4.8 18.5,-5.7c5.4,-0.8 11.7,0.2 16.1,2.4c2.6,1.3 4.1,3 4.3,5.2c0.1,2.4 -0.9,5 -2.6,7c-2.8,3.1 -9.1,3.4 -13.8,2.6c-2.5,-0.4 -4.8,-1.1 -6.7,-2.3c-2.9,-1.8 -2.9,-4.2 -1.9,-6.6c1,-2.3 2.3,-4.5 3.4,-6.7c1.2,-2.7 2.2,-5.5 3.2,-8.2c1.5,-4.2 2.8,-8.4 4.1,-12.7c2.3,-8.3 5,-18.4 15.5,-23.9c-0.3,-0.1 -0.6,-0.3 -0.9,-0.4c-1.2,2.2 -3.8,4.2 -6.9,5.2c0.3,0.2 0.4,0.3 0.7,0.5c1.6,-2.2 4.5,-3.7 7.2,-5.4c-0.3,-0.1 -0.6,-0.2 -0.9,-0.4c-1.3,4 -3.4,7.8 -4.7,11.7c-0.4,1.2 -0.4,2.3 -1,3.5c-0.3,0.6 -0.4,0.9 -1.3,0.9c-0.9,0 -1.9,-0.1 -2.8,-0.1c-10.7,-1 -21.6,-1.7 -32.3,-3.2c-11,-1.5 -22.7,-3.3 -32.6,-7.3s-16.3,-10.6 -23,-16.8c-6.9,-6.4 -15.3,-11.9 -21.9,-18.3c-3.4,-3.3 -5.9,-6.7 -7.5,-10.5c-1.6,-3.6 -2.6,-7.3 -4.7,-10.8c-4,-6.8 -11.9,-11.9 -19.9,-16.5c-8.4,-4.8 -17.3,-8.9 -27.6,-11.6c-9.4,-2.5 -20.4,-4.6 -30.1,-1.6c-4,1.2 -7,3.3 -10.4,5.1c-3.2,1.9 -7.2,4 -11.6,4.2c-2.5,0.1 -4.5,-0.6 -6.6,-1.5c-0.3,-0.2 -0.9,0.1 -0.9,0.3c1,8.7 2.2,17.3 3.2,26c0,0.3 0.4,0.5 0.9,0.3c2.1,-0.7 4.1,-1.3 6.2,-2c0.6,-0.2 0.1,-0.8 -0.6,-0.6c-2.1,0.6 -4.1,1.3 -6.2,2c0.3,0.1 0.6,0.2 0.9,0.3c-1,-8.7 -2.2,-17.3 -3.2,-26c-0.3,0.1 -0.6,0.2 -0.9,0.3c7.6,3.9 15.3,-0.3 21.3,-3.7c4,-2.3 7.9,-4.3 13.2,-5.1c5.7,-0.8 11.7,-0.1 17.2,1c11.4,2.3 22,6.2 31.2,11.3c8.5,4.7 17.6,9.9 22.1,16.9c2.3,3.7 3.5,7.6 5.3,11.4c1.6,3.7 3.7,7 6.7,10.2c6.7,6.7 15.4,12.3 22.4,18.9c6.5,6 12.6,12.5 22,16.7c9.2,4.2 20.7,6.1 31.4,7.7c11.3,1.7 22.7,2.3 34.2,3.5c2.2,0.2 5.6,1 6.6,-0.9c0.6,-1.2 0.7,-2.4 1,-3.6c0.6,-1.9 1.6,-3.7 2.3,-5.6c0.9,-2.1 1.8,-4.1 2.3,-6.3c0.1,-0.4 -0.4,-0.6 -0.9,-0.4c-2.6,1.7 -5.6,3.3 -7.3,5.5c-0.3,0.3 0.3,0.7 0.7,0.5c3.4,-1.1 6.2,-3.3 7.5,-5.7c0.1,-0.3 -0.4,-0.6 -0.9,-0.4c-10.3,5.3 -13.2,14.6 -15.5,22.7c-1.5,4.9 -2.9,9.7 -4.5,14.6c-1,3.1 -2.2,6.1 -3.5,9.1c-1,2.5 -2.9,4.9 -3.5,7.5c-1.6,7.6 16.3,10.8 23.5,6.4c2.2,-1.4 3.5,-3.6 4.1,-5.6c0.7,-2.1 0.7,-4.5 -0.7,-6.4c-2.6,-3.3 -9.2,-4.8 -14.4,-5.3c-7.6,-0.7 -15,2.1 -21.3,4.5c-1.8,0.7 -3.5,1.4 -5.3,2c-2.1,0.6 -4.1,1 -6.3,1.4c-3.7,0.7 -7.3,1.5 -10.1,3.3c0.3,0 0.6,0 0.7,0c-5,-4 -11.7,-7.5 -19.4,-8.8c-2.8,-0.5 -5.6,-0.7 -8.2,-1.4c-3.2,-0.9 -4.5,-2.6 -4.1,-4.9c0,-0.3 -0.6,-0.5 -0.9,-0.3c-7.8,5.8 -15.5,11.6 -23.3,17.4c0.3,0 0.6,0.1 0.9,0.1c-3.2,-3.2 -7.6,-5.4 -11.9,-7.8c-2.3,-1.3 -4.7,-2.8 -6.5,-4.4c-1.5,-1.3 -2.6,-2.8 -3.8,-4.2c-2.5,-2.9 -5,-5.8 -8.9,-7.9c-4.4,-2.3 -10.6,-2.7 -16,-2.8c-3.2,-0.1 -6.3,0 -9.4,-0.4c-2.5,-0.3 -5.1,-0.8 -7.6,-1.3c-5,-1 -9.8,-2.4 -14.5,-4.1c-8.8,-3.3 -16.6,-7.8 -22.9,-13.1c-3.7,-3.1 -6.9,-6.5 -9.7,-10c-1.2,-1.6 -2.1,-3.4 -4.3,-4.6c-2.3,-1.2 -5.1,-2.5 -5.1,-4.8c0.1,-0.5 -1.1,-0.5 -1.1,0l0,0z" class="st0"/>
    </g>
   </g>
   <g id="svg_7">
    <g id="svg_8">
     <path id="svg_9" d="m112,204.5c-0.3,11.4 -4.2,22.2 -7,33.2c-2.8,11.3 -3.9,22.9 -6.2,34.3c-1.3,6.6 -2.8,13.3 -4.1,19.9c-0.1,0.5 0.6,0.7 0.7,0.2c1.2,-6 2.4,-12 3.7,-18c1.2,-5.7 2.1,-11.5 3,-17.3c0.9,-5.8 1.8,-11.5 3.2,-17.2c1.3,-5.5 3,-10.9 4.4,-16.4c1.6,-6.1 2.8,-12.3 3,-18.6c0.1,-0.6 -0.7,-0.6 -0.7,-0.1l0,0z" class="st0"/>
    </g>
   </g>
   <g id="svg_10">
    <g id="svg_11">
     <path id="svg_12" d="m103.6,198.8c-17.6,1.9 -29.1,8.8 -47.3,10.1c-8.6,0.5 -17.1,0.9 -23.6,3.5c-4.8,1.9 -9.9,6.8 -18.7,3.9c0.2,0.4 0.2,0.6 0.4,1c21.8,-3.6 43.9,-7.3 65.6,-10.9c5.5,-0.8 11.1,-1.8 16.6,-2.7c5.2,-0.9 10.5,-2.1 16.2,-2.5c3.5,-0.2 6.4,-0.5 8.5,-1.8c1.5,-1.1 2.1,-2.5 2.7,-3.9c0.5,-0.7 -2,-1.2 -2.4,-0.5c-1,1.6 -1.3,3.4 -4,4.2c-2,0.7 -4.2,0.5 -6.7,0.7c-1.9,0.1 -3.9,0.6 -5.5,0.8c-10.4,1.7 -20.8,3.4 -30.9,5.1c-20.5,3.4 -40.9,6.7 -61.4,10.1c-0.7,0.2 -0.5,0.8 0.4,1c7.3,2.4 12.5,0.4 16.6,-1.5c3.1,-1.5 5.9,-2.9 9.9,-3.8c4.3,-1 9.4,-1.3 14.5,-1.6c9.5,-0.6 17.4,-2.2 25.1,-4.4c8,-2.3 15.8,-4.9 25.4,-5.9c0.9,0.1 -0.1,-1.1 -1.4,-0.9l0,0z" class="st0"/>
    </g>
   </g>
   <g id="svg_13">
    <g id="svg_14">
     <path id="svg_15" d="m152.9,114c3.3,5.7 5.4,12 9.4,17.2c1.1,1.4 2.3,2.7 3.6,3.9c1.4,1.2 3,2.2 4.3,3.6c2.3,2.6 3.1,6.1 3.4,9.5c0.5,5.8 -0.2,12.4 3.6,17.3c2.8,3.7 7.5,4.5 11.9,4.1c5.7,-0.6 11.1,-2.8 16.5,-4.6c-0.1,-0.2 -0.2,-0.4 -0.4,-0.6c-0.1,0.1 -1.2,1 -1.1,1.1c-0.1,-0.1 1.4,-0.5 1.5,-0.5c-0.1,-0.2 -0.2,-0.5 -0.3,-0.7c-3.5,2.2 -7.4,3.9 -11,6c-1.8,1 -3.5,2.1 -5.1,3.3c-1.7,1.3 -3.3,2.7 -5.2,3.8c-6.6,4 -14.2,5.7 -21.7,7.4c-0.4,0.1 -0.3,0.6 0,0.7c1.3,0.5 2.6,0 3.7,-0.7c0.3,-0.2 0.2,-0.7 -0.2,-0.7c-1.2,0 -2.4,0.4 -3.6,0.7c-0.2,0.1 -0.3,0.3 -0.2,0.6c0.8,1.5 4,5.7 5.3,2.3c1,-2.7 -3.3,-3 -5,-2.8c-0.3,0 -0.5,0.3 -0.3,0.6c9.9,18.7 19.2,37.7 28.6,56.6c2.7,5.3 5.3,10.7 8,16c0.1,-0.2 0.2,-0.4 0.3,-0.6c-0.5,0 -1,-0.1 -1.5,-0.3c-0.2,-0.1 -0.6,-0.2 -0.3,-0.3c0.7,-0.1 1.2,0.6 1.4,1.1c0.1,-0.2 0.3,-0.4 0.4,-0.6c-11.3,-1.7 -21.6,-7.8 -33.3,-7.6c-10.7,0.3 -22,4 -32.4,0.1c-6.1,-2.3 -10.3,-7.4 -14.6,-12.1c-0.2,0.2 -0.4,0.4 -0.5,0.5c0.9,0.7 1.8,1.3 2.9,1.7c0.4,0.2 0.6,-0.5 0.3,-0.7c-0.9,-0.6 -1.8,-1.1 -2.7,-1.6c-0.4,-0.2 -0.8,0.3 -0.5,0.6c3.4,3.1 9.2,1.1 9.6,-3.6c0.3,-3 -2.2,-5.4 -3.7,-7.7c-2.2,-3.5 -2.6,-7.9 -0.8,-11.7c-0.2,0 -0.3,0.1 -0.5,0.1c0.9,0.6 1.8,0.8 2.9,1c1.2,0.2 2,1 2.9,1.8c1.4,1.4 2.7,2.9 4,4.3c2.5,2.7 5.4,5.3 9.1,5.9c4.4,0.7 8.8,-0.7 12.8,-2.3s8.4,-3.6 12.7,-1.8s6.4,6.4 8,10.4c0.1,0.3 0.4,0.4 0.6,0.2c0.6,-0.5 2.3,-2.5 0.6,-2.9c-1.6,-0.4 -1.5,1.8 -1.2,2.7c0.1,0.2 0.3,0.4 0.6,0.2c12.6,-9 17.1,-24.3 26.3,-36.1c1.2,-1.6 2.5,-3 4.1,-4.1s3.3,-1.8 5.1,-2.4c1.8,-0.6 3.7,-1 5.5,-1.3c2,-0.4 3.9,-0.8 5.9,-0.7c4,0.2 7.9,1.7 12,1.1c3.2,-0.5 6.4,-2.4 8.4,-5c4.4,-5.6 3.9,-13.7 3.2,-20.4c0,-0.1 -0.1,-0.3 -0.3,-0.4c-3.9,-0.5 -7.9,-0.5 -11.6,0.8c-1.7,0.6 -3.3,1.5 -4.7,2.7c-1,0.9 -3.1,2.8 -3.1,4.2c0.1,1.5 1.4,3.3 2.5,4.3s2.5,1.7 3.9,2.1c3.4,1 7,0.8 10.5,0.8c1.2,0 2.4,-0.1 3.5,0.5s1.9,1.7 2.5,2.8c0.3,0.6 0.5,1.2 0.7,1.8s0.3,0.6 0.8,0.9c0.6,0.4 1.1,0.8 1.7,1.1c0.4,0.2 0.7,-0.3 0.5,-0.6c-0.6,-0.6 -1.6,-1.1 -2.3,-1.6c-0.4,-0.3 -0.8,0.4 -0.4,0.6c3,2 6.4,3.5 9.9,4.1c3.1,0.6 6.6,0.6 9.3,-1.2c3,-2 4.4,-5.9 5.4,-9.2c1.2,-4 1.7,-8.1 2.6,-12.1c1.1,-4.8 2.9,-9.4 6.6,-12.9c-0.2,-0.2 -0.4,-0.4 -0.5,-0.5c-1.1,1.3 -2.4,2.5 -3.8,3.5c0.2,0.2 0.3,0.4 0.5,0.6c1.2,-1.3 2.5,-2.4 3.9,-3.5c0.3,-0.3 0,-0.7 -0.4,-0.6c-11.1,3.1 -22.9,3.4 -34.1,1c-0.6,-0.1 -1.2,-0.2 -1.8,-0.4c-0.7,-0.2 -0.9,-0.4 -1.3,-1.1c-0.6,-0.8 -1.2,-1.5 -1.8,-2.2c-1.2,-1.3 -2.6,-2.3 -4.1,-3.2c-3,-1.7 -6.4,-2.4 -9.7,-2.7c-7.7,-0.7 -15.4,0.9 -23.2,0.3c-1.9,-0.1 -3.8,-0.4 -5.6,-0.9c-2.3,-0.6 -3.9,-2.1 -4.9,-4.2c-1.4,-2.8 -0.7,-5.8 -0.7,-8.7c0,-1 0.1,-2.3 -0.3,-3.3c-0.5,-1.2 -1.3,-2.3 -1.8,-3.6c-0.5,-1.3 -1,-2.7 -1.4,-4c-0.3,-0.9 -0.5,-2.1 -0.9,-2.9c-0.5,-1 -1.6,-1.4 -1.8,-2.6c-0.2,-1.3 -0.2,-2.7 -0.3,-4c-0.1,-1.5 -0.2,-3 0,-4.4c0.3,-1.6 1.8,-2.2 3.3,-1.8c2.3,0.5 4.2,2.2 6.4,3.2c0.3,0.1 0.6,0 0.6,-0.3c0.1,-3.6 0.1,-7.3 0.2,-10.9c-0.2,0.1 -0.5,0.1 -0.7,0.2c11.6,17.8 4.6,39.5 5.3,59.2c0.1,2.4 0.2,4.9 0.8,7.2c0.5,2.3 0.2,4.8 1.1,7c0.8,1.8 2,3.3 3.5,4.6c1.4,1.3 3.1,2.4 4.2,4c0.5,0.8 0.7,1.5 0.8,2.4c0.2,1.4 0.6,2.9 1,4.3c0.7,2.8 1.3,5.6 2,8.4c1.4,5.6 2.9,11.2 4.2,16.8c3,12.6 5.3,25.5 4.8,38.5c0.1,-0.1 0.2,-0.2 0.3,-0.4c-5.4,0.7 -10.7,4.4 -12.6,9.6c-1,2.7 -0.9,5.8 0.2,8.5c0.5,1.2 2.4,1.6 3.6,1.9c1.6,0.4 3.2,0.6 4.8,0.6c3.7,0.1 7.4,-0.5 11.1,0.2c3.4,0.6 6.4,2.5 8.2,5.5c1.6,2.7 2.3,6.1 1.2,9c-1,2.7 -3,4.8 -5.3,6.6c-2.4,1.9 -5.1,3.4 -7.4,5.3c-1.1,0.9 -2.4,2 -3.1,3.3c-1,1.9 -1.9,3.8 -2.6,5.8c-0.1,0.3 0.3,0.6 0.6,0.4c0.5,-0.3 2.6,-1.9 1.6,-2.7c-1,-0.8 -2,1.7 -2.2,2.3c-0.1,0.4 0.4,0.6 0.6,0.4c5.5,-4.8 12.2,-7.9 18,-12.1c2.3,-1.7 5.1,-3.6 6.3,-6.4c1,-2.2 0.7,-4.7 -0.3,-6.9c-1.2,-2.6 -3.6,-4.6 -6.3,-5.5c-0.1,0.2 -0.1,0.5 -0.2,0.7c0.8,0.1 1.6,0.2 2.4,0.4c0,-0.2 0.1,-0.5 0.1,-0.7c-0.8,-0.1 -1.5,-0.2 -2.3,-0.4c0,0.2 0,0.5 0,0.7c2.9,-0.6 5.9,1.1 8.7,-0.2c3.4,-1.5 4.3,-5.6 3.5,-8.9c-0.9,-3.5 -3.5,-6.5 -6.8,-7.9c-1.5,-0.6 -3.1,-0.9 -4.7,-0.7c-1.4,0.2 -3.4,0.8 -4.5,1.8c-1.3,1.1 -1.6,2.8 -1.7,4.4c-0.2,2.4 0.1,4.8 0.2,7.2c0,0.2 0.2,0.4 0.5,0.4c0.6,-0.2 2.8,-1.3 1.4,-2.1c-1.1,-0.7 -1.9,0.8 -1.9,1.7c0,0.3 0.4,0.5 0.6,0.3c6.2,-6.4 -2.7,-14.2 -6,-19.5c-0.1,0.2 -0.1,0.4 -0.2,0.6c1.2,-0.2 2.4,-0.3 3.6,-0.2c-0.1,-0.2 -0.1,-0.5 -0.2,-0.7c-1.1,0.6 -2.2,0.7 -3.3,0.2c0,0.2 -0.1,0.5 -0.1,0.7c7.5,-2 15.9,-2.3 23.2,0.9c1.7,0.8 3.3,1.7 4.8,2.8c0.8,0.6 1.6,1.2 2.3,1.9c0.6,0.7 0.8,1.9 1,2.8c0.9,3.7 0.7,7.5 -0.2,11.1c-0.9,3.6 -2.5,7 -4.5,10.1c-1.1,1.6 -2.2,3 -3.6,4.4c-0.8,0.8 -1.3,1.2 -2.4,1.3c-1,0.1 -2.1,0.1 -3.2,0.1c-4.4,-0.1 -8.9,-1.1 -12.9,-3s-7.7,-4.3 -9.6,-8.4c-1.6,-3.6 -2.6,-7.5 -1,-11.2c1.4,-3.1 4,-5.7 5.1,-8.9c0.4,-1.3 -0.2,-3.1 -0.8,-4.4c-0.7,-1.7 -1.8,-2.9 -3.1,-4.1c-2.9,-2.7 -5.7,-5.5 -8.6,-8.2c-5.6,-5.4 -11.6,-10.7 -18.6,-14.3c-3.9,-2 -7.9,-3.1 -12.1,-3.9c-2.3,-0.5 -4.6,-1 -6.8,-1.8c-2.1,-0.8 -4.2,-1.7 -6.3,-2.6c-8.4,-3.5 -16.9,-6.8 -25.5,-9.9c-4.3,-1.5 -8.7,-3 -13.1,-4.3c-4.4,-1.3 -9,-3.1 -13.6,-2.7c-2.2,0.2 -4.3,0.7 -6.5,1.2c-0.5,0.1 -0.3,0.8 0.2,0.7c2.5,-0.6 4.9,-1.2 7.5,-1.3c2.7,-0.1 5.1,0.7 7.7,1.4c4.7,1.3 9.3,2.8 14,4.3c9,3 17.8,6.5 26.5,10.1c4.4,1.8 8.7,3.9 13.3,5c2.3,0.5 4.6,0.9 6.8,1.5c2.3,0.6 4.5,1.4 6.7,2.5c7.5,3.6 13.8,9.3 19.7,15c2.9,2.8 5.9,5.6 8.9,8.5c1.5,1.4 2.5,3.4 2.9,5.5c0.4,2 -1,3.8 -2.1,5.3c-1.8,2.9 -3.9,5.8 -3.9,9.4c0,1.8 0.6,3.6 1.1,5.3c0.5,1.7 1.2,3.3 2.3,4.7c2.3,3.3 6.3,5.4 10,6.9c3.9,1.6 8.2,2.5 12.4,2.4c1.1,0 2.1,-0.1 3.2,-0.2c0.9,-0.1 1.1,-0.4 1.8,-1c1.3,-1.2 2.4,-2.6 3.5,-4c2.2,-3 3.9,-6.4 5,-9.9c1,-3.5 1.5,-7.2 1,-10.8c-0.2,-1.5 -0.4,-3.6 -1.3,-4.9c-0.8,-1.3 -2.7,-2.5 -4,-3.3c-6.3,-4.2 -14.2,-5.1 -21.6,-4.1c-1.9,0.3 -3.9,0.7 -5.8,1.2c-0.3,0.1 -0.4,0.5 -0.1,0.7c1.4,0.6 2.7,0.5 4.1,-0.2c0.4,-0.2 0.2,-0.7 -0.2,-0.7c-1.3,-0.2 -2.5,0 -3.8,0.2c-0.2,0 -0.3,0.4 -0.2,0.6c3.1,5 11.9,12.6 6.1,18.6c0.2,0.1 0.4,0.2 0.6,0.3c0,-0.2 0.2,-1.4 0.7,-1.1c0.2,0.1 -1,0.6 -1.2,0.7c0.2,0.1 0.3,0.2 0.5,0.4c-0.1,-3.1 -0.9,-7 0.5,-9.9c0.7,-1.4 2.3,-2 3.7,-2.5c1.5,-0.5 3.2,-0.4 4.7,0c3.3,1 5.9,3.8 7,7s0.4,7.8 -3.3,9c-2.6,0.8 -5.4,-0.6 -8.1,0c-0.4,0.1 -0.4,0.6 0,0.7c0.8,0.2 1.6,0.3 2.5,0.4c0.4,0 0.5,-0.7 0.1,-0.7c-0.8,-0.2 -1.6,-0.3 -2.4,-0.4c-0.5,-0.1 -0.7,0.6 -0.2,0.7c3.2,1 5.8,3.7 6.5,7c0.8,3.9 -1.7,6.6 -4.5,8.9c-6.3,5.1 -13.9,8.3 -20,13.7c0.2,0.1 0.4,0.2 0.6,0.4c0.1,-0.2 1,-1.9 1,-1.9c-0.1,-0.1 -0.3,0.4 -0.4,0.5c-0.3,0.4 -0.7,0.7 -1.1,1c0.2,0.1 0.4,0.3 0.6,0.4c0.7,-1.9 1.5,-3.7 2.5,-5.4c0.7,-1.3 1.9,-2.3 3,-3.2c2.2,-1.8 4.6,-3.2 6.8,-4.9c4,-3 7.4,-7.1 6.6,-12.4c-0.9,-5.9 -5.6,-10 -11.4,-10.7c-3.4,-0.4 -6.8,0 -10.2,-0.1c-1.9,0 -3.8,-0.3 -5.6,-0.9c-1.2,-0.4 -2,-0.8 -2.4,-2c-0.3,-0.8 -0.5,-1.7 -0.5,-2.6c-0.6,-7.2 6.1,-12.8 12.8,-13.7c0.2,0 0.3,-0.2 0.3,-0.4c0.5,-11.4 -1.3,-22.8 -3.7,-33.9c-1.3,-5.7 -2.7,-11.4 -4.1,-17c-0.7,-2.9 -1.4,-5.7 -2.1,-8.6c-0.7,-2.9 -1.6,-5.9 -2,-8.8c-0.5,-3.6 -4.1,-5.3 -6.5,-7.8c-1.9,-2 -2.8,-4.4 -3,-7.1c-0.2,-2.5 -0.8,-5 -1,-7.5c-0.8,-10.2 0.7,-20.3 1.2,-30.5c0.5,-11.1 -0.6,-22.2 -6.7,-31.7c-0.2,-0.3 -0.7,-0.2 -0.7,0.2c-0.1,3.6 -0.1,7.3 -0.2,10.9c0.2,-0.1 0.4,-0.2 0.6,-0.3c-2,-0.8 -3.6,-2.2 -5.6,-3c-1.4,-0.5 -3.7,-0.7 -4.7,0.8c-0.5,0.7 -0.5,1.9 -0.5,2.8c-0.1,1.5 0.1,2.9 0.2,4.4c0.1,1 0,2.2 0.2,3.2c0.1,0.8 0.8,1.3 1.3,1.9c0.8,0.8 1,2 1.3,3.1c0.4,1.3 0.8,2.6 1.3,3.8c0.4,1.1 0.9,2.2 1.5,3.3c0.9,1.6 0.9,3.1 0.8,4.8c-0.1,2.7 -0.5,5.4 0.7,8c0.9,1.9 2.3,3.5 4.2,4.4c3.4,1.5 7.8,1.5 11.4,1.5c4.2,0 8.4,-0.4 12.5,-0.5c4,-0.1 8,0 11.8,1.1c4.1,1.2 7.5,3.8 9.8,7.3c0.7,1 2.1,1 3.2,1.2c1.7,0.3 3.3,0.6 5,0.9c3.2,0.5 6.5,0.7 9.8,0.7c6.7,0.1 13.3,-0.8 19.7,-2.6c-0.1,-0.2 -0.2,-0.4 -0.4,-0.6c-1.3,1.1 -2.7,2.2 -3.9,3.5c-0.3,0.3 0.1,0.8 0.5,0.6c1.5,-1 2.8,-2.2 3.9,-3.6c0.3,-0.4 -0.2,-0.9 -0.5,-0.5c-5.9,5.6 -6.8,13.6 -8.3,21.1c-0.8,3.8 -1.8,8 -4.2,11.1c-2.1,2.9 -5.8,3.5 -9.1,3.1c-4,-0.4 -7.8,-2.1 -11.1,-4.3c-0.1,0.2 -0.3,0.4 -0.4,0.6c0.6,0.4 1.8,1.1 2.2,1.5c0.2,-0.2 0.3,-0.4 0.5,-0.6c-0.3,-0.2 -0.6,-0.4 -0.9,-0.6c-0.4,-0.3 -0.9,-0.5 -1.2,-1c-0.2,-0.3 -0.3,-0.8 -0.4,-1.2c-0.7,-1.5 -1.7,-3 -3.2,-3.9c-1.4,-0.8 -2.9,-0.6 -4.5,-0.6c-1.7,0 -3.3,0 -5,0c-3.1,-0.2 -6.6,-0.7 -8.8,-3.2c-0.6,-0.7 -1,-1.5 -1.4,-2.3c-0.2,-0.4 -0.4,-0.8 -0.2,-1.3c0.1,-0.5 0.8,-1.2 1.1,-1.6c1.2,-1.5 2.8,-2.7 4.5,-3.5c3.9,-1.9 8.5,-2 12.8,-1.4c-0.1,-0.1 -0.2,-0.2 -0.3,-0.4c0.7,6.1 1.2,13.3 -2.2,18.8c-1.9,3.1 -5.2,5.4 -8.8,5.9c-4.1,0.6 -8.1,-1.1 -12.2,-1.2c-1.8,0 -3.6,0.3 -5.4,0.7c-1.8,0.3 -3.6,0.7 -5.4,1.2c-3.2,0.9 -6.3,2.4 -8.5,4.9c-4.9,5.4 -8.2,12.1 -11.8,18.4c-4.2,7.4 -8.9,14.5 -15.9,19.5c0.2,0.1 0.4,0.1 0.6,0.2c-0.1,-0.2 -0.5,-2.1 0.3,-1.8c0.7,0.2 -0.7,1.5 -0.9,1.6c0.2,0.1 0.4,0.1 0.6,0.2c-1.4,-3.4 -3.1,-7.1 -6.1,-9.5c-1.4,-1.1 -2.9,-1.8 -4.6,-2c-2.1,-0.4 -4,0 -6,0.7c-4.5,1.4 -8.7,3.7 -13.4,4.2c-2.4,0.2 -4.9,0 -7.1,-1.1c-1.8,-0.9 -3.3,-2.3 -4.7,-3.7c-1.6,-1.6 -3,-3.4 -4.7,-5c-0.7,-0.6 -1.4,-1.5 -2.2,-1.9c-1.3,-0.6 -2.7,-0.4 -3.9,-1.3c-0.2,-0.1 -0.4,0 -0.5,0.1c-1.3,2.6 -1.5,5.6 -0.9,8.4c0.7,3 2.6,5 4.1,7.5c1.4,2.3 1.7,4.9 -0.4,6.9c-1.9,1.8 -4.8,1.9 -6.8,0c-0.2,0.2 -0.3,0.4 -0.5,0.6c0.9,0.5 1.9,1 2.7,1.6c0.1,-0.2 0.2,-0.5 0.3,-0.7c-0.9,-0.4 -1.8,-0.9 -2.6,-1.5c-0.4,-0.3 -0.9,0.2 -0.5,0.5c3.7,4.1 7.3,8.4 12.2,11.1c4.6,2.5 10,3 15.2,2.9c5.7,-0.2 11.3,-1.2 17,-1.6c5.8,-0.4 11.4,0.3 17,2c6.4,1.9 12.6,4.4 19.2,5.4c0.3,0 0.6,-0.2 0.4,-0.6c-0.4,-0.8 -1.9,-2.2 -2.8,-1.2c-1.1,1.3 2,1.7 2.5,1.7c0.3,0 0.4,-0.3 0.3,-0.6c-9.5,-18.9 -18.8,-37.9 -28.4,-56.7c-2.7,-5.3 -5.4,-10.6 -8.2,-15.9c-0.1,0.2 -0.2,0.4 -0.3,0.6c1.1,-0.1 4.5,-0.2 4.4,1.5c-0.1,1.8 -1.7,1 -2.5,0.2c-0.6,-0.7 -1.2,-1.4 -1.6,-2.2c-0.1,0.2 -0.1,0.4 -0.2,0.6c1.1,-0.3 2.2,-0.7 3.4,-0.7c-0.1,-0.2 -0.1,-0.5 -0.2,-0.7c-0.9,0.6 -2.1,1.1 -3.2,0.7c0,0.2 0,0.5 0,0.7c7.4,-1.7 14.9,-3.4 21.5,-7.3c3.6,-2.1 6.6,-5 10.3,-7.1c3.8,-2.1 7.7,-3.8 11.4,-6.2c0.4,-0.2 0.1,-0.7 -0.3,-0.7c-0.5,0.1 -2.5,0.5 -2,1.5s2,-0.5 2.3,-0.9c0.2,-0.3 0,-0.8 -0.4,-0.6c-4.6,1.6 -9.3,3.4 -14.1,4.3c-4.5,0.8 -9.8,0.8 -13.1,-3c-4.2,-4.8 -3.3,-11.8 -3.8,-17.7c-0.3,-2.9 -0.9,-5.8 -2.6,-8.3c-1.9,-2.8 -5,-4.4 -7.2,-6.8c-5,-5.5 -7.3,-12.7 -10.9,-19c-0.9,-0.2 -1.5,0.2 -1.3,0.6l0,0z" class="st0"/>
    </g>
   </g>
   <g id="svg_16">
    <g id="svg_17">
     <path id="svg_18" d="m125.3,432.7c6.3,-10.3 12.7,-20.5 20,-30.2c3.6,-4.9 7.4,-9.6 11.5,-14.1c1.9,-2.2 3.9,-4.3 5.9,-6.3c0.9,-0.9 2,-1.8 2.8,-2.8c1.1,-1.3 1.9,-2.8 2.7,-4.3c14.3,-22.7 28.3,-45.7 41.7,-69c1.9,-3.2 3.8,-6.6 5.6,-9.8c1.7,-3.1 3.9,-6.3 5.4,-9.6c1.3,-3 2,-6.2 2.5,-9.4c0.3,-1.7 0.7,-3.5 1.1,-5.2c0.4,-1.7 1.6,-2.8 2.7,-4.1c0.3,-0.4 0,-1 -0.5,-0.8c-1.2,0.4 -2.3,0.8 -3.5,1.2c0.1,0.3 0.3,0.6 0.4,0.9c1.1,-0.5 2.3,-0.8 3.4,-1.2c-0.1,-0.3 -0.1,-0.6 -0.3,-0.9c-6,2.3 -10.1,7 -14.1,11.5c-4.8,5.3 -10.3,9.8 -16.1,14.1c-5.9,4.5 -11.7,9 -16.6,14.5c-4.8,5.3 -9.4,11 -14.6,16c-19.7,18.7 -43,34.7 -69.6,43.1c-16.5,5.2 -32.7,11.4 -49.5,15.6c-0.3,0.1 -0.5,0.5 -0.3,0.8c5.2,6.8 10.5,13.7 15.7,20.5c0.1,-0.3 0.4,-0.5 0.5,-0.8c-9.4,-3.4 -5.2,-14.6 -5.1,-21.8c0.4,-10.8 -6.7,-20.1 -8.7,-30.6c-0.1,-0.4 -0.5,-0.4 -0.8,-0.3c-5.4,4.3 -11.3,8.1 -17.3,11.4c-0.5,0.3 -0.1,1 0.4,0.9c3.9,-1.3 6.8,-3.6 9.5,-6.5c1.9,-1.8 3.4,-3.6 5.9,-4.5c2.5,-0.9 5.2,-1 7.9,-1.2c4,-0.1 8.3,-0.3 11.4,-3.1c3.2,-2.8 5.2,-6.7 8.3,-9.7c3.5,-3.2 8.7,-4.9 13.3,-6.1c4.2,-1.2 8.4,-1.9 12.7,-3.2c3.4,-1 8,-2.2 10.2,-4.9c1.5,-1.7 2.8,-4 5.2,-4.3c2,-0.3 4.2,0.5 6.2,1c1.6,0.4 3.4,0.9 5.1,0.5c0.8,-0.1 1.6,-0.5 2.3,-1c0.8,-0.6 0.4,-0.5 0.8,-1.3c0.7,-1.2 1.6,-1.5 0.9,-3.1c-0.7,-1.7 -2.8,-2.6 -4.3,-3.4c-0.4,-0.3 -0.9,0.3 -0.7,0.6c1.2,2.1 3.2,3.6 5.8,3.4c0.5,0 0.7,-0.6 0.3,-0.9c-4.4,-2.8 -6.8,-7.4 -8,-12.3c-1.2,-4.5 -1.1,-9.3 -2.1,-13.9c-2,-8.7 -9.1,-15.8 -14.1,-22.9c-5.2,-7.5 -8.7,-17 -4,-25.7c4.2,-7.6 13.5,-11.2 21.3,-14.3c4,-1.7 8.3,-3.1 12.1,-5.2c4.2,-2.2 7.5,-5.6 9.9,-9.6c2.3,-4 3.6,-8.4 4.2,-12.8c0.3,-2.6 0.1,-5.2 0.9,-7.7c0.8,-2.5 2.1,-4.5 3.9,-6.5c3.1,-3.6 7.1,-6.5 10.6,-9.8c3.8,-3.7 5.9,-7.7 5.4,-13c-0.3,-2.5 -0.9,-4.9 -1.7,-7.4c-0.4,-1 -0.8,-2.2 -1.3,-3.2c-0.8,-1.4 -1.9,-2.7 -2.7,-4c-3.5,-5.4 -6.7,-11 -9.9,-16.5c-6.2,-11.1 -12.1,-22.3 -19.3,-32.8c-3.6,-5.3 -7.9,-10.1 -12.1,-15c-4,-4.8 -8.2,-9.6 -12.9,-13.8c-1.2,-1 -2.5,-2.1 -3.6,-3.2c-1.1,-1 -1.3,-2.3 -1.9,-3.6c-0.3,-0.5 -1.1,-0.1 -0.8,0.5c0.5,1 0.8,2.3 1.5,3.2c0.8,1 2.1,1.9 3.2,2.8c2.4,2.2 4.8,4.5 7,7c4.4,4.8 8.4,9.7 12.6,14.6c8.6,9.9 14.9,21.8 21.2,33.2c3.1,5.6 6.2,11.2 9.4,16.7c3.2,5.3 7.2,10.3 9.1,16.1c2,6.1 1.7,11.9 -2.9,16.8c-3.4,3.5 -7.5,6.5 -10.9,9.9c-2.9,3.1 -5.2,7.1 -5.5,11.4c-0.3,5.2 -1.1,10.1 -3.2,14.7c-2.3,4.8 -5.9,8.8 -10.7,11.2c-4,2.1 -8.3,3.6 -12.6,5.3c-7.5,3 -16,6.5 -20.4,13.4c-4.6,7.1 -3.4,16.1 0.5,23.2c4.4,8 11.5,14.6 15.3,23c2,4.4 2,9.2 2.8,13.9c0.7,4.5 1.9,9 4.7,12.8c1.3,1.7 2.8,3.1 4.7,4.3c0.1,-0.3 0.1,-0.6 0.3,-0.9c-2.3,0.3 -3.9,-1 -5,-2.8c-0.3,0.3 -0.4,0.4 -0.7,0.6c1.3,0.6 4.8,2.2 3.9,4.1c-0.1,0.4 -0.8,1 -1.1,1.4c-0.5,0.8 -1.1,1.3 -2.1,1.5c-3.4,0.8 -7,-1.5 -10.5,-1.5c-3.8,0 -5,3.1 -7.4,5.3c-1.3,1.3 -3.8,2.1 -5.5,2.7c-2,0.8 -4.2,1.4 -6.3,1.9c-7.8,2.1 -16,3.4 -22.7,8c-3.1,2.2 -5.2,5.9 -7.6,8.8c-1.5,1.7 -3.1,3.2 -5.4,3.7c-2.3,0.5 -4.7,0.6 -7,0.8c-4.6,0.3 -9.4,0.5 -12.6,3.9c-3.4,3.4 -6.4,6.7 -11.1,8.3c0.1,0.3 0.3,0.6 0.4,0.9c6.3,-3.2 12.1,-7.1 17.6,-11.5c-0.3,-0.1 -0.5,-0.1 -0.8,-0.3c2.3,11.4 9.9,21.1 8.4,33.1c-0.8,7.1 -2.8,16.8 6,20c0.4,0.1 0.8,-0.4 0.5,-0.8c-5.2,-6.8 -10.5,-13.7 -15.7,-20.5c-0.1,0.3 -0.1,0.5 -0.3,0.8c14.9,-3.7 29.4,-9.2 44,-13.8c6.6,-2.2 13.1,-4.3 19.4,-7c6.3,-2.7 12.3,-5.8 18.1,-9.3c11.5,-6.8 22.4,-14.9 32.3,-23.8c5.2,-4.6 10.2,-9.6 14.7,-14.9c4.8,-5.7 9.8,-11 15.5,-15.8c6.3,-5 13,-9.7 18.8,-15.2c5.5,-5.3 10.1,-12.3 17.6,-15.1c0.5,-0.3 0.4,-1.2 -0.3,-0.9c-1.2,0.4 -2.4,0.8 -3.6,1.2c-0.5,0.3 -0.1,1 0.4,0.9c1.2,-0.4 2.4,-0.8 3.5,-1.2c-0.1,-0.3 -0.3,-0.5 -0.5,-0.8c-0.8,0.9 -1.6,1.7 -2.3,2.7c-0.7,1 -0.8,2.1 -1.1,3.2c-0.7,3 -0.9,6.1 -1.7,9c-0.8,3.4 -2.5,6.2 -4.2,9.2c-1.7,3 -3.4,5.9 -5.1,8.9c-6.7,11.8 -13.7,23.5 -20.6,35.1c-7,11.5 -13.9,22.9 -21,34.2c-1.7,2.8 -3.5,5.8 -5.4,8.5c-1.7,2.6 -4.6,4.6 -6.7,7c-3.9,4.1 -7.6,8.5 -11.1,13c-8.4,10.8 -15.8,22.5 -22.9,34.1c0,0.9 0.8,1.4 1.1,0.9l0,0z" class="st0"/>
    </g>
   </g>
   <g id="svg_19">
    <g id="svg_20">
     <path id="svg_21" d="m144.1,434.3c-0.9,-0.6 -1.7,-1.4 -2.6,-2.2c-0.7,-0.7 -1.6,-1 -2.5,-1.4c-1.9,-1 -3.7,-2 -5.6,-3c-3.5,-2 -6.9,-4.1 -10.2,-6.3c-3.4,-2.2 -6.7,-4.5 -10,-6.9c-0.9,-0.6 -1.7,-1.2 -2.6,-1.9c-0.7,-0.5 -1.8,-1.6 -2.6,-1.9c-0.5,-0.2 -1.3,-0.1 -1.8,-0.1c-0.8,0 -1.6,0 -2.4,0c-0.1,0 -0.3,0.1 -0.3,0.2c-1.2,2.1 -1.3,4.4 -1.5,6.8c-0.1,1.3 -0.3,2.7 -0.8,3.9c-0.8,1.7 -2.1,3 -3.6,4.1c-1.9,1.4 -3.3,3.2 -3.7,5.6c-0.3,2.1 0.3,4.3 1.4,6.2c1.3,2.2 3.2,3.9 5.4,5.1c1.4,0.7 2.8,1.2 4,2.2c1.3,0.9 2.4,2 3.5,3.1c1.9,2 3.8,4.2 6,5.8c1.2,0.8 2.4,1.3 3.6,1.9c0.9,0.5 1.8,1.4 1.9,2.5c0.1,2.2 -2.3,4.3 -3.6,5.7c-1.5,1.8 -3.2,3.7 -3.6,6c-0.1,0.4 0.3,0.6 0.6,0.4c0.8,-0.8 1.7,-1.6 2.4,-2.5c0.2,-0.2 0.5,-0.5 0.4,-0.8c-0.1,-0.2 -0.2,-0.3 -0.4,-0.3c-0.4,0 -0.9,0.6 -1.2,0.9c-0.7,0.7 -1.3,1.4 -1.8,2.2c-0.2,0.4 0.3,0.7 0.6,0.5c9.8,-9.7 17.2,-21.9 28.9,-29.6c0.4,-0.3 0,-0.9 -0.4,-0.6c-11.8,7.8 -19.2,20 -29.1,29.7c0.2,0.2 0.4,0.3 0.6,0.5c0.4,-0.7 1,-1.3 1.5,-1.8c0.2,-0.2 0.5,-0.4 0.7,-0.6c0.1,-0.1 0.4,-0.2 0.2,-0.2c-0.1,-0.1 -0.2,-0.2 -0.4,-0.3c-0.1,-0.3 0.1,-0.1 -0.2,0.1c-0.2,0.1 -0.3,0.4 -0.5,0.5c-0.6,0.7 -1.3,1.3 -1.9,2c0.2,0.1 0.4,0.2 0.6,0.4c0.6,-3.2 3.4,-5.5 5.4,-7.9c1.3,-1.6 2.8,-3.9 1.2,-5.9c-1.1,-1.4 -2.8,-1.7 -4.2,-2.6c-1.8,-1.1 -3.3,-2.6 -4.8,-4.2c-1.4,-1.5 -2.8,-3 -4.4,-4.4c-1.6,-1.3 -3.2,-2.1 -5,-3c-3.3,-1.7 -6.4,-4.9 -6.8,-8.8c-0.2,-1.9 0.4,-3.7 1.5,-5.2c1.3,-1.7 3.3,-2.6 4.7,-4.4c2.3,-3 1.6,-6.4 2.3,-9.8c0.1,-0.6 0.4,-2.2 1,-2.5c0.3,-0.1 1,0 1.4,0c0.6,0 1.2,-0.1 1.8,0c1.1,0.1 2.3,1.3 3.2,2c1.2,0.8 2.4,1.7 3.5,2.5c4.7,3.3 9.5,6.6 14.4,9.6c2.5,1.6 5.1,3.1 7.7,4.5c1.3,0.7 2.8,1.3 4,2.1c1.2,0.8 2.1,2 3.4,2.8c0.8,0.2 1.2,-0.5 0.7,-0.7l0,0z" class="st0"/>
    </g>
   </g>
   <g id="svg_22">
    <g id="svg_23">
     <path id="svg_24" d="m389.2,437c-8.5,-14 -27.3,-11.1 -40.8,-8.3c-5.5,1.1 -10.3,4.7 -16,4.8c0.1,0.2 0.2,0.3 0.4,0.5c0.2,-0.7 0.3,-2.1 0.8,-2.6c0.4,-0.4 0.3,-0.2 0.4,0.4c0.2,1 -0.4,2.1 -1.5,1.7c0.1,0.2 0.2,0.3 0.3,0.5c4.6,-12.5 6.8,-25.6 9.5,-38.6c1.4,-6.7 2.9,-13.4 4.8,-19.9c0.5,-1.6 1,-3.2 1.5,-4.8c0.6,-1.7 1.1,-3.4 2.7,-4.5s3.7,-1.4 5.4,-2.3c1.8,-1 3,-3.1 4.2,-4.7c1.5,-2.1 2.1,-4.3 1.6,-6.8c-0.1,-0.3 -0.6,-0.4 -0.7,-0.1c-0.4,0.8 -0.4,1.5 -0.3,2.4c0.1,0.4 0.7,0.3 0.7,-0.1c3,-34.2 6,-68.6 5.2,-103c-0.2,-8.5 -0.6,-16.9 -1.3,-25.4c-0.3,-4.3 -0.8,-8.6 -1.3,-12.9c-0.2,-1.7 -0.4,-3.2 -1,-4.8c-0.6,-1.5 -1.3,-3 -2.1,-4.5c-5.9,-11.6 -15,-21.3 -25.3,-29c-5.4,-4 -11.1,-7.6 -17.1,-10.7c-6.4,-3.4 -13.2,-5.9 -19.9,-8.4c-15,-5.6 -30.4,-10.3 -46,-13.7c-3.9,-0.8 -7.7,-1.6 -11.6,-2.3c-2,-0.3 -3.9,-0.7 -5.9,-1c-1.8,-0.3 -3.7,-0.2 -5.6,-0.3c-1.9,-0.1 -3.7,-0.3 -5.6,-0.2c-2.1,0.1 -4.2,0.4 -6.3,0.4c-4.2,0 -8.5,0.1 -12.7,0.5c-1.8,0.2 -3.5,0.4 -5.2,0.7c-1.5,0.3 -3.5,0.3 -4.6,1.5c-0.7,0.7 -1.1,1.5 -2.1,1.9c-0.9,0.3 -1.9,0.4 -2.8,0.4c-1.4,0 -2.8,-0.1 -4.2,0.1c-1.5,0.2 -2.5,0.9 -3.9,1.6c-1.8,0.9 -3.8,1.3 -5.8,1.8c-1.3,0.3 -2.6,0.5 -3.8,1.1c-0.6,0.3 -1.1,0.6 -1.6,0.9c-0.8,0.5 -1.5,0.4 -2.5,0.5c-3,0.3 -6,2.4 -8.8,3.7c-3.1,1.5 -6.3,2.9 -9.4,4.6c-5.9,3.2 -11.3,7.2 -15.2,12.6c-3.9,5.4 -6.3,11.6 -7.9,18c-1.7,6.9 -2,14 -3.7,20.9c-3.7,15.1 -11.3,28.9 -14.7,44.1c-0.8,3.8 -1.5,7.6 -1.8,11.4c-0.2,2 -0.2,4 -0.2,6c0,1.7 0,3.5 0.7,5.1c3.4,7.2 6.4,14.5 9.4,21.8c3.1,7.3 6.3,14.6 10,21.7c3.7,7.2 8.1,14 12.8,20.7c4.5,6.5 9.3,12.7 14.3,18.9c2.6,3.2 5.2,6.4 7.5,9.9c2.1,3.2 4.1,6.6 6,9.9c1.9,3.4 3.7,6.8 5.6,10.2c1.9,3.4 3.6,7.2 6,10.3c3.8,5 9.7,8.4 15.4,11c14,6.4 29.8,8.3 44.9,10.6c3.8,0.6 7.7,1.2 11.5,1.9c3.8,0.7 7.9,0.7 11.8,0.5c3.3,-0.2 6.8,-1.1 10.1,-1.9c3.3,-0.8 6.6,-1.8 9.8,-3c12.2,-4.4 23.4,-11.2 33.6,-19.2c10.6,-8.3 20,-17.9 29,-27.9c1.3,-1.4 2.2,-2.9 4.2,-3.2c2.1,-0.3 4.3,-0.5 6.4,-0.8c4.2,-0.5 8.4,-0.9 12.6,-1.2c8.3,-0.7 16.6,-1.2 24.9,-1.5c8.1,-0.3 16.2,-0.6 24.3,-0.7c0.3,0 0.4,-0.3 0.3,-0.6c-0.4,-1 -0.9,-1.8 -1.6,-2.7c-0.3,-0.4 -0.7,-0.1 -0.7,0.3c0.2,1.3 0.7,2.2 1.7,2.9c0.3,0.2 0.6,-0.1 0.6,-0.4c-3.3,-10 -7.1,-20 -13.4,-28.5c-6.4,-8.6 -16,-14.9 -25.3,-20.1c-9.8,-5.5 -20.3,-9.9 -30.6,-14.4c-10.8,-4.6 -22.2,-7.7 -33.6,-10.4c-6.7,-1.6 -13.4,-3 -20.1,-4.6c-3.4,-0.8 -6.7,-1.6 -10.1,-2.4c-3.1,-0.8 -6,-2 -8.9,-3.5c0,0.2 0,0.4 0,0.6c0.8,-0.5 1.1,-1.3 1.2,-2.3c0.1,-1.2 -0.6,-3.9 1.2,-4c-0.1,-0.2 -0.2,-0.3 -0.4,-0.5c-1.7,6.1 -5.4,11.4 -10.4,15.3c0.2,0 0.4,0.1 0.6,0.1c-1.6,-2.9 -3.1,-5.9 -4.7,-8.8c-0.2,0.2 -0.4,0.3 -0.6,0.5c0.4,0.4 0.8,0.5 1.2,0.8c1,0.6 1.6,1.4 2.2,2.4c1,1.6 2,3 2.5,4.8c1,3.5 1.2,7.2 1.4,10.8c0.1,3.5 0.1,6.9 0.4,10.4c0.3,3.5 1.4,6.8 1.7,10.3c0.3,3.7 -0.2,7.5 -1.2,11c-1.1,3.7 -3,6.9 -4.6,10.4c-2.6,6 -4,12.4 -3,18.8c1.1,6.9 4.2,13.5 7.6,19.6c0.9,1.7 1.9,3.3 2.6,5.2c0.7,1.9 0.6,3.7 0.5,5.7c-0.3,3.4 -0.8,6.8 -0.4,10.2c0.4,3.1 1.9,5.7 3,8.6c0.5,1.1 0.9,2.5 1.5,3.6c1.1,1.7 2.3,3 3,4.9c2.2,5.8 0.7,12.1 0.8,18.1c0,3 0.4,5.7 1.8,8.4c1.7,3.2 4.4,6.2 5.4,9.7c1.1,3.8 2.6,7.4 3.9,11.1c0.5,1.5 0.7,3.3 1.6,4.6c0.8,1.2 2.2,1.9 3,3c0.3,0.4 0.8,0.1 0.6,-0.4c-0.8,-1.9 -1.6,-3.8 -3.2,-5.1c-0.3,-0.2 -0.7,0 -0.6,0.4c0.5,2.1 1.8,3.7 3.2,5.2c0.2,0.3 0.8,0 0.6,-0.4c-3.8,-9.4 -9.5,-18 -12.8,-27.6c-0.2,0.2 -0.3,0.3 -0.5,0.5c0.8,0.2 1.5,0.5 2.3,0.9c0.1,-0.2 0.1,-0.5 0.2,-0.7c-0.8,0.1 -1.5,-0.2 -2.1,-0.8c-0.1,0.2 -0.2,0.4 -0.4,0.6c3.4,1.2 6.9,-0.1 10,-1.6c2.3,-1.1 4.1,-2.2 6.8,-1.8c2.1,0.2 4,1 5.9,1.7c3.4,1.2 6.7,2.1 10.2,0.9c3.3,-1.1 5.9,-3.5 8.6,-5.6c-0.2,0 -0.3,-0.1 -0.5,-0.1c0.2,0.4 1.6,3 0.3,2.4c-1.1,-0.5 -0.6,-1.7 0.2,-2.2c-0.2,0 -0.3,-0.1 -0.5,-0.1c4.5,7.1 -0.1,14.7 -4.7,20.4c-3.4,4.2 -10,10.3 -7,16.3c0.9,1.8 2,3.2 4.1,3.5c3.3,0.5 7,-1.3 10,-2.3c8.1,-2.6 16.3,-5.4 24.9,-5.8c1.5,-0.1 1.7,0.1 2.3,1.4c0.4,0.9 0.8,1.8 1.3,2.6c1,1.9 2.1,3.7 3.2,5.5c2.4,3.8 4.8,7.5 6.1,11.8c0.2,-0.1 0.5,-0.2 0.7,-0.3c-1.3,-2.9 -2.6,-5.7 -4,-8.5c-0.2,-0.4 -0.8,-0.1 -0.7,0.3c1.2,2.9 2.6,5.8 4.1,8.6c0.2,0.4 0.8,0.1 0.7,-0.3c-3.5,-14.2 -12.3,-26.2 -20.3,-38.2c-4.4,-6.5 -8.9,-12.9 -13.6,-19.1s-9.8,-12 -14.4,-18.3c-8.7,-12 -15.6,-25.2 -23.6,-37.7c-3.3,-5.1 -6.9,-10.1 -11.4,-14.2c-4.2,-3.9 -9.1,-6.5 -14.2,-8.9c-9.5,-4.6 -22.3,-11.4 -18.9,-24c-0.2,0.1 -0.4,0.1 -0.6,0.2c0.4,0.3 0.7,0.6 1,1c0.2,-0.2 0.3,-0.4 0.5,-0.6c-0.8,-0.4 -1.4,-0.7 -2.3,-0.8c0,0.2 -0.1,0.5 -0.1,0.7c1.3,-0.1 2.4,-0.1 3.7,0.3c0,-0.2 0,-0.5 0,-0.7c-1.2,0.5 -2.3,0.7 -3.4,-0.2c-0.1,0.2 -0.2,0.4 -0.3,0.6c5.9,-0.1 11.7,1.1 17.5,1.9c2.6,0.4 5.2,0.7 7.8,0.8c1.9,0.1 3.7,0.1 5.4,-0.9c2.9,-1.6 4.5,-4.8 4.9,-8c0.2,-1.7 0,-3.7 -0.8,-5.2c-0.5,-0.9 -1.4,-1.1 -2.4,-1.6c-0.1,-0.1 -0.3,-0.1 -0.4,0c-6.6,4.6 -14.6,8.3 -22.8,7.5c-2,-0.2 -4,-0.6 -5.9,-1.4c-1,-0.4 -2.1,-0.8 -2.9,-1.5c-0.9,-0.7 -0.6,-1.2 -0.5,-2.3c0.3,-4.3 -1.3,-8.5 -2,-12.8c-0.1,-0.3 -0.6,-0.4 -0.7,-0.1c-0.2,0.5 -1.1,2.6 0,2.9c1.2,0.3 0.7,-2.3 0.7,-2.8c-0.1,-0.4 -0.6,-0.3 -0.7,0c-0.4,1 -0.9,1.9 -1.1,2.9c-0.2,1 0.1,2 0.4,3c0.8,2.9 2,5.6 2.4,8.6c0.3,1.7 0.4,3.7 0,5.4c-0.4,1.5 -1.2,3 -1.7,4.5c-0.5,1.3 -0.9,2.7 -1.1,4c-0.2,1.6 0,3.2 0,4.7c0.2,14.4 -2.1,28.6 -4.7,42.7c-1.3,7.1 -2.8,14.3 -4,21.4c-0.6,3.3 -1.3,6.6 -1.3,10c-0.1,3.3 0.2,6.6 0.7,9.8c1,6.9 2.9,13.6 4,20.5c1.3,7.6 0.4,15.5 -1.3,23c-0.3,1.4 -0.8,2.8 -0.2,4.3c0.6,1.3 2.1,2.3 3.2,3.1c2.7,2.2 5.7,4 8.7,5.8c6.3,3.7 13,6.6 19.4,10.3c0.2,0.1 0.4,0 0.5,-0.1c0.9,-1.6 0.4,-3.7 -1.8,-3.4c-2.8,0.4 0.4,3 1.3,3.5c0.2,0.1 0.4,0 0.5,-0.1c0.7,-1.1 1.6,-2.7 0.9,-4c-0.5,-1 -1.6,-1.2 -2.6,-0.8c-2.6,1 -0.8,3.1 0.8,3.9c0.1,0.1 0.3,0.1 0.4,0c4.4,-3.4 8.7,-7.5 10.8,-12.8c2.1,-5.4 0.6,-10.1 -3.1,-14.4c-7.6,-8.9 -18,-15.4 -29.3,-18.4c-6.5,-1.8 -13.3,-2.3 -20,-1.5c-0.5,0.1 -0.5,0.8 0,0.8c1.7,-0.2 3.3,-0.3 4.9,0.1c0,-0.2 0.1,-0.5 0.1,-0.7c-1.7,0.2 -3.3,0.1 -5,-0.1c0,0.2 0,0.5 0,0.8c6.6,-0.5 13.8,0.1 19.5,-3.7c5.1,-3.4 7.8,-9 10,-14.5c1.5,-3.6 2.9,-7.3 4.8,-10.7c0.9,-1.7 1.7,-3.4 2,-5.3c0.2,-1.6 0.1,-3.5 -1.2,-4.6c-1.2,-1.1 -3.3,-1.3 -4.7,-0.6c-3.8,1.6 -3.8,7.3 -5.1,10.6c0.2,0 0.5,0.1 0.7,0.1c-0.1,-1.1 -0.1,-2.2 -0.1,-3.4c-0.2,0 -0.5,0 -0.8,0c0.1,1.1 0.1,2.2 0.1,3.4c0.2,0 0.5,0 0.8,0c-0.5,-9 -2.4,-18.1 -8.1,-25.3c-0.2,0.2 -0.3,0.4 -0.5,0.6c0.8,0.6 1.3,1 1.8,1.8c0.2,-0.2 0.3,-0.3 0.5,-0.5c-0.8,-0.4 -1.4,-1 -1.8,-1.8c-0.2,0.2 -0.3,0.3 -0.5,0.5c7,4 14.9,6.7 22.8,3.9c0.2,-0.1 0.3,-0.2 0.3,-0.4c0,-3.4 -0.8,-6.6 -2.2,-9.7c-0.2,-0.4 -0.8,-0.1 -0.7,0.3c0.1,0.4 0.3,0.8 0.4,1.2c0.1,0.3 0.4,0.3 0.6,0.2c5.9,-4.9 11.1,-10.6 15.7,-16.7c2.5,-3.3 4.8,-6.8 7,-10.3c1.1,-1.7 2.1,-3.5 3.1,-5.3c1.1,-1.9 2.2,-5 4.1,-6.2c0.6,-0.4 1.3,-0.6 1.8,-1.2c0.6,-0.6 1,-1.5 1.4,-2.2c1.2,-1.9 2.3,-3.9 3.4,-6c1.8,-3.6 3.3,-7.4 4.2,-11.3c0.9,-3.8 1.3,-7.8 1.1,-11.7c-0.2,-3.5 -0.8,-7.7 -2.7,-10.7c-3.7,-5.8 -11.6,-6.1 -16.6,-10.2c-0.4,-0.3 -0.9,0.2 -0.5,0.5c1.2,1.1 2.4,1.5 4,1.5c0.4,0 0.5,-0.5 0.2,-0.7c-1.2,-0.7 -2.5,-1.1 -3.8,-1.4c-0.4,-0.1 -0.6,0.4 -0.4,0.6c7.2,7.2 16.5,11.4 26,14.8c2.5,0.9 4.9,1.7 7.4,2.5c2.8,0.9 5.5,2.3 8.2,3.4c5,2.2 10.1,4.4 15.4,5.9c2.6,0.7 5.2,1.3 7.9,1.7c1.3,0.2 2.7,0.3 4,0.3c1.8,0.1 2.5,1.1 3.4,2.6c2.7,4.4 2.5,9.9 0.8,14.7c-1.7,4.8 -4.3,9 -9.6,10.3c-2.4,0.6 -5.1,0.5 -7.4,-0.4c-2.1,-0.8 -3.7,-2.5 -5.2,-4.2c-2.6,-3 -5.2,-7.3 -9.5,-7.8c-6.6,-0.7 -13,1.4 -19.2,3.5c0.2,0.1 0.3,0.2 0.5,0.3c-0.9,-4.7 -1.8,-9.5 -2.8,-14.2c-0.1,-0.4 -0.7,-0.3 -0.7,0.1c-0.1,20.3 6.8,40.8 20.7,55.9c0.3,0.4 0.9,-0.2 0.5,-0.5c-1.3,-1.4 -2.5,-2.9 -3.7,-4.4c-0.2,0.2 -0.4,0.3 -0.6,0.5c1.3,1.4 2.5,3 3.8,4.5c0.3,0.3 0.8,-0.1 0.6,-0.5c-1.9,-2.5 -3.9,-4.8 -6.1,-7c-1.3,-1.3 -2.6,-2.6 -3.9,-4c-0.6,-0.7 -1.3,-1.2 -2.1,-1.6c-1.3,-0.5 -3,-0.6 -4.2,0.4c-1.6,1.3 -1.2,3.6 -0.8,5.3c0.6,3.2 2.4,7 0.7,10.2c-1.4,2.8 -4.4,5 -7,6.5s-6.4,3.5 -9.5,3.3c-2.8,-0.2 -7,-2.3 -8,-5.2c-1.6,-4.7 -1.8,-10.5 -7.1,-12.7c-0.2,-0.1 -0.3,-0.1 -0.5,0.1c-16.1,12.6 -29.5,28 -42.2,43.9c-3.2,4 -6.3,7.8 -8.5,12.4c-1.9,4.1 -3.2,8.4 -4.2,12.7c-1.2,4.9 -2.1,9.8 -3.3,14.7c-1.1,4.2 -4.1,7.9 -7.7,10.2c-4.4,2.8 -10.4,2.7 -15.4,3.3c-4.4,0.5 -8.6,1.5 -12,4.5c-0.4,0.3 0.2,0.9 0.5,0.5c5.8,-5.2 14.1,-4 21.2,-5.5c6.3,-1.4 12.1,-5.9 13.9,-12.4c2.1,-7.8 3.1,-15.9 5.9,-23.5c1.5,-4.3 3.6,-8.3 6.5,-11.9c2.7,-3.4 5.3,-6.7 8,-10c10.7,-13.1 22.1,-25.9 35.4,-36.5c0.6,-0.5 1.6,-1.7 2.4,-1.7c0.6,0 1.6,1 2,1.4c1.2,1.2 2,2.7 2.5,4.2c0.5,1.3 0.9,2.7 1.2,4.1c0.3,1.2 0.4,2.5 1.1,3.5c1.7,2.5 4.9,4.2 7.8,4.6s6.3,-1.2 8.8,-2.5c3.2,-1.7 6.5,-4 8.4,-7.2c2,-3.3 0.5,-7.2 -0.3,-10.7c-0.4,-1.9 -1,-4.9 1.5,-5.6c1.8,-0.5 3.4,0.6 4.5,1.9c3.2,3.6 6.8,6.8 9.7,10.6c0.2,-0.2 0.4,-0.3 0.6,-0.5c-1.2,-1.5 -2.5,-3 -3.8,-4.5c-0.3,-0.3 -0.9,0.1 -0.6,0.5c1.2,1.6 2.5,3.1 3.8,4.5c0.2,-0.2 0.4,-0.4 0.5,-0.5c-13.8,-14.9 -20.5,-35.2 -20.5,-55.3c-0.2,0 -0.5,0.1 -0.7,0.1c0.9,4.7 1.8,9.5 2.8,14.2c0,0.2 0.3,0.3 0.5,0.3c6,-2 12.3,-4.2 18.7,-3.5c4.9,0.6 7.4,5.7 10.5,8.9c2.8,3 6.5,4.3 10.6,3.7c4.4,-0.6 7.7,-3.1 9.6,-6.9c2.2,-4.2 3.7,-8.8 3,-13.6c-0.3,-2.1 -1,-4.2 -2.2,-6.1c-0.5,-0.8 -1.1,-1.8 -1.9,-2.4s-2,-0.3 -3,-0.4c-6.1,-0.4 -12.1,-2.1 -17.8,-4.3c-5.6,-2.2 -11,-5.1 -16.7,-7c-11.8,-3.9 -24.1,-8 -33.1,-17.1c-0.1,0.2 -0.2,0.4 -0.4,0.6c1.3,0.3 2.5,0.7 3.7,1.3c0.1,-0.2 0.1,-0.5 0.2,-0.7c-1.4,0 -2.5,-0.4 -3.5,-1.3c-0.2,0.2 -0.4,0.4 -0.5,0.5c4.4,3.6 10.6,4.2 14.8,8c2.9,2.6 3.7,6.8 4.1,10.5c0.5,4.2 0.2,8.4 -0.6,12.5c-0.9,4 -2.3,7.8 -4,11.4c-0.8,1.7 -1.7,3.3 -2.7,4.9c-0.5,0.9 -1,1.8 -1.6,2.7c-0.9,1.2 -1.9,1.7 -3.1,2.5c-1.3,1 -1.9,3 -2.7,4.4c-1,1.8 -2,3.6 -3.1,5.3c-2,3.3 -4,6.4 -6.2,9.5c-5,7 -10.7,13.4 -17.3,18.9c0.2,0.1 0.4,0.1 0.6,0.2c-0.1,-0.4 -0.3,-0.8 -0.4,-1.2c-0.2,0.1 -0.5,0.2 -0.7,0.3c1.1,2.3 1.8,4.6 2,7.1c0.1,0.7 0.3,1.5 -0.2,2.1c-0.3,0.3 -1.5,0.4 -1.9,0.5c-1.4,0.3 -2.8,0.5 -4.3,0.5c-5.5,0 -10.7,-2.3 -15.5,-5c-0.3,-0.2 -0.7,0.2 -0.5,0.5c0.5,0.9 1.2,1.6 2.1,2.1c0.3,0.2 0.7,-0.2 0.5,-0.5c-0.6,-0.8 -1.3,-1.5 -2.1,-2.1c-0.4,-0.3 -0.7,0.3 -0.5,0.6c5.6,7 7.4,16 7.9,24.8c0,0.5 0.7,0.5 0.8,0c0,-1.1 0,-2.2 -0.1,-3.4c0,-0.5 -0.7,-0.5 -0.8,0c0,1.1 0,2.2 0.1,3.4c0,0.4 0.6,0.5 0.7,0.1c1.1,-2.9 1.1,-6.7 3.4,-9.2c1.4,-1.5 4.2,-1.8 5.6,0c1.2,1.5 0.7,3.8 0.1,5.5c-0.7,2.1 -2,4 -3,6c-1.2,2.6 -2.3,5.3 -3.4,7.9c-2.1,5.2 -4.6,10.4 -9.3,13.8c-5.7,4.1 -13,3.5 -19.6,3.9c-0.5,0 -0.5,0.7 0,0.8c1.7,0.2 3.3,0.3 5,0.1c0.4,0 0.5,-0.6 0.1,-0.7c-1.7,-0.4 -3.4,-0.3 -5.1,-0.1c0,0.2 0,0.5 0,0.8c12,-1.5 24.1,1.6 34.4,7.7c5,3 9.5,6.7 13.4,11c2.2,2.4 4.2,5 4.6,8.3c0.4,3 -0.6,6 -2,8.6c-1.7,3.1 -4.2,5.7 -6.8,8c-0.6,0.5 -1.2,0.9 -1.7,1.4c-0.6,0.6 -0.7,0.7 -1.4,0c-0.5,-0.5 -0.6,-0.2 -0.4,-1.1c-0.1,-0.7 0.3,-1 1.1,-1c0.4,0.4 0.8,0.8 1.1,1.2c0.2,0.7 -0.7,2.1 -1,2.7c0.2,0 0.3,-0.1 0.5,-0.1c-0.5,-0.3 -3.2,-2 -1.4,-2.1c1.5,-0.1 1.4,1.3 0.8,2.2c0.2,0 0.3,-0.1 0.5,-0.1c-5.5,-3.2 -11.2,-5.8 -16.7,-8.8c-2.7,-1.5 -5.5,-3.1 -8,-4.8c-1.4,-1 -2.8,-2 -4.1,-3.1c-0.7,-0.6 -1.3,-1.1 -1.8,-1.9c-0.8,-1.3 -0.3,-2.6 0,-4c1.5,-6.8 2.3,-13.7 1.7,-20.7c-0.6,-6.6 -2.6,-13.1 -3.8,-19.7c-1.3,-7.1 -1.6,-13.8 -0.3,-20.9c1.3,-6.9 2.5,-13.9 3.8,-20.8c2.5,-13.2 4.8,-26.6 5.2,-40.1c0.1,-2 0.1,-4.1 0,-6.1c0,-1.9 -0.1,-3.6 0.3,-5.4c0.8,-3.1 2.6,-5.9 2.8,-9.1c0.1,-3.1 -0.8,-6.1 -1.7,-9.1c-0.5,-1.5 -1.2,-3.1 -1.4,-4.7c-0.2,-1.4 0.6,-2.7 1.1,-3.9c-0.2,0 -0.5,0 -0.7,0c0,-0.2 0.1,1.8 0.3,1.8c-0.2,0 0.4,-1.8 0.4,-1.7c-0.2,0 -0.5,-0.1 -0.7,-0.1c0.8,4.8 2.6,9.5 1.8,14.4c0,0.2 0,0.3 0.2,0.4c9.1,6.2 20.5,3.6 29.4,-1.5c0.7,-0.4 1.3,-0.8 2,-1.2c0.4,-0.3 1.1,-1 1.5,-1.1c0.3,-0.1 1.4,0.4 1.8,0.7c0.7,0.6 0.9,2.4 1,3.3c0.1,1.3 0,2.6 -0.4,3.8c-0.6,2.2 -2.1,4.3 -4.1,5.5c-2.5,1.4 -5.8,0.8 -8.6,0.5c-7.3,-0.8 -14.4,-2.6 -21.7,-2.5c-0.3,0 -0.5,0.4 -0.3,0.6c1.3,1 2.6,1 4.1,0.4c0.3,-0.1 0.4,-0.6 0,-0.7c-1.3,-0.4 -2.5,-0.4 -3.9,-0.3c-0.4,0 -0.5,0.7 -0.1,0.7c0.8,0.1 1.4,0.4 2.1,0.8c0.4,0.2 0.7,-0.3 0.5,-0.6c-0.3,-0.4 -0.6,-0.7 -1,-1c-0.2,-0.2 -0.5,-0.1 -0.6,0.2c-1.2,4.4 -0.6,8.9 2,12.7c2.7,3.8 6.6,6.5 10.6,8.7c4.3,2.5 9,4.3 13.2,6.8c5.9,3.4 10.6,8.3 14.6,13.7c8.6,11.7 15.1,24.8 23,36.9c4.2,6.4 8.9,12.2 13.7,18.2c5.1,6.3 9.9,12.9 14.6,19.5c4.8,6.9 9.5,13.9 14,21.1s8.5,14.9 10.5,23.2c0.2,-0.1 0.5,-0.2 0.7,-0.3c-1.4,-2.8 -2.8,-5.5 -4,-8.4c-0.2,0.1 -0.5,0.2 -0.7,0.3c1.5,2.8 2.7,5.7 4,8.5c0.2,0.4 0.8,0.1 0.7,-0.3c-2.5,-7.9 -8.4,-14 -11.3,-21.6c-0.1,-0.2 -0.2,-0.3 -0.4,-0.3c-6.2,0 -12.2,1.3 -18.1,3.1c-3,0.9 -6,1.9 -8.9,2.8c-2.8,0.9 -6.1,2.5 -9.1,2.3c-2.2,-0.1 -3.5,-1.6 -4.3,-3.5c-1.3,-3.2 0.4,-6.6 2.1,-9.2c1.5,-2.3 3.5,-4.3 5.2,-6.4c1.6,-2 3,-4.1 4.2,-6.3c2.5,-4.7 3.2,-9.9 0.2,-14.6c-0.1,-0.2 -0.3,-0.3 -0.5,-0.1c-1.4,0.9 -1.7,2.9 0.1,3.7c2.5,1 0.8,-2.8 0.4,-3.5c-0.1,-0.2 -0.4,-0.3 -0.5,-0.1c-2.7,2 -5.2,4.4 -8.4,5.5c-4,1.4 -7.7,-0.2 -11.5,-1.5c-2.9,-1 -6.2,-2 -9.1,-0.5c-3.6,1.9 -7.8,4.2 -12,2.8c-0.3,-0.1 -0.6,0.4 -0.4,0.6c0.8,0.7 1.6,1 2.7,1c0.4,0 0.5,-0.5 0.2,-0.7c-0.8,-0.4 -1.6,-0.7 -2.5,-0.9c-0.3,-0.1 -0.6,0.2 -0.5,0.5c3.3,9.6 9,18.2 12.8,27.6c0.2,-0.1 0.4,-0.2 0.6,-0.4c-1.4,-1.5 -2.6,-2.9 -3,-4.9c-0.2,0.1 -0.4,0.2 -0.6,0.4c1.6,1.3 2.3,3.1 3.1,5c0.2,-0.1 0.4,-0.3 0.6,-0.4c-0.6,-0.8 -1.3,-1.3 -2,-2c-1.6,-1.5 -1.8,-3.5 -2.5,-5.5c-1.1,-3.2 -2.6,-6.3 -3.6,-9.6c-0.9,-3.1 -2.4,-5.6 -4.1,-8.4c-1.8,-3 -3.1,-5.6 -3.4,-9.1c-0.5,-5.8 1,-11.7 -0.1,-17.4c-0.6,-2.9 -1.8,-5.2 -3.5,-7.5c-1.1,-1.4 -1.6,-3.2 -2.2,-4.9c-0.7,-1.6 -1.5,-3.2 -2,-4.9c-1.9,-6.5 1.7,-13.5 -1.2,-19.8c-1.5,-3.3 -3.4,-6.3 -5,-9.6c-1.6,-3.4 -3.1,-7 -4,-10.7c-1.9,-7.6 -0.7,-15 2.5,-22c1.5,-3.3 3.3,-6.2 4.3,-9.7c0.9,-3.1 1.5,-6.4 1.4,-9.6c-0.1,-4 -1.4,-7.9 -1.8,-11.9c-0.4,-3.9 -0.3,-7.8 -0.5,-11.6c-0.2,-3.7 -0.5,-7.4 -1.6,-11c-0.5,-1.5 -1.5,-2.8 -2.3,-4.1c-0.5,-0.7 -0.7,-1.5 -1.5,-2.1c-0.7,-0.5 -1.5,-0.7 -2.1,-1.3c-0.3,-0.3 -0.8,0.1 -0.6,0.5c1.6,2.9 3.1,5.9 4.7,8.8c0.1,0.2 0.4,0.2 0.6,0.1c5.1,-4 8.9,-9.4 10.6,-15.6c0.1,-0.2 -0.1,-0.5 -0.4,-0.5c-3.6,0.3 -0.5,5 -2.7,6.4c-0.2,0.1 -0.3,0.5 0,0.6c2,1 4,2 6.2,2.7c2.9,1 6.1,1.6 9.1,2.4c5.8,1.4 11.6,2.6 17.4,3.9c11.4,2.6 22.8,5.3 33.8,9.4c5.5,2 10.9,4.5 16.3,6.9c5.1,2.2 10.1,4.5 15,7c4.8,2.5 9.6,5.1 14.1,8.1c4.8,3.2 9.6,6.7 13.4,11c8.2,8.9 12.6,20.7 16.3,32c0.2,-0.1 0.4,-0.3 0.6,-0.4c-0.9,-0.7 -1.2,-1.4 -1.4,-2.5c-0.2,0.1 -0.5,0.2 -0.7,0.3c0.6,0.9 1.1,1.7 1.6,2.7c0.1,-0.2 0.2,-0.4 0.3,-0.6c-16.3,0.3 -32.6,0.9 -48.8,2.2c-4.1,0.3 -8.2,0.7 -12.2,1.2c-1.9,0.2 -3.8,0.4 -5.7,0.7c-0.8,0.1 -2.3,0 -3,0.4c-0.4,0.2 -0.7,0.6 -1,0.9c-4.3,4.9 -8.8,9.7 -13.4,14.3c-18.7,18.7 -40.8,34.6 -67.3,39.3c-1.9,0.3 -3.8,0.5 -5.7,0.5c-2.3,0 -4.8,0.2 -7.1,-0.1c-3.9,-0.5 -7.7,-1.4 -11.6,-2c-7.4,-1.2 -14.9,-2.2 -22.3,-3.7c-7.2,-1.4 -14.4,-3.3 -21.2,-5.9c-6.6,-2.5 -13.6,-6.1 -18,-11.7c-2.3,-3 -4,-6.6 -5.8,-9.9s-3.6,-6.6 -5.4,-9.9c-3.7,-6.6 -7.6,-12.9 -12.4,-18.7c-10,-12.2 -19.8,-25.1 -27.3,-39.1c-7.4,-13.7 -12.7,-28.3 -19,-42.4c-0.8,-1.8 -1.9,-3.5 -2.1,-5.5c-0.2,-2.1 -0.2,-4.2 -0.1,-6.3c0.2,-4.1 0.8,-8.2 1.6,-12.2c1.6,-7.6 4.1,-14.9 6.9,-22.1c2.7,-6.9 5.5,-13.7 7.4,-20.8c1.9,-6.8 2.3,-14 3.8,-20.9c1.4,-6.6 3.6,-13 7.3,-18.7c3.9,-6.1 9.5,-10.4 15.8,-13.8c3,-1.6 6,-3 9.1,-4.5c3.2,-1.5 6.5,-3.8 10.1,-3.9c1.3,0 1.8,-0.8 3,-1.4c1.4,-0.7 3.2,-1 4.7,-1.3c1.6,-0.4 3.1,-0.7 4.6,-1.4c1.8,-0.8 3.1,-1.7 5.2,-1.9c2.3,-0.1 5.7,0.5 7.6,-1.1c0.8,-0.7 1,-1.6 2.2,-2c0.9,-0.4 2.1,-0.5 3.1,-0.7c2.2,-0.4 4.5,-0.7 6.8,-0.9c4.1,-0.3 8.2,-0.4 12.3,-0.4c1.9,0 3.7,-0.4 5.6,-0.4c2,0 3.9,0.1 5.9,0.3c4.2,0.3 8.2,0.8 12.3,1.5c3.9,0.7 7.7,1.5 11.6,2.4c7.5,1.7 14.9,3.7 22.3,5.9c7.5,2.3 14.8,4.8 22.1,7.5c6.9,2.5 13.7,5.2 20.2,8.6c11.6,6.2 22.6,14 31.2,24c4.3,5 8.1,10.5 10.9,16.5c0.8,1.7 1.7,3.5 2,5.4c0.3,2.2 0.5,4.4 0.7,6.6c0.4,4.2 0.8,8.3 1.1,12.5c2.3,33.2 0.5,66.5 -2.1,99.7c-0.7,8.2 -1.4,16.3 -2.1,24.5c0.2,0 0.5,-0.1 0.7,-0.1c0.1,-0.6 0.1,-1.2 0.2,-1.8c-0.2,0 -0.5,-0.1 -0.7,-0.1c0.6,3.1 -0.7,5.2 -2.5,7.6c-0.6,0.8 -1.1,1.7 -1.8,2.4c-0.8,0.9 -2,1.3 -3.1,1.7c-1.7,0.6 -3.5,1.2 -4.7,2.6c-1.7,2 -2.2,5.2 -3,7.7c-3.9,12.6 -5.9,25.6 -8.7,38.5c-1.6,7.1 -3.4,14.2 -5.9,21c-0.1,0.2 0.1,0.4 0.3,0.5c1.8,0.6 2.9,-1.5 2.4,-3.1c-0.2,-0.5 -0.5,-1 -1.1,-0.8c-1.1,0.3 -1.4,2.6 -1.6,3.4c-0.1,0.2 0.1,0.5 0.4,0.5c5.8,0 10.7,-3.6 16.2,-4.8c4.8,-1 9.6,-1.9 14.5,-2.2c9.7,-0.6 20.1,1.2 25.5,10.1c1.1,0 1.7,-0.4 1.5,-0.8l0,0z" class="st0"/>
    </g>
   </g>
  </g>
  <g id="Слой_3"/>
  <style transform="matrix(0.2872194717870258,0,0,0.2872194717870258,0,0) " type="text/css">.st0{fill:#FFFFFF;stroke:#FF007A;stroke-miterlimit:10;} .st1{fill:#FFFFFF;stroke:#FFFFFF;stroke-miterlimit:10;} .st2{stroke:#000000;stroke-width:6;stroke-miterlimit:10;}</style>
  <g stroke="null" id="svg_35">
   <path stroke="null" id="svg_29" d="m267.654889,229.437228c-4.350235,0 -7.892689,3.542454 -7.892689,7.892689c0,1.998415 1.25795,4.825647 3.744399,8.397552c1.817506,2.612665 3.601355,4.632116 3.677084,4.71626l0.471205,0.530106l0.471205,-0.530106c0.075729,-0.084144 1.859578,-2.107802 3.677084,-4.71626c2.486449,-3.571904 3.744399,-6.399136 3.744399,-8.397552c0.004207,-4.350235 -3.538247,-7.892689 -7.892689,-7.892689zm0,12.234509c-2.570593,0 -4.65736,-2.090974 -4.65736,-4.661567s2.090974,-4.653152 4.65736,-4.653152c2.570593,0 4.661567,2.090974 4.661567,4.65736s-2.090974,4.65736 -4.661567,4.65736z" class="st0"/>
   <path stroke="null" id="svg_30" d="m267.566538,231.91947c-2.823025,0 -5.111736,2.292919 -5.111736,5.111736c0,2.823025 2.301333,5.111736 5.111736,5.111736c2.823025,0 5.111736,-2.292919 5.111736,-5.111736c0.008414,-2.823025 -2.284504,-5.111736 -5.111736,-5.111736z" class="st1"/>
   <g stroke="null" transform="matrix(0.04207190169210037,0,0,0.04207190169210037,163.6064146919935,282.55381636405326) " id="svg_31">
    <path stroke="null" id="svg_32" d="m2408.110773,-1006.719379l-15,0l-23.2,-111.4l0,111.6l-13.6,0l0,-140l21.8,0l23,111.8l22.2,-111.8l21.8,0l0,140l-14.8,0l0,-112.6l-22.2,112.4z" class="st2"/>
    <path stroke="null" id="svg_33" d="m2459.910773,-1112.719379c0,-21.4 10.6,-35.2 32,-35.2c21.6,0 32.2,13.8 32.2,35.2l0,72.4c0,21.2 -10.6,35.2 -32.2,35.2c-21.4,0 -32,-14 -32,-35.2l0,-72.4zm15.4,73.2c0,12.8 5.4,20.2 16.6,20.2c11.4,0 16.6,-7.4 16.6,-20.2l0,-74c0,-12.6 -5.2,-20.2 -16.6,-20.2c-11.2,0 -16.6,7.6 -16.6,20.2l0,74z" class="st2"/>
    <path stroke="null" id="svg_34" d="m2599.510773,-1112.919379l0,3.8l-14.8,0l0,-4.6c0,-12.6 -4.8,-20 -16,-20s-16,7.4 -16,19.8c0,31.4 47,34.4 47,73.8c0,21.2 -10.2,35 -31.6,35s-31.4,-13.8 -31.4,-35l0,-8l14.6,0l0,8.8c0,12.6 5.2,20 16.4,20c11.2,0 16.4,-7.4 16.4,-20c0,-31.2 -46.8,-34.2 -46.8,-73.6c0,-21.6 10,-35 31,-35c21.2,0 31.2,13.8 31.2,35z" class="st2"/>
   </g>
  </g>
  <g stroke="null" id="svg_42">
   <path stroke="null" id="svg_36" d="m204.193509,253.667937c-4.350235,0 -7.892689,3.542454 -7.892689,7.892688c0,1.998416 1.25795,4.825648 3.744399,8.397552c1.817506,2.612665 3.601355,4.632116 3.677084,4.71626l0.471206,0.530106l0.471205,-0.530106c0.075729,-0.084144 1.859578,-2.107802 3.677084,-4.71626c2.48645,-3.571904 3.744399,-6.399136 3.744399,-8.397552c0.004208,-4.350234 -3.538247,-7.892688 -7.892688,-7.892688zm0,12.234509c-2.570594,0 -4.65736,-2.090974 -4.65736,-4.661567s2.090974,-4.653152 4.65736,-4.653152c2.570593,0 4.661566,2.090973 4.661566,4.657359s-2.090973,4.65736 -4.661566,4.65736z" class="st0"/>
   <path stroke="null" id="svg_37" d="m204.105158,256.150179c-2.823025,0 -5.111736,2.292919 -5.111736,5.111736c0,2.823025 2.301333,5.111736 5.111736,5.111736c2.823024,0 5.111736,-2.292919 5.111736,-5.111736c0.008414,-2.823025 -2.284505,-5.111736 -5.111736,-5.111736z" class="st1"/>
   <g stroke="null" transform="matrix(0.04207190169210037,0,0,0.04207190169210037,163.6064146919935,282.55381636405326) " id="svg_41">
    <path stroke="null" id="svg_38" d="m899.707819,-430.78371l-15,0l-23.2,-111.4l0,111.6l-13.6,0l0,-140l21.8,0l23,111.8l22.2,-111.8l21.8,0l0,140l-14.8,0l0,-112.6l-22.2,112.4z" class="st2"/>
    <path stroke="null" id="svg_39" d="m951.507819,-536.78371c0,-21.4 10.6,-35.2 32,-35.2c21.6,0 32.2,13.8 32.2,35.2l0,72.4c0,21.2 -10.6,35.2 -32.2,35.2c-21.4,0 -32,-14 -32,-35.2l0,-72.4zm15.4,73.2c0,12.8 5.4,20.2 16.6,20.2c11.4,0 16.6,-7.4 16.6,-20.2l0,-74c0,-12.6 -5.2,-20.2 -16.6,-20.2c-11.2,0 -16.6,7.6 -16.6,20.2l0,74z" class="st2"/>
    <path stroke="null" id="svg_40" d="m1091.107819,-536.98371l0,3.8l-14.8,0l0,-4.6c0,-12.6 -4.8,-20 -16,-20s-16,7.4 -16,19.8c0,31.4 47,34.4 47,73.8c0,21.2 -10.2,35 -31.6,35s-31.4,-13.8 -31.4,-35l0,-8l14.6,0l0,8.8c0,12.6 5.2,20 16.4,20c11.2,0 16.4,-7.4 16.4,-20c0,-31.2 -46.8,-34.2 -46.8,-73.6c0,-21.6 10,-35 31,-35c21.2,0 31.2,13.8 31.2,35z" class="st2"/>
   </g>
  </g>
  <g stroke="null" id="svg_49">
   <path stroke="null" id="svg_43" d="m261.501058,253.667937c-4.350235,0 -7.892689,3.542454 -7.892689,7.892688c0,1.998416 1.25795,4.825648 3.744399,8.397552c1.817506,2.612665 3.601355,4.632116 3.677084,4.71626l0.471206,0.530106l0.471205,-0.530106c0.075729,-0.084144 1.859578,-2.107802 3.677084,-4.71626c2.48645,-3.571904 3.744399,-6.399136 3.744399,-8.397552c0.004208,-4.350234 -3.538247,-7.892688 -7.892688,-7.892688zm0,12.234509c-2.570594,0 -4.65736,-2.090974 -4.65736,-4.661567s2.090974,-4.653152 4.65736,-4.653152c2.570593,0 4.661566,2.090973 4.661566,4.657359s-2.090973,4.65736 -4.661566,4.65736z" class="st0"/>
   <path stroke="null" id="svg_44" d="m261.412707,256.150179c-2.823025,0 -5.111736,2.292919 -5.111736,5.111736c0,2.823025 2.301333,5.111736 5.111736,5.111736c2.823024,0 5.111736,-2.292919 5.111736,-5.111736c0.008414,-2.823025 -2.284505,-5.111736 -5.111736,-5.111736z" class="st1"/>
   <g stroke="null" transform="matrix(0.04207190169210037,0,0,0.04207190169210037,163.6064146919935,282.55381636405326) " id="svg_48">
    <path stroke="null" id="svg_45" d="m2261.84141,-430.78371l-15,0l-23.2,-111.4l0,111.6l-13.6,0l0,-140l21.8,0l23,111.8l22.2,-111.8l21.8,0l0,140l-14.8,0l0,-112.6l-22.2,112.4z" class="st2"/>
    <path stroke="null" id="svg_46" d="m2313.64141,-536.78371c0,-21.4 10.6,-35.2 32,-35.2c21.6,0 32.2,13.8 32.2,35.2l0,72.4c0,21.2 -10.6,35.2 -32.2,35.2c-21.4,0 -32,-14 -32,-35.2l0,-72.4zm15.4,73.2c0,12.8 5.4,20.2 16.6,20.2c11.4,0 16.6,-7.4 16.6,-20.2l0,-74c0,-12.6 -5.2,-20.2 -16.6,-20.2c-11.2,0 -16.6,7.6 -16.6,20.2l0,74z" class="st2"/>
    <path stroke="null" id="svg_47" d="m2453.24141,-536.98371l0,3.8l-14.8,0l0,-4.6c0,-12.6 -4.8,-20 -16,-20s-16,7.4 -16,19.8c0,31.4 47,34.4 47,73.8c0,21.2 -10.2,35 -31.6,35s-31.4,-13.8 -31.4,-35l0,-8l14.6,0l0,8.8c0,12.6 5.2,20 16.4,20c11.2,0 16.4,-7.4 16.4,-20c0,-31.2 -46.8,-34.2 -46.8,-73.6c0,-21.6 10,-35 31,-35c21.2,0 31.2,13.8 31.2,35z" class="st2"/>
   </g>
  </g>
 </g>
</svg>