<?xml version="1.0" encoding="UTF-8"?> <!-- Generator: Adobe Illustrator 24.0.0, SVG Export Plug-In . SVG Version: 6.00 Build 0) --> <svg xmlns="http://www.w3.org/2000/svg" xmlns:xlink="http://www.w3.org/1999/xlink" id="Layer_1" x="0px" y="0px" width="1000px" height="463.6px" viewBox="0 0 1000 463.6" style="enable-background:new 0 0 1000 463.6;" xml:space="preserve"> <style type="text/css"> .st0{fill:#FF0086;} </style> <g> <g> <path class="st0" d="M23,278.8c13.3-25.5,44.1-31,69.7-26c28.9,5.6,54.8,21.4,83.5,27.6c0.1-0.7,0.2-1.5,0.3-2.2 c-18.7-2.1-36.3-7.2-53.9-13.8c-15.7-5.9-32-11.7-48.9-7.7c-1.3,0.3-0.9,2.2,0.3,2.2c36.5,2.2,71.3,14.6,104.5,29.4 c0.3-0.7,0.6-1.4,0.9-2.1c-25.9-5.5-54.6-8.1-77.6,7.8c-19.4,13.4-32.6,37-29.8,61.2c0.1,1.2,1.9,1.7,2.2,0.3 c6.8-30.4,27.4-58.6,59.1-63.8c33.2-5.5,60.3,21.5,77.4,47.4c9.9,15,17.3,31.6,22.4,49c0.7-0.3,1.4-0.6,2-0.9 c-16.1-29.8-40-54.5-69-71.3c-1.2-0.7-2.3,1.2-1.1,2c26.6,16.8,48.5,40.5,63.3,68.6c0.6-0.4,1.3-0.8,1.9-1.1 c-15.5-28.1-45.9-41.7-73.7-53.5c-0.2,0.7-0.4,1.5-0.6,2.2c37.4,12.8,62.4,47.6,73.9,84.9c0.7-0.2,1.4-0.4,2.1-0.6 c-6.5-15.9-11.5-32.2-18-48.1c-0.6,0.4-1.2,0.7-1.9,1.1c11.6,14.2,25.6,26.3,34.5,42.7c0.6,1.1,2.4,0.4,2-0.9 c-8.6-30.6-22.5-59.2-38-86.6c-7.7-13.7-15.8-27.1-23.9-40.5c-6.2-10.2-13.7-20.9-25.7-24c0.2,0.6,0.4,1.1,0.7,1.7 c3.5-7.7,6.3-15.7,8.3-23.9c0.2-0.9-0.5-1.5-1.4-1.4c-18.1,2.5-38.8-0.6-50.4-16.2c-11.9-15.9-9.2-40.3-7.3-58.9 c-0.4,0.4-0.7,0.8-1.1,1.1c6.4,0.6,7.4,10.1,9.4,14.9c2,4.8,5.3,8.7,9.4,11.8c4.2,3.2,9,5.6,13.8,7.6c3.8,1.5,8.7,4.3,12.9,3.5 c3.5-0.6,7.3-3,9.8-5.5c1.2-1.2,1.3-1.8,1.7-3.4c1-3.5,2.7-6.3,5.3-8.8c12.4-11.5,29.8-4.9,43.2,0.7c0.8,0.3,1.6-0.6,1.4-1.4 c-3.6-11.1-8.3-21.3-9.1-33.1c-0.1-1.5-2.3-1.5-2.2,0c0.8,12,5.5,22.5,9.2,33.7c0.5-0.5,0.9-0.9,1.4-1.4 c-11.8-4.9-25.3-10.3-37.8-4.9c-4.7,2-9,5.3-11.5,9.8c-1.2,2.1-1.4,4.7-2.6,6.7c-1.2,1.9-4.1,3.3-6,4.2 c-5.6,2.7-12.4-1.1-17.7-3.5c-5.5-2.5-11-5.7-15-10.4c-4-4.6-4.9-10.2-7.3-15.6c-1.7-3.8-3.9-6.8-8.2-7.1 c-0.6-0.1-1.1,0.6-1.1,1.1c-2,19.6-4.6,45.5,8.9,61.8c5.9,7,12.9,11.8,21.8,14c9.6,2.4,20.1,2.9,29.9,1.5 c-0.5-0.5-0.9-0.9-1.4-1.4c-1.9,8.1-4.6,15.9-8.1,23.4c-0.3,0.6-0.1,1.5,0.7,1.7c13.6,3.4,20.8,17,27.6,28.2 c7.6,12.6,15.2,25.2,22.3,38c14.8,26.4,27.9,53.9,36.2,83.2c0.7-0.3,1.4-0.6,2-0.9c-9-16.6-23.1-28.8-34.8-43.2 c-0.7-0.8-2.3,0.1-1.9,1.1c6.5,15.9,11.5,32.2,18,48.1c0.5,1.3,2.6,0.8,2.1-0.6c-11.7-38.1-37.2-73.4-75.4-86.5 c-1.4-0.5-1.9,1.6-0.6,2.2c27.3,11.6,57.2,24.9,72.4,52.5c0.7,1.3,2.6,0.1,1.9-1.1c-15-28.5-37.1-52.5-64.1-69.4 c-0.4,0.7-0.7,1.3-1.1,2c28.6,16.6,52.2,41.1,68.2,70.5c0.6,1.1,2.4,0.4,2-0.9c-9.3-32-27.1-63.1-53.3-83.7 c-12.7-10-27.8-16.3-44-14.9c-15.6,1.3-30.3,8.5-41.5,19.6c-12.6,12.5-20.5,29.1-24.4,46.5c0.7,0.1,1.5,0.2,2.2,0.3 c-2.8-23.9,10.4-47.2,29.8-60c22.3-14.8,49.9-12.2,74.7-6.9c1.2,0.2,2.1-1.5,0.9-2.1c-33.6-15-68.8-27.5-105.7-29.7 c0.1,0.7,0.2,1.5,0.3,2.2c18-4.3,35.6,3.2,52.3,9.5c16.2,6,32.7,10.2,49.9,12.2c1.2,0.1,1.5-2,0.3-2.2 c-31-6.6-58.7-24.6-90.4-28.7c-24.7-3.2-52.9,4.3-65.4,28.2C20.4,278.9,22.3,280.1,23,278.8L23,278.8z"></path> </g> <g> <path class="st0" d="M207.4,150.6c-0.2-14-2.8-28.5-10.3-40.4c-7.4-11.8-20-19.6-33.1-23c-13.6-3.5-29.2-3.6-42.5,1.3 c-12.1,4.4-25.9,12.1-33.4,23.1c-8.9,13.1-7.3,30.5-5,45.4c0.1,0.9,1.3,1,1.9,0.5c6.9-5.9,18-3.3,22,4.9c0.6-0.5,1.2-0.9,1.7-1.4 c-8.5-7.3-24.2-1.1-24.1,10.8c0,11.9,15.9,17.9,24.2,10.6c1-0.8-0.3-2.5-1.3-1.8c-5,3.3-10.5,5.5-16.4,6.3c-0.8,0.1-1.4,0.9-1,1.7 c9.4,16.5,6.7,38.3-6.3,51.9c-0.7,0.7-0.2,1.9,0.8,1.9c28.7,1,56.5,10.7,79.9,27.7c0.5,0.4,1.5,0,1.6-0.7 c0.7-4.3,1.6-8.6,2.8-12.8c1-3.4,2-8.5,4.5-10.9c4.1-3.8,10.4-5,15.6-6c11-2,22.4-7.9,27.5-18.4c4.9-10.1,2.9-23.3,0.9-33.9 c-2.7-14.8-9.5-30.7-4.9-45.8c-0.5,0.3-0.9,0.5-1.4,0.8c11.3,4.3,25.2,5,33.1-5.8c0.9-1.2-1.1-2.3-1.9-1.1 c-7.3,9.9-20.4,8.7-30.6,4.8c-0.6-0.2-1.2,0.2-1.4,0.8c-4,13.3,0.5,27.3,3.5,40.3c2.8,12.2,6.5,29.1-0.2,40.5 c-3.3,5.7-8.8,9.8-14.6,12.5c-6.4,2.9-13.5,2.9-19.9,5.6c-3.2,1.3-7.6,3.1-9.1,6.5c-3,7.1-4.9,14.7-6.2,22.4 c0.5-0.2,1.1-0.5,1.6-0.7c-23.7-17.2-52-26.9-81.1-28c0.3,0.6,0.5,1.3,0.8,1.9c13.7-14.4,16.5-37.3,6.7-54.7 c-0.3,0.6-0.6,1.1-1,1.7c6.4-0.9,12.2-3,17.6-6.6c-0.4-0.6-0.9-1.2-1.3-1.8c-7,6.1-20.4,0.8-20.4-9c-0.1-9.8,13.3-15.2,20.3-9.2 c1,0.8,2.3-0.2,1.7-1.4c-4.7-9.5-17.5-12.1-25.5-5.3c0.6,0.2,1.2,0.3,1.9,0.5c-2-12.9-3.4-27.6,2.5-39.7 c5.7-11.7,19.1-19.5,30.5-24.5c23.8-10.3,58.3-6,74.8,16c8.9,12,11.9,27.6,12.1,42.4C205.2,152.1,207.4,152.1,207.4,150.6 L207.4,150.6z"></path> </g> <g> <path class="st0" d="M244.4,136.6c3.3-6.7,4.3-14.8,4.2-22.3c0-0.9-0.9-1.3-1.7-1c-1.3,0.6-1.2-6.9-1.2-7.6 c0.1-1.1,0.1-2.2,0.3-3.2c0.1-0.5,0.1-1.2,0.3-1.7c0.2-0.4,3.7-4.1,4.2-1.6c0.3,1.4,2.4,0.8,2.1-0.6c-0.5-2.8-3.6-2.8-5.7-1.7 c-2.6,1.3-2.9,3.7-3.2,6.4c-0.3,2.8-1.5,14.6,4.3,12.1c-0.6-0.3-1.1-0.7-1.7-1c0.1,7.1-0.8,14.8-3.9,21.1 C241.8,136.8,243.7,137.9,244.4,136.6L244.4,136.6z"></path> </g> <g> <path class="st0" d="M252.6,98.6c-1.3-6.8,1.6-14.3,5.4-19.8c4.3-6.4,11.2-9.4,18.5-10.7c13.7-2.4,39.3-0.4,35.5,19.7 c0.5-0.2,1.1-0.5,1.6-0.7c-5.6-4.2-22.5-20.9-28.7-9.5c0.7,0.2,1.4,0.4,2.1,0.6c-0.1-5.8-6.2-8.7-11.3-7.6 c-8,1.7-9.9,11.8-10.9,18.7c0.5-0.3,0.9-0.5,1.4-0.8c-14.8-2.8-16.5,17.1-16.9,27.4c-0.6,12,0.4,25.7,8.3,35.2 c8.3,9.9,22.1,11.2,33.3,6.2c12.3-5.4,20.7-17.9,22.5-31.3c0.4-3.3-0.6-8.1,1-10.8c1.6-2.7,3.4-4.7,4.2-7.9 c1.6-6.2,0.3-12.7-3.5-17.7c-0.8-1-2.4,0.3-1.7,1.4c4.3,7.2-3.5,16.2-4.3,23.6c-0.7,6.1,2.4,16.8-4.4,20c-0.9,0.4-0.6,1.8,0.3,2.1 c18.3,6.3,24.7,27.8,29,45.1c3.1,12.6,6.2,25.3,7.2,38.3c0.2,2.9,0.3,5.8,0.3,8.7c0,2.3,0.6,9.4-1.5,11c-1.2,0.9-6.8-0.2-8.3-0.3 c-3.3-0.1-6.6-0.2-10-0.3c0.3,0.6,0.5,1.3,0.8,1.9c3.8-3.3,3.2-9.1,0.2-12.8c-4.5-5.6-12.7-4.5-18.9-3.5c0.5,0.3,0.9,0.5,1.4,0.8 c-1.6-8.7-3.2-17.3-4.7-26c-0.7-4-1.5-8.1-2.2-12.1c-0.5-3-0.1-5.1-2.8-6.5c-10.1-5.2-23.2-2.1-31.5,5.3c-0.8,0.7-0.1,1.9,0.8,1.9 c10.4,0.8,20.7-0.1,30.9-2.7c0.5-0.1,0.8-0.6,0.8-1.1c0.4-3.7-4.3-4.4-6.9-4.9c-5.2-1.1-10.9-1.8-16,0.4 c-6.3,2.7-10.5,11-6.3,17.2c0.4-0.6,0.8-1.1,1.3-1.7c-6.2-1.7-13-3.5-19.4-1.7c-6,1.7-9.8,6.7-14.2,10.8 c-4.4,4.1-9.1,7.9-13.4,12.1c-2.3,2.3-5.6,5.1-5.9,8.6c-0.1,0.6,0.6,1.1,1.1,1.1c2.9,0.3,5.6-3.2,7.3-5.1c3.6-4,6.7-8.4,10.4-12.4 c1.7-1.8,3.6-4.1,6.3-4.2c1.9-0.1,3.7,0.9,5.5,1.4c2.5,0.7,5,0.9,7.5,0.5c5.9-1.1,10.9-5.2,15.2-9.2c1.1-1-0.5-2.5-1.6-1.6 c-6.3,5.1-12.7,10.3-21.2,9.4c-1.3-0.1-1.4,1.8-0.3,2.2c5,1.9,10.1,2.9,15.4,2.7c0.7,0,2.7-0.5,3.2-0.3c1.9,0.9,1.3,3.1,0.6,4.6 c-2.1,4-7.5,4.2-11.4,4.3c0.2,0.7,0.4,1.4,0.6,2.1c3-1.7,8.1-4.1,11.6-3.3c2.1,0.5,2,1.4,1.1,3.6c-1.1,2.6-3.5,4.2-6.3,3.7 c-0.1,0.7-0.2,1.5-0.3,2.2c13.6,0.4,27.3,0.7,40.9,1.1c7.1,0.2,14.2,0.6,15,9.3c0.5,4.8-0.9,9.8-2.5,14.2c-0.5,1.4,1.7,2,2.1,0.6 c2.9-8,5.7-22.1-4.9-25.6c-3.6-1.2-7.7-0.8-11.4-0.9c-4.1-0.1-8.1-0.2-12.2-0.3c-9-0.2-18-0.5-27-0.7c-1.2,0-1.6,2-0.3,2.2 c6,1,11.2-4.9,9.1-10.9c-0.2-0.5-0.6-0.8-1.1-0.8c-5.4-0.3-10.3,0.9-15,3.5c-1,0.5-0.5,2.2,0.6,2.1c4.4-0.2,9.5-0.4,12.5-4.2 c2.1-2.6,2.5-6,0.7-8.9c-0.3-0.5-0.7-0.6-1.3-0.5c-6.6,1-13,0.2-19.2-2.1c-0.1,0.7-0.2,1.5-0.3,2.2c9,0.9,16-4.7,22.7-10.1 c-0.5-0.5-1-1.1-1.6-1.6c-5.2,4.8-11.6,10.1-19.1,8.6c-4.9-1-8.4-3.3-12.8,0.4c-3.7,3.1-6.6,7.2-9.6,10.9c-1.8,2.2-6,8.8-9.2,8.5 c0.4,0.4,0.7,0.8,1.1,1.1c0.3-3.2,4.8-6.6,7-8.6c3.5-3.3,7.3-6.4,10.8-9.6c4.1-3.7,7.6-8.6,12.9-10.6c6.3-2.4,13.2-0.5,19.4,1.2 c0.9,0.2,1.8-0.8,1.3-1.7c-3.1-4.5-0.6-10.5,3.7-13.2c4.8-3,12.4-2.4,17.6-0.7c0.6,0.2,3.1,0.7,3,1.7c0,0.2-3.5,0.8-4,0.9 c-2.8,0.6-5.7,1-8.5,1.3c-5.4,0.5-10.8,0.5-16.2,0.1c0.3,0.6,0.5,1.3,0.8,1.9c4.4-3.9,9.8-6.3,15.5-6.9c2.9-0.3,5.9-0.1,8.7,0.5 c3.5,0.8,5.4,1.9,6.1,5.8c2.4,13,4.7,26,7.1,39c0.1,0.7,0.8,0.9,1.4,0.8c4.6-0.7,10.3-1.6,14.6,1c3.8,2.4,5.8,8.3,2,11.6 c-0.8,0.7-0.1,1.9,0.8,1.9c6.6,0.2,13.3,0.5,19.9,0.7c0.4,0,1-0.4,1.1-0.8c3.3-23-2.5-47.1-9-69.1c-4.6-15.5-12-32.2-28.1-37.7 c0.1,0.7,0.2,1.4,0.3,2.1c7.3-3.5,5.1-13.2,5.3-19.8c0.4-8.8,9.3-18.3,4.1-26.9c-0.6,0.5-1.2,0.9-1.7,1.4c4.8,6.3,4.8,15.8-0.2,22 c-2.3,2.8-1.8,2.7-1.7,6.5c0.1,3.5-0.3,6.9-1.2,10.3c-3.8,14.9-16.3,27.4-31.8,27.9c-15.6,0.6-24.5-12-26.6-26.5 c-1.5-10.2-3.2-44,13.6-40.8c0.5,0.1,1.3-0.1,1.4-0.8c0.7-5.2,1.6-11.2,5.5-15c3.5-3.4,12.2-3,12.3,3.3c0,1.1,1.5,1.6,2.1,0.6 c4.8-8.9,21,6.8,25.6,10.3c0.6,0.4,1.5,0,1.6-0.7c4-21.2-20.6-25-35.9-22.9c-8.2,1.1-16.4,4.1-21.4,11.1 c-4.5,6.2-7.8,14.8-6.3,22.5C250.8,100.6,252.9,100,252.6,98.6L252.6,98.6z"></path> </g> <g> <path class="st0" d="M315.7,252.9c3.7-2.2,5-6.7,5-10.8c-0.6,0.3-1.1,0.7-1.7,1c3.9,2.9,2.6,8.7-0.5,11.6c-2.9,2.8-7,3.9-10.7,5 c0.3,0.7,0.6,1.4,0.9,2.1c5.7-2.6,4.4-11.1-0.1-14.4c-9.7-7-22.1,5.3-32-1.6c0,0.7,0,1.3,0,2c5.5-2.4,11.1-4.3,16.9-5.6 c2.8-0.6,5.7-1.1,8.6-1.5c1.2-0.1,2.9-0.6,4.1-0.4c0.5,0,1.1-0.1,1.6-0.1c-0.6,1.1-1.4,1.7-2.4,1.9c-2.5,0.8-5.6,0.6-8.2,0.8 c-2.9,0.2-5.7,0.5-8.6,0.7c-5.7,0.5-11.5,0.9-17.2,1.4c-1.1,0.1-1.6,1.5-0.6,2.1c6.7,3.9,14.2,5.9,21.9,5.4c3.2-0.2,8-2.2,11-1 c1.4,0,1.8,1,1,3c0.9,1.7,0.7,2.9-0.6,3.5c-0.9,1.1-2.6,1.6-3.9,2c-2.2,0.7-4.5,0.9-6.7,1c-19.9,1.5-40-1.8-58.6-9.1 c-0.8-0.3-1.7,0.6-1.4,1.4c3.9,10.4,16.3,15.3,26,10.1c1.3-0.7,0.2-2.6-1.1-2c-8.1,4.1-17.3,3.7-25.1-1c-0.6-0.4-1.5,0-1.6,0.7 c-4.3,18.4-13.3,35.1-26,48.8c-0.8,0.9,0.3,2.6,1.3,1.8c8.9-6.4,15.8-15,20.2-25.3c-0.5,0.1-1,0.3-1.5,0.4 c12.4,8.7,20.6,22.5,22.2,37.8c0.7-0.2,1.4-0.4,2.1-0.6c-5.7-10.7-14-23.6-27.9-20.8c-0.9,0.2-1.1,1.7-0.3,2.1 c11,5.5,17.6,17.3,16.6,29.7c0.7-0.1,1.5-0.2,2.2-0.3c-4.6-12.2-13.7-21.6-25.6-26.6c-1.2-0.5-1.9,1.4-0.9,2.1 c8.9,5.8,13.8,15.5,16.9,25.5c1.4,4.7,2.5,9.4,3.6,14.2c1.5,6.2,2.7,12.5-2,17.6c-1,1.1,0.5,2.5,1.6,1.6 c30.8-25.7,41.2-68.8,29.7-107.1c-0.4-1.4-2.6-0.8-2.1,0.6c11.3,37.6,1.1,79.7-29.1,104.8c0.5,0.5,1,1.1,1.6,1.6 c3.4-3.7,4.5-7.9,3.9-13c-0.7-6.5-2.8-13.4-4.6-19.7c-3.2-11.1-8.4-21.8-18.3-28.2c-0.3,0.7-0.6,1.4-0.9,2.1 c11,4.6,19.7,13.7,24,25c0.5,1.2,2.1,1,2.2-0.3c1-13.2-6.1-25.9-17.7-31.7c-0.1,0.7-0.2,1.4-0.3,2.1c12.7-2.6,20.2,10.1,25.3,19.7 c0.5,0.9,2.2,0.6,2.1-0.6c-1.8-16.2-10.2-30.6-23.3-39.8c-0.5-0.3-1.3-0.1-1.5,0.4c-4.2,9.9-10.8,18.2-19.4,24.4 c0.4,0.6,0.9,1.2,1.3,1.8c13-14,22.2-31.1,26.6-49.8c-0.5,0.2-1.1,0.5-1.6,0.7c8.5,5.1,18.5,5.4,27.4,1c-0.4-0.7-0.7-1.3-1.1-2 c-8.3,4.5-19.4,0.3-22.7-8.7c-0.5,0.5-0.9,0.9-1.4,1.4c11.4,4.5,23.2,7.4,35.4,8.7c6.5,0.7,13.1,0.9,19.7,0.7 c4.5-0.2,9.7-0.2,13.9-2.3c5.2-2.6,8.6-10.7,0.8-12.1c-4.4-0.8-9,1.1-13.5,1.1c-6.6,0-12.9-1.9-18.7-5.2c-0.2,0.7-0.4,1.4-0.6,2.1 c9.7-0.8,19.5-1.5,29.2-2.3c3.6-0.3,11-0.6,9.8-6.2c-0.1-0.5-0.6-0.9-1.1-0.8c-11.8,0.5-23.2,3.2-34,7.9c-0.8,0.4-0.6,1.5,0,2 c5.4,3.8,11.7,2.5,17.7,1.1c4.5-1,10.9-2.7,14.7,1c2.7,2.6,3.6,8.2-0.4,10c-1.2,0.5-0.3,2.4,0.9,2.1c5.5-1.6,12.1-3.7,14.5-9.6 c1.6-4.1,0.8-8.5-2.7-11.1c-0.7-0.5-1.7,0.2-1.7,1c0,3.3-1,7.1-3.9,8.9C313.4,251.6,314.5,253.6,315.7,252.9L315.7,252.9z"></path> </g> <g> <path class="st0" d="M258.8,263.3c8.8,2.8,20.4,3.9,29.3,1.1c-0.4-0.6-0.8-1.1-1.3-1.7c-4.4,9,3.7,22,14,19.4 c9.2-2.3,12.3-15.4,6.1-22.3c-0.9-1-2.3,0.3-1.7,1.4c2.1,4.5,0,10.7-4.7,12.5c-6.2,2.4-12.2-4.4-10.5-10.6c0.1-0.4,0-0.8-0.3-1.1 c-4.7-4.3-11.2-3.2-15.9,0.6c-7.6,6.2-4.9,15.1-4.9,23.6c0.1,18.2-4.8,35.9-13.4,51.7c-0.4,0.8,0.1,1.7,1,1.7 c8,0.1,15.3-3.8,22.5-6.9c6.9-2.9,13.6-7.7,15.9-15.3c2-6.6-0.3-13.9-5.8-18c-5.9-4.5-13.8-4-20.5-2c-1.4,0.4-0.8,2.5,0.6,2.2 c6.9-1.3,13.8-2.1,20.7-3.3c-0.3-0.7-0.6-1.4-0.9-2.1c-4.2,2.8-5.5,7.5-1.2,11c4.6,3.7,11.8,3.3,16.6,0.3 c10.2-6.4,6.7-23.7-5.8-23.9c-4.5-0.1-15.1,2.3-14.6,8.4c0.6,7.3,8.8,7.7,14.2,7.4c5-0.3,9.9-0.1,14.8,0.7 c2.1,0.4,5.2,0.5,6.9,1.8c1.2,0.9,1.9,2.4,3,3.4c3.8,3.6,9.8,4.8,14.7,3c6.9-2.5,8.9-9.9,9.4-16.7c1-12.3,1.3-24.8,2-37.1 c0-0.5-0.4-1-0.8-1.1c-10.9-3.1-29.2-5.9-32.8,9.4c-0.4,1.5-0.9,4.2,0.2,5.5c1.6,1.9,6.8,2.4,9.1,2.7c6.8,1,13.5-0.3,19.7-3.3 c-0.5-0.4-1.1-0.9-1.6-1.3c-3.4,8.7-15.5,6.6-22.4,4.8c-0.7-0.2-1.4,0.4-1.4,1.1c-0.8,9.9,0.2,19.7,3,29.3 c0.1,0.4,0.4,0.7,0.8,0.8c14.5,3.4,29.2,1.8,42.7-4.5c-0.5-0.2-1.1-0.5-1.6-0.7c0.4,2.9,0.8,5.9,1.3,8.8c0.1,0.5,0.6,0.8,1.1,0.8 c3.3,0.4,6-0.6,8.3-3c0.3-0.4,0.4-0.9,0.2-1.4c-6.8-11.2-10.3-23.8-10.3-36.9c0-0.7-0.5-1.1-1.1-1.1c-7.7-0.7-9.5-11.2-6.1-16.9 c3.8-6.4,11.8-8.8,18.5-10.2c8.8-1.9,18-2.8,27-2.1c7.8,0.7,21.2,2.3,20.8,13.1c-0.7,19.5-30.4,17-42.9,15.5 c-6.1-0.7-25.7-2.4-18.3-13.2c3.2-4.8,9.1-4.6,14-3.1c1,0.3,1.9,0.6,2.9,1c1.7,0.5,2.4,1.6,2.1,3.2c0.5,1.8,0.2,4.2,0.3,6.1 c0.1,1.5,2.2,1.5,2.2,0c0-5.7,0-14.3,6.8-16c6-1.5,9.1,7.1,3.9,10.2c0.5,0.4,1.1,0.9,1.6,1.3c1-3.5,2-7.3,4.8-9.8 c1.6-1.5,3.7-2.5,5.9-1.8c2.6,0.8,5.2,4.7,1.6,6.9c0.5,0.4,1.1,0.9,1.6,1.3c1.1-5,8.6-3.9,7.3,1.2c-0.9,3.6-2.1,2-3.8,0.6 c-2-1.6-4.8-2.4-7.3-1.9c-5.2,1-7.9,6.3-7.1,11.3c0.6-0.4,1.2-0.7,1.9-1.1c-9.9-11.4-24.6,3.4-35.6,3.5c-1,0-1.6,1.6-0.6,2.1 c11.9,5.4,25.1,7.7,38,5.9c8.6-1.2,18.2-5.1,20.8-14.5c-0.7,0-1.4,0-2.1,0c1.9,8.4,2.6,16.9,2,25.5c-0.4,4.8-1.1,9.5-2.3,14.1 c-0.8,3.2-1.6,8.5-4.4,10.3c-1.8,1.2-5.9,0.8-8.1,1.1c-2.2,0.3-4.5,0.5-6.8,0.7c-3.9,0.3-7.9,0.6-11.9,0.7c-8.5,0.3-17,0-25.4-0.7 c-8.2-0.7-16.2-2.3-24.3-3.1c-6.2-0.6-13.3-0.5-18.6,3.3c-6.8,4.8-10.4,16-3.4,22.2c0.1-0.6,0.2-1.2,0.2-1.8 c-9.3,7.1-10.1,23.4-0.2,30.5c10.1,7.3,25.3,0.6,28.2-11.3c-0.6,0.2-1.2,0.3-1.9,0.5c9.1,8.7,27.6,9.5,37.1,0.7 c3.7-3.4,6.6-6.1,11.6-7.2c5.4-1.3,11.2-0.8,16.6,0.2c4.6,0.8,9.8,1.7,14,3.8c10.9,5.3-4.6,13.9-9.9,15.8 c-4.9,1.7-10.2,2.3-15.3,1.7c-5.7-0.6-17.6-3.4-15.7-11.6c3.3-14.1,25.2-11.5,35.5-11.5c9,0.1,20.2-0.2,26.2-8.2 c6.3-8.4-1.3-14.4-8.7-17.2c-10.6-4-23.3-5-33.4,1c-8.7,5.2-14.6,15.2-13.2,25.6c0.6-0.3,1.3-0.5,1.9-0.8 c-6.4-6.7-5.8-18.3,1.6-24c0.8-0.6,0.7-2.3-0.6-2.1c-17.2,2.1-31.1,16.7-32.6,34.3c0.7-0.2,1.4-0.4,2.1-0.6 c-5.3-11.3-1-25.5,9.5-32c0.9-0.6,0.6-2.2-0.6-2.1c-16.4,0.7-30.3,14.9-30.8,31.7c0.7-0.1,1.5-0.2,2.2-0.3 c-2.7-11.6-0.5-23.6,5.9-33.5c0.7-1-0.6-2-1.5-1.6c-13.6,6.2-22.2,20.6-21.5,35.7c0.7-0.2,1.4-0.4,2.1-0.6 c-3.7-5.2-11.4-7.1-16.5-2.8c-5.2,4.3-5.1,12.5-0.7,17.3c0.3-0.6,0.5-1.3,0.8-1.9c-11.2,1.5-22.5,6.2-29.5,15.7 c-6.3,8.6-7.8,21.4-2,30.7c10.2,16.5,45.6,16.9,51.5-4c0.2-0.7-0.4-1.5-1.1-1.4c-8.3,0.2-16.5-1.7-23.7-6.2 c-1.9-1.2-4.4-2.8-4.9-5.2c-0.8-3.8,2.8-6.3,5.8-6.9c4.6-0.8,8.9,2.3,12.5,4.8c0-0.7,0-1.3,0-2c-3.8,2.9-8.7,3.1-12.9,0.9 c-2.1-1.1-4.2-2.9-5.2-5.1c-1.2-2.8,1.3-4,3.6-5.4c9-5.4,21-4.2,28.7,3c0-0.5,0-1.1,0-1.6c-4.2,4-10.2,4.7-15.1,1.7 c0.1,0.5,0.3,1,0.4,1.6c3.1-4.7,8.2-7.7,13.8-7.9c2.5-0.1,6.5,0.1,7.1,3.2c0.2,0.9-0.2,1.8,0,2.8c0.1,0.5,0.8,1,1.4,0.8 c3.2-1.4,6.2-3.1,9.2-4.8c1.8-1,3.6-2,5.6-2.6c2.1-0.6,2.2-0.8,3.6,1.2c1.4,2,1.2,2.6-0.1,4.6c-3.3,5.4-11.2,6.7-11.4,14.2 c0,0.5,0.3,1,0.8,1.1c6.1,1.1,10.1-4.3,13.9-8.3c2.3-2.4,6-6.3,9.7-4.1c5.5,3.3,0.8,11.9-2.7,14.6c0.4,0.6,0.9,1.2,1.3,1.8 c2.1-1.9,4.1-3.9,6.2-5.8c-0.5,0-1,0-1.6,0c3.3,2.7,3.8,7.4,0.9,10.6c-0.9,1,0.2,2.4,1.3,1.8c4.6-2.3,7.8,3.3,3.6,6.3 c0.4,0.6,0.9,1.2,1.3,1.8c2.6,1.4,2.9,2.9,0.9,4.3c-0.6,0.5-1.1,1.1-1.8,1.5c-0.9,0.7,0.1,2.3,1.1,1.9c8.5-2.9,7.1-12.8,4.7-19.7 c-4.3-12.3-5.9-24.7-3.5-37.7c-0.7,0-1.4,0-2.1,0c2.7,16.3,5.1,32.6,8.1,48.8c0.9,5,2.7,7.9,7.6,9.3c4.5,1.3,9.3,1.5,14,1.3 c6-0.3,15.7-0.8,18.4-7.4c4-10.1,4.3-22.8,5-33.5c0.1-1.5-2.1-1.5-2.2,0c-0.6,10.1-1.4,20.5-4.1,30.3c-0.9,3.3-2,5-5.2,6.3 c-4.1,1.6-8.7,2-13,2.1c-4.2,0.1-8.7-0.1-12.7-1.4c-6.5-2.1-6.2-11.3-7.1-17.2c-2.2-13.1-4.4-26.1-6.5-39.2 c-0.2-1.1-1.9-1.1-2.1,0c-1.6,8.8-1.7,17.8-0.1,26.6c0.9,4.5,2.3,8.7,3.8,13c1.9,5.3,3.5,13.8-3.4,16.2c0.4,0.6,0.7,1.3,1.1,1.9 c2.3-1.9,5.5-5.2,3.4-8.4c-1.3-2-4.1-2.6-5.7-0.6c-0.7,0.9,0.2,2.6,1.3,1.8c6.4-4.5,1.1-13.7-5.9-10.2c0.4,0.6,0.9,1.2,1.3,1.8 c3.7-4.1,3.4-10.3-0.9-13.8c-0.5-0.4-1.1-0.5-1.6,0c-2.1,1.9-4.1,3.9-6.2,5.8c-0.9,0.9,0.3,2.6,1.3,1.8c4.8-3.7,10-14.5,2.7-18.6 c-6.6-3.7-12.1,4.5-16.1,8.5c-1.3,1.3-3.6,3.7-5.5,3.7c-4.2,0.1,3.2-6.1,4.3-6.9c3.1-2.3,6.7-5.4,6.8-9.8 c0.2-11.8-18.9,1.6-22.5,3.1c0.5,0.3,0.9,0.5,1.4,0.8c-0.5-1.9,0.9-3.8-0.5-5.6c-1.5-1.8-5.4-2.1-7.5-2.2 c-6.8-0.3-13.2,3.2-16.9,9c-0.3,0.5-0.1,1.3,0.4,1.6c5.8,3.5,12.9,2.7,17.8-2c0.4-0.4,0.4-1.2,0-1.6c-9.3-8.7-26.7-10-35.8,0.1 c-3.2,3.6,2.5,9,5.6,10.7c4.9,2.8,11,2.8,15.6-0.7c0.7-0.5,0.7-1.5,0-2c-4.4-3-9.8-6.6-15.3-4.9c-3.7,1.1-7.1,4.7-6.4,8.9 c0.8,5.3,7.3,8.2,11.5,10.1c6.1,2.7,12.7,3.8,19.3,3.7c-0.4-0.5-0.7-1-1.1-1.4c-5.5,19.4-39.4,18.2-48,2.4 c-4.8-8.8-2.8-20.5,3.3-28.1c6.6-8.2,16.8-12.4,27-13.7c0.9-0.1,1.5-1.2,0.8-1.9c-3.6-4-3.6-11.2,1.1-14.4 c4.1-2.7,9.9-1.3,12.6,2.6c0.6,0.8,2.1,0.7,2.1-0.6c-0.7-14.4,7.5-27.9,20.4-33.8c-0.5-0.5-1-1-1.5-1.6c-6.8,10.4-9,23-6.2,35.2 c0.3,1.3,2.1,1,2.2-0.3c0.5-15.6,13.4-28.8,28.6-29.4c-0.2-0.7-0.4-1.4-0.6-2.1c-11.6,7.1-16.1,22.6-10.3,35.1 c0.5,1.1,2,0.4,2.1-0.6c1.4-16.3,14.5-30.1,30.4-32.1c-0.2-0.7-0.4-1.4-0.6-2.1c-8.5,6.6-9.5,19.8-2,27.6c0.6,0.6,2,0.2,1.9-0.8 c-1.7-13.3,8.6-24.5,20.9-27c6.2-1.3,12.6-0.6,18.6,1.1c7,2,19,7.2,11,16c-8.9,9.7-26,5.7-37.5,6.2c-8.6,0.4-19.9,2.6-23.3,12.1 c-3.4,9.5,7.4,13.9,14.6,15.2c9.3,1.7,19.4-0.3,27.3-5.6c3-2,7.2-5,7.1-9.2c-0.1-3.6-3.3-5.7-6.2-7c-8.2-3.4-18.7-5.3-27.5-4.3 c-4.5,0.5-9,1.9-12.6,4.7c-1.7,1.3-3,3.2-4.7,4.5c-2,1.6-4.4,2.6-6.8,3.3c-8.5,2.8-19.7,1.5-26.3-4.8c-0.6-0.6-1.6-0.4-1.9,0.5 c-2.5,10.1-15.1,16.1-24.1,10.5c-9.2-5.8-9-20.8-0.7-27.2c0.5-0.4,0.8-1.3,0.2-1.8c-5.1-4.5-3.3-12.1,0.8-16.7 c5.3-5.8,14-5.6,21.1-4.7c15.9,1.9,31.3,4.1,47.4,3.7c7.9-0.2,15.8-0.9,23.7-1.9c1.9-0.3,5.4,0,6.8-1.3c1.7-1.7,2.4-6.5,3.1-8.8 c4-14.1,4.2-29,0.9-43.2c-0.3-1.1-1.9-1.1-2.1,0c-2.7,9.9-14,12.6-22.8,13.2c-11.3,0.8-22.5-1.3-32.8-6c-0.2,0.7-0.4,1.4-0.6,2.1 c5.6,0,10.4-2.5,15.5-4.8c5.8-2.7,13.6-5,18.5,0.7c0.8,0.9,2-0.1,1.9-1.1c-1.2-8,8.7-11.5,12.8-4.8c0.3,0.4,0.8,0.7,1.3,0.5 c4.1-1.4,6.5-7.3,2.9-10.7c-3.6-3.3-9.2-0.6-10.2,3.8c-0.2,1,0.8,1.8,1.6,1.3c4.7-2.8,3-10-2.1-11.2c-7.9-1.8-11.7,7.2-13.4,13.4 c-0.3,1,0.8,1.8,1.6,1.3c5.1-3.1,4.9-12.2-0.9-14.5c-3.6-1.4-7.5,0.7-9.8,3.6c-3.3,4.1-3.3,9.7-3.2,14.7c0.7,0,1.5,0,2.2,0 c-0.2-3.1-0.3-6.1-0.5-9.2c0-0.4-0.2-0.8-0.6-1c-6.1-2.7-14.1-5.6-20-0.9c-4.3,3.5-6.1,10.4-1.4,14.3c2.5,2.1,5.9,2.7,9,3.4 c5,1.1,10.1,1.8,15.2,2.2c8.9,0.7,18.8,1,27.3-2.2c6.3-2.3,11.5-7.1,12.6-14.1c1.2-7-2.9-12.3-9.1-14.6 c-8.8-3.4-19.2-3.4-28.4-2.5c-8,0.8-16.7,1.9-24,5.6c-6.1,3.1-11.1,8.6-10.7,16c0.3,6,3.9,11.4,10,12c-0.4-0.4-0.7-0.8-1.1-1.1 c0,8.6,1.4,17,4.3,25.1c1.3,3.6,3.3,6.8,4.7,10.3c0.4,1.1,1.1,1.6,0.2,2.7c-0.8,1.1-3.5,1.3-4.1,0.5c-1.1-1.3-1-6-1.2-7.6 c-0.1-0.8-1.1-0.9-1.6-0.7c-10.3,4.8-21.7,6.9-33,5.7c-2.8-0.3-6.6-0.1-7.9-3c-1.1-2.3-1.3-5.5-1.7-8c-0.9-6.1-1.1-12.2-0.6-18.4 c-0.5,0.4-0.9,0.7-1.4,1.1c8.4,2.3,21.2,3.8,25.1-6.4c0.4-1-0.9-1.7-1.6-1.3c-7,3.5-16.3,4.8-23.7,1.8c-3.9-1.6-1.6-6.1,0.5-8.8 c2.9-3.6,7.1-5.4,11.6-5.8c4.1-0.3,8.3,0.6,12.2,1.6c2,0.5,2.6,0.6,2.9,2.7c0.3,2.2-0.3,4.9-0.4,7.2c-0.4,8.3-0.8,16.7-1.3,25 c-0.4,7-1.8,15.8-9.9,17.2c-3,0.5-6.3-0.1-8.9-1.6c-2.2-1.3-2.8-3.9-4.6-5.2c-2.1-1.5-6.4-1.7-8.9-2.1c-3.5-0.6-7.1-0.8-10.7-0.8 c-3.3,0-7,0.8-10.3,0c-3-0.7-6.1-2.6-4.7-6c1.1-2.7,4.1-3.5,6.8-4.3c4.9-1.5,10.2-0.8,12.9,4c1.8,3.2,2.1,7.4,0.4,10.7 c-2,3.9-6.4,6.1-10.6,6.2c-1.8,0-3.7-0.2-5.3-1c-4-1.8-4.8-5.9-1.1-8.4c1.1-0.7,0.4-2.3-0.9-2.1c-6.9,1.3-13.8,2.1-20.7,3.3 c0.2,0.7,0.4,1.5,0.6,2.2c6.4-1.8,14-2.5,19.3,2.3c5.8,5,6.2,13.2,2.1,19.5c-4.1,6.3-11,8.8-17.6,11.2c-5.7,2.2-10.2,4.9-16.5,4.8 c0.3,0.6,0.6,1.1,1,1.7c5.9-10.9,10.2-22,11.9-34.4c0.7-5.2,1.2-10.4,1.6-15.5c0.6-7.7-3.2-17.1,2.7-23.4c2.2-2.4,5.5-4.2,8.8-4.3 c1.8-0.1,4.3,0.3,5,2.2c0.2,0.6-0.2,2.2-0.1,2.9c0.5,4.3,3.8,8.2,7.8,9.5c9.1,2.9,15.4-8.3,11.9-16.1c-0.6,0.5-1.2,0.9-1.7,1.4 c4.8,5.3,2.7,15.7-4.2,18.2c-8.6,3.1-16.2-8.1-12.4-15.8c0.4-0.8-0.3-2-1.3-1.7c-8.5,2.7-19.7,1.6-28.1-1.1 C258,260.7,257.5,262.9,258.8,263.3L258.8,263.3z"></path> </g> <g> <path class="st0" d="M434.8,377.7c0.7-12.5,1.6-24.9,2-37.4c-0.4,0.4-0.7,0.8-1.1,1.1c6.5-0.9,11.3-6.5,10.7-13.4 c-0.1-1.4-2.2-1.5-2.2,0c0.1,10.6,8.8,17.4,18.1,19.9c13,3.5,27.6,3.2,40.9,2.5c15-0.8,46.6-2.9,46.3-25 c-0.1-10.4-8.8-18.8-17.4-23c-9.4-4.7-20.2-6.1-30.6-5.9c-10.6,0.2-21.5,2.4-31.8,5.1c-7.8,2-17.6,5-21.9,12.7 c-1.8,3.2-0.6,5.8,2.7,7.6c3.8,2.1,8.7,1.3,12.6,0.1c6.4-1.9,12.5-5.4,18.6-8.2c7.9-3.6,15.8-7.3,23.8-10.9 c-0.4-0.6-0.9-1.2-1.3-1.8c-9.5,11.3-22.5,18.6-37,20.5c-1.2,0.2-1.6,1.9-0.3,2.2c20.6,5.9,36.7-16,57-14.4 c-0.3-0.6-0.5-1.3-0.8-1.9c-10.2,9-22.5,14.9-35.8,17.4c0.2,0.7,0.4,1.5,0.6,2.2c14.4-3,28.8-5.9,43.2-8.9 c-0.3-0.7-0.6-1.4-0.9-2.1c-12.1,8.8-26.6,13-41.4,11.9c-1.4-0.1-1.4,2.2,0,2.3c14.2,1,28.4,0.7,42.5-0.8 c-0.2-0.7-0.4-1.4-0.6-2.1c-12.3,7.6-26.9,9.6-40.8,5.6c-0.1,0.7-0.2,1.5-0.3,2.2c8.6,0.1,16.9,1.9,24.7,5.7c0-0.7,0-1.3,0-2 c-9.6,6.8-21.9,3.7-32-0.4c-4.2-1.7-8.3-3.6-12.5-5.2c-2.8-1.1-6.3-2.6-9.3-2.3c-4.8,0.5-3.2,5.1,0.6,6c7.5,1.7,16.1-2.3,23.7-2.5 c1.2,0,1.6-2,0.3-2.2c-6.5-1.4-13-2.8-19.4-4.2c-0.5-0.1-1,0.1-1.3,0.5c-7.1,10.7,24,17.6,29.5,18.4c15.7,2.1,31.7-1.2,45.3-9.4 c0.8-0.5,0.6-1.8-0.3-2.1c-4.9-1.6-9.7-1.1-14.2,1.3c0.4,0.7,0.7,1.3,1.1,2c5.2-2.9,10.5-5.7,15.7-8.6c0.6-0.3,0.8-1.3,0.2-1.8 c-3.1-2.5-6.4-3.4-10.3-2.5c0.4,0.6,0.7,1.3,1.1,1.9c2.5-2.6,5-5.2,7.4-7.8c0.4-0.4,0.5-1.2,0-1.6c-4-3.6-9-4.3-13.9-2.1 c0.4,0.6,0.9,1.2,1.3,1.8c3.3-3.2,6.7-6.4,10-9.5c0.7-0.6,0.2-1.6-0.5-1.9c-5.7-2.3-11.7-2.2-17.3,0.3c0.3,0.7,0.6,1.4,0.9,2.1 c2.6-2.1,4.6-4.4,6.2-7.3c0.2-0.4,0.2-1-0.2-1.4c-2.2-1.9-4.5-2.8-7.4-2.8c0.3,0.6,0.6,1.1,1,1.7c4.9-11.1,2.2-22.8,0.7-34.4 c-0.8-6-1.1-12.3,0.4-18.2c1.6-6.4,5.2-9.5,9.6-14c1.3-1.4,2.4-2.8,2.9-4.7c0.8-2.9-0.2-5.7,1.4-8.4c4.3-7.2,14.6-5.5,21.2-3.6 c2.5,0.7,6.5,2.1,7.6,4.7c2.2,5.3-4,6.4-7.4,6.6c-7.4,0.4-15,0-22.4,0.1c-1.2,0-1.4,1.5-0.6,2.1c9.9,7,23.1,7.1,33,0.2 c-0.6-0.3-1.1-0.7-1.7-1c-0.3,3.1,1.7,4.9,4.2,6.2c1.7,0.9,3.5,1.6,5.1,2.6c3.2,2.1,4.2,5.5,4.8,9.1c2.6,14.3,2.5,29.3,0.5,43.6 c0.7,0.1,1.5,0.2,2.2,0.3c0.4-6.3,0.3-12.6-0.4-18.9c-0.1-0.9-0.9-1.4-1.7-1c-10.4,4.9-21.8,7.3-33.3,6.7 c-5.3-0.3-11.5-0.8-16.4-3.1c-1-0.4-2-1-2.8-1.7c-0.2-1.8-0.4-3.5-0.6-5.3c0.5-0.9,3.2-2.2,4.1-2.7c2.7-1.5,5.5-2.9,8.4-4.1 c9.6-3.9,21.8-5.1,30.1,2.5c8.4,7.6,7,20.2,5.6,30.4c-0.2,1.4,2,1.4,2.2,0c1.6-12.3,2.3-27.1-9.5-34.5c-11.6-7.2-25.5-3-36.6,2.9 c-3.7,2-9.5,4.9-7.1,10.1c2.2,4.9,9.2,6,13.7,6.8c14.7,2.6,29.7,0.4,43.2-6c-0.6-0.3-1.1-0.7-1.7-1c0.7,6.3,0.8,12.6,0.4,18.9 c-0.1,1.3,2,1.6,2.2,0.3c1.8-13.2,2-26.6,0.2-39.8c-0.6-4.8-1.1-10.5-4.7-14c-2.6-2.5-10.5-4-10.1-8.4c0.1-0.8-1-1.4-1.7-1 c-9.4,6.5-21.5,6.4-30.8-0.2c-0.2,0.7-0.4,1.4-0.6,2.1c7.3,0,14.6,0.2,21.8-0.1c3.4-0.1,7.5-0.6,9.6-3.7 c5.6-8.3-8.9-12.3-13.9-13.2c-9.7-1.6-19.4,1.3-19.9,12.4c-0.3,6.3-7.1,9.1-10.1,14.3c-2.3,4.1-3.3,8.9-3.6,13.6 c-0.9,15.1,6.5,30.7,0.1,45.2c-0.3,0.7,0,1.7,1,1.7c2.1,0,4.9,0.2,4.6,2.4c-0.2,1.5-3.4,4-4.4,4.8c-0.9,0.7-0.4,2.6,0.9,2.1 c5.3-2.3,10.7-2.4,16.1-0.3c-0.2-0.6-0.3-1.3-0.5-1.9c-3.3,3.2-6.7,6.4-10,9.5c-1,0.9,0.3,2.3,1.3,1.8c3.9-1.8,8-1.1,11.2,1.7 c0-0.5,0-1.1,0-1.6c-2.5,2.6-5,5.2-7.4,7.8c-0.8,0.8,0,2.2,1.1,1.9c3-0.7,5.7-0.2,8.1,1.9c0.1-0.6,0.2-1.2,0.2-1.8 c-5.2,2.9-10.5,5.7-15.7,8.6c-1.3,0.7-0.1,2.6,1.1,2c4.1-2.1,8.1-2.5,12.5-1.1c-0.1-0.7-0.2-1.4-0.3-2.1 c-13.5,8.2-29.6,11.4-45.1,9c-7.3-1.1-14.5-3.4-21-7c-1.5-0.8-4.1-1.9-4.9-3.5c-2.9-5.4,2.3-2.9,4.5-2.4c4.3,0.9,8.6,1.9,13,2.8 c0.1-0.7,0.2-1.5,0.3-2.2c-6.9,0.2-13.6,2.6-20.6,2.8c-0.9,0-3.4,0.3-4.1-0.7c-1.1-1.6,1.8-1,2.8-0.8c3.2,0.6,6.4,2,9.5,3.2 c13.3,5.4,29.6,13.7,43.1,4.2c0.6-0.4,0.8-1.6,0-2c-8.2-3.9-16.8-5.9-25.8-6c-1.3,0-1.5,1.9-0.3,2.2c14.4,4.2,29.7,2.1,42.5-5.8 c0.9-0.5,0.6-2.2-0.6-2.1c-14.1,1.6-28.3,1.8-42.5,0.8c0,0.8,0,1.5,0,2.3c15.2,1.1,30.1-3.2,42.5-12.2c1-0.7,0.4-2.3-0.9-2.1 c-14.4,3-28.8,5.9-43.2,8.9c-1.4,0.3-0.8,2.4,0.6,2.2c13.7-2.5,26.2-8.7,36.8-17.9c0.8-0.7,0.1-1.9-0.8-1.9 c-20.1-1.7-36.4,20.2-56.5,14.4c-0.1,0.7-0.2,1.5-0.3,2.2c15-2,28.7-9.4,38.6-21.2c0.8-1-0.2-2.3-1.3-1.8 c-10.6,4.9-21.1,9.7-31.7,14.6c-4,1.8-8,4-12.3,4.9c-3.2,0.7-12.4,1.2-10.8-4.5c0.9-3.3,5.4-5.9,8.1-7.4c4-2.2,8.4-3.5,12.8-4.6 c8-2.1,16.5-3.9,24.7-4.7c16.9-1.6,40.3,0.9,49.7,17.6c5.3,9.4,1.4,18.8-7.2,24c-7.7,4.7-16.8,6-25.6,6.8 c-12.7,1.2-25.6,1.2-38.3,0c-11.3-1.1-27-5.1-27.1-19.5c-0.7,0-1.5,0-2.2,0c0.5,5.5-3,10.3-8.5,11.1c-0.6,0.1-1.1,0.5-1.1,1.1 c-0.4,12.5-1.4,24.9-2,37.4C432.5,379.1,434.7,379.1,434.8,377.7L434.8,377.7z"></path> </g> <g> <path class="st0" d="M575.3,292.2c-12.2,12.7-24.7,32.3-22.4,51c2.2,17.9,22.2,30.2,37.5,34.7c1.2,0.3,1.7-1.1,1.1-1.9 c-12.8-16.1-13.8-39.8-2.7-57c-0.7-0.3-1.4-0.6-2-0.9c-4.4,15.4-4.2,31.5,0.7,46.8c0.4,1.2,2.1,1,2.2-0.3 c0.6-13,2.7-25.8,6.4-38.3c0.4-1.4-1.7-2-2.1-0.6c-5.5,16.1-7.4,33.1-5.6,50.1c0.5-0.4,0.9-0.7,1.4-1.1 c-13-3.5-24.1-11.5-31.7-22.8c-0.3-0.4-0.8-0.7-1.3-0.5c-3.7,1.5-4.8,4.8-5.8,8.6c-0.9,3.5-2,6.1-4.3,8.9c-1.9,2.2-3.6,4.2-4.8,7 c-4.6,11.1,0.7,24,5.3,34.1c0.5,1.2,2.3,0.3,2-0.9c-1.1-4.5-2.2-9-3.4-13.5c-0.5-2.1-1.6-4.6-1.7-6.7c-1-2.1-0.2-3.7,2.4-4.8 c0.9,0.7,1.8,1.4,2.6,2.1c4.8,3.9,10.2,7,16.2,8.2c12.2,2.5,21.9-4,25.5-16c4.3-14.6,3.7-31,4.7-46.1c1.1-17,3.3-34.1,11.5-49.3 c0.4-0.8-0.3-2-1.3-1.7c-5.4,1.8-10.5,4-15.4,6.9c-4.5,2.6-9.7,5.8-13.1,9.8c-5.3,6.4,2.5,11.6,8.3,7.8c4.6-3,8.2-7.9,12.7-11.2 c5.1-3.7,10.6-6.7,16.4-9c2.7-1,5.5-1.9,8.4-2.6c1.5-0.4,3.4-0.5,4.6-1.7c1.7-1.7,1.2-4.1-0.9-5c-1.3-0.6-1.9,1.6-0.6,2.2 c-0.3,1.3-1,2-2.2,2c-0.9,0.2-1.9,0.4-2.8,0.7c-1.6,0.4-3.3,0.9-4.9,1.5c-3.1,1.1-6.1,2.3-9,3.8c-5.7,2.9-11.1,6.6-15.9,10.9 c-2.5,2.3-5.5,6.5-8.8,7.4c-3.1,0.9-4.5-0.6-4.2-4.5c0.7-0.9,1.4-1.8,2.3-2.5c1.4-1.3,3-2.5,4.6-3.6c6.5-4.7,13.7-8.3,21.3-10.8 c-0.4-0.6-0.8-1.1-1.3-1.7c-12.1,22.6-11.3,48.7-13.2,73.7c-0.9,11.9-1,30.2-13.7,35.7c-5.4,2.3-11.6,1.6-17-0.4 c-2.9-1.1-5.7-2.6-8.2-4.5c-2-1.5-3.9-3.9-6.3-4.8c-3.5-1.4-5.7,1.1-5.4,4.7c0.3,3.6,1.7,7.4,2.6,10.8c1.1,4.2,2.1,8.4,3.2,12.7 c0.7-0.3,1.4-0.6,2-0.9c-3.8-8.3-7.8-18-6.4-27.4c0.9-5.8,4.2-8.7,7.4-13.1c1.8-2.5,2.4-5.3,3.2-8.2c0.4-1.5,0.9-4.6,2.3-5.3 c1.9-1,2.4,1,3.5,2.5c2.7,3.4,5.7,6.5,9.1,9.2c6.2,5,13.3,8.5,21,10.5c0.6,0.2,1.5-0.3,1.4-1.1c-1.7-16.8,0.1-33.6,5.5-49.5 c-0.7-0.2-1.4-0.4-2.1-0.6c-3.7,12.7-5.9,25.7-6.5,38.9c0.7-0.1,1.5-0.2,2.2-0.3c-4.8-14.9-5.1-30.5-0.7-45.6 c0.4-1.3-1.4-1.9-2-0.9c-11.7,18.2-10.4,42.9,3,59.8c0.4-0.6,0.7-1.3,1.1-1.9c-15.4-4.5-35.9-17.4-36.1-35.8 c-0.2-17.4,10.5-34.3,22-46.2C577.9,292.8,576.3,291.2,575.3,292.2L575.3,292.2z"></path> </g> <g> <path class="st0" d="M628.4,278.3c-7.1-6.8-11.6-17.4-15-26.5c-2.4-6.4-3.6-12.6-4.4-19.4c-0.7-5.8-2.2-10.8-4.2-16.3 c-4.9-13.6-8.1-28.3-0.4-41.6c6.2-10.7,16.6-18,26.4-24.8c0.7-0.5,0.8-1.9-0.3-2.1c-6.4-0.9-13.3-4.7-15.1-11.5 c-2-7.2,3.6-15.3,11.1-14.4c1.1,0.1,1.5-1.7,0.6-2.1c-5.9-2.8-8.7-9.5-6.7-15.8c-0.5,0.2-1.1,0.5-1.6,0.7c4,2.8,8.1,5.6,12.1,8.4 c0.8,0.6,1.9-0.4,1.6-1.3c-1.1-3.5-1.1-6.7,0.3-10.2c-0.6,0.2-1.2,0.3-1.9,0.5c3.4,3.2,6.2,6.7,8.6,10.7c0.6,1,2,0.5,2.1-0.6 c0.4-3.4,4-4.8,6.8-4c3.3,0.9,4.8,4.7,4.9,7.9c0.1,5.3-3.3,9.9-6.2,13.9c-0.6,0.9,0.4,1.8,1.3,1.7c4.9-1,8.9-3.2,12.4-6.9 c-0.6-0.4-1.2-0.7-1.9-1.1c-0.9,2.9-1.7,5.8-2.6,8.7c-0.4,1.4,1.7,2,2.1,0.6c1.9-6.1,9.8-3.8,9.2,2.1c-0.1,0.7,0.8,1.3,1.4,1.1 c9.6-3.2,17.1,7.2,11.3,15.7c0.6-0.1,1.2-0.2,1.7-0.2c-16.3-17.8-46.6-17.4-62.4,0.9c-0.8,0.9,0,2.1,1.1,1.9 c11.8-2.4,31.5-20.1,42-5.9c0.4-0.6,0.8-1.1,1.3-1.7c-13.9-5-29.6-0.8-39.3,10.5c-0.9,1.1,0.6,2.7,1.6,1.6 c9-9.5,22.1-13.7,34.9-11.2c0-0.7,0-1.5,0-2.2c-18.9,4.2-38.4,11.5-50.2,28c-9.6,13.4-15.1,33.7-3.4,47.4c0.9,1,2.2-0.3,1.7-1.4 c-5.8-13,5.1-31,17.2-35.7c2.8-1.1,5.6-1.5,8.6-1.7c2.6-0.2,2.5-1.1,4.4-3.1c3.9-4.1,9-6.8,14.4-8.1c26-6.4,45.2,17.4,48.6,41.4 c0.2,1.1,1.9,1,2.1,0c2.1-9.5,15.2-9,16,1c0.1,1.3,1.7,1.5,2.2,0.3c2.3-6.3,1.2-13.5-2.9-18.8c-2-2.7-5.7-4.2-6.6-7.5 c-1-3.7-1.8-7.4-3.3-10.9c-6.2-14.7-18.6-26.1-33.5-30.9c-1-0.3-1.7,0.8-1.3,1.7c4.7,9.6,13.4,15.4,21.7,21.3 c10.6,7.7,18.6,16.5,22.6,29.4c3.7,11.9,4.2,24.6,4.1,37c0,1.5,0.7,12-3.2,10.8c-3.3-1.1-4.4-7.1-5.2-9.8 c-2.2-7.6-4.4-15.3-6.5-22.9c-0.7,0.3-1.4,0.6-2,0.9c13.6,21,11.5,51.1-5.7,69.4c-18.5,19.8-48.5,15.9-68.6,1.1 c-1-0.7-2.3,1-1.3,1.8c14.8,12.2,33.8,21.6,52.7,14c16.2-6.5,28.5-20.8,33.2-37.9c-0.7-0.1-1.5-0.2-2.2-0.3 c0.4,15.3,10.8,28.8,25.3,32.7c0.6,0.2,1.2-0.2,1.4-0.8c3.1-13.1-9.1-26.1-22-23.5c-0.9,0.2-1.1,1.7-0.3,2.1 c8.5,4.1,16,9.5,22.6,16.3c0.5,0.5,1.4,0.4,1.7-0.2c7.7-14,15-28.4,23.2-42.1c7.6-12.8,20.7-26.6,36.8-21c1.4,0.5,1.9-1.7,0.6-2.2 c-14.1-4.8-27.2,4.5-35.2,15.7c-4.9,6.9-8.7,14.6-12.8,22c-4.8,8.8-9.7,17.6-14.5,26.5c0.6-0.1,1.2-0.2,1.7-0.2 c-6.7-6.9-14.4-12.5-23.1-16.7c-0.1,0.7-0.2,1.4-0.3,2.1c11.2-2.3,22,9.3,19.3,20.7c0.5-0.3,0.9-0.5,1.4-0.8 c-13.5-3.6-23.4-16.2-23.7-30.5c0-1.3-1.8-1.6-2.2-0.3c-4.4,16.1-15.9,29.7-31.1,36.1c-18.3,7.7-36.7-1.3-51-13.2 c-0.4,0.6-0.9,1.2-1.3,1.8c16.2,12,38.5,17.3,57.3,8.7c18.6-8.5,28.9-29.3,29.3-49.4c0.2-11.6-2.9-23.2-9.2-32.9 c-0.7-1-2.4-0.4-2,0.9c2,7.1,4,14.1,6.1,21.2c1.3,4.4,2.1,9.9,6.3,12.6c8.7,5.7,7-12.8,7-16.7c-0.1-22-3.6-44.8-21.4-59.3 c-9.6-7.9-21.6-13.6-27.3-25.4c-0.4,0.6-0.8,1.1-1.3,1.7c14,4.5,25.6,15.1,31.7,28.7c1.5,3.3,2.6,6.8,3.4,10.3 c0.8,3.7,0.3,3.8,3.2,5.7c6.6,4.4,9.1,13.2,6.5,20.7c0.7,0.1,1.5,0.2,2.2,0.3c-1-12.4-17.7-13.9-20.4-1.6c0.7,0,1.4,0,2.1,0 c-2.9-20.2-16-40.7-37.2-43.7c-9.3-1.3-19.3,0.8-26.8,6.9c-1.7,1.3-3.1,3.8-5,4.7c-2,1-5.2,0.7-7.4,1.3c-4.8,1.3-9.3,4-12.8,7.6 c-7.6,7.9-13,21.6-8.3,32.2c0.6-0.5,1.2-0.9,1.7-1.4c-11.9-13.9-4.4-35,5.9-47.5c11.7-14.1,29.6-20.4,46.7-24.2c1-0.2,1.1-2,0-2.2 c-13.5-2.7-27.4,1.6-37,11.7c0.5,0.5,1,1.1,1.6,1.6c9.2-10.7,24-14.6,37.2-9.9c0.9,0.3,1.8-0.9,1.3-1.7 c-11.7-15.8-31.4,2.2-44.5,4.9c0.4,0.6,0.7,1.3,1.1,1.9c15-17.3,43.8-17.8,59.3-0.9c0.5,0.6,1.4,0.3,1.7-0.2 c6.9-10.1-2.4-22.9-13.8-19.1c0.5,0.4,0.9,0.7,1.4,1.1c0.9-8.9-10.9-11.2-13.6-2.7c0.7,0.2,1.4,0.4,2.1,0.6 c0.9-2.9,1.7-5.8,2.6-8.7c0.3-1.1-1.1-1.9-1.9-1.1c-3.2,3.4-6.9,5.4-11.4,6.3c0.4,0.6,0.8,1.1,1.3,1.7c4.5-6.3,10.3-16.5,3.2-23.4 c-4.4-4.3-12.2-1.9-12.9,4.4c0.7-0.2,1.4-0.4,2.1-0.6c-2.5-4.2-5.4-7.9-8.9-11.2c-0.7-0.6-1.6-0.3-1.9,0.5 c-1.5,3.8-1.5,7.5-0.3,11.4c0.5-0.4,1.1-0.9,1.6-1.3c-4-2.8-8.1-5.6-12.1-8.4c-0.6-0.4-1.4,0-1.6,0.7c-2.3,7.3,1,15.1,7.7,18.4 c0.2-0.7,0.4-1.4,0.6-2.1c-7.8-0.9-14.3,6.8-13.8,14.6c0.7,8.9,9.2,14.6,17.2,15.8c-0.1-0.7-0.2-1.4-0.3-2.1 c-10,6.9-20.5,14.4-26.9,25.1c-7.3,12.2-6.1,25.9-1.8,39c2.4,7.5,5,14,6,21.9c0.8,6.5,2.1,12.5,4.4,18.6 c3.5,9.6,8.1,20.4,15.6,27.5C627.9,280.9,629.5,279.3,628.4,278.3L628.4,278.3z"></path> </g> <g> <path class="st0" d="M803.2,225.1c4.5,4.4,11.2,5.3,16.9,7.2c1.1,0.4,1.8-1.1,1.1-1.9c-5.9-6.9-10.6-14.5-15.2-22.2 c-2.3-3.8-4.3-8.3-7.3-11.6c-2.6-2.9-5.5-5.6-8.3-8.4c-2.4-2.4-4.1-6.1-1.8-9.1c1.8-2.3,4.1-2.7,6.8-3.1c10.3-1.6,20.8,0.4,30,5.2 c0.5,0.3,1.2,0.1,1.5-0.4c5.3-9.5,17.6-9.5,27-10.1c12.3-0.8,24.5-2.1,36.8-3.4c0.6-0.1,1.1-0.5,1.1-1.1c0.5-16.7-3-34.8-12-48.9 c-6.4-10-19.7-17.9-30.2-8.7c0.6,0.5,1.2,0.9,1.7,1.4c2.2-3,3.8-6.1,5-9.6c0.2-0.6-0.4-1.5-1.1-1.4c-4.9,0.6-8.9,2.7-12,6.6 c0.6,0.3,1.3,0.5,1.9,0.8c-0.2-2.9,0.2-5.4,1.3-8.1c0.4-1-0.9-1.7-1.6-1.3c-2.8,1.3-4.9,3-6.8,5.4c0.6,0.2,1.2,0.3,1.9,0.5 c-0.4-2.9-1.9-4.9-4.4-6.4c-0.5-0.3-1.2-0.1-1.5,0.4c-1.4,2.8-1.8,5.5-1.1,8.6c0.5-0.5,0.9-0.9,1.4-1.4 c-9.5-1.5-21.2,3.5-28.6,9.3c-9.8,7.7-11.9,19.9-16.3,31c-0.5,1.2,1.5,2,2,0.9c1.3-2.8,2.6-5.6,3.9-8.4c0.5-1-0.5-2.1-1.5-1.6 c-11.9,6.7-9.1,21.8-6.1,32.9c0.3,1.1,1.9,1.1,2.1,0c2.4-9.8,7.8-18.1,15.6-24.3c1-0.8-0.3-2.5-1.3-1.8c-3.8,2.8-4.9,7.5-2.6,11.7 c0.4,0.7,1.5,0.7,1.9,0c3-5.5,7.4-9.8,13.1-12.4c5.7-2.6,11-5.9,16.5-9.1c-0.5-0.1-1-0.3-1.5-0.4c0.7,1.4,1,2.8,0.9,4.3 c0,1,1.2,1.5,1.9,0.8c1.8-1.7,3.2-2.6,5.6-3.5c-0.5-0.4-0.9-0.7-1.4-1.1c-0.1,2.2,0.3,3.8,1.2,5.8c0.2,0.6,1.1,0.7,1.5,0.4 c2.8-1.8,5.6-3.5,8.5-5.3c-0.6-0.3-1.1-0.7-1.7-1c-0.2,3.4,0.2,6.4,1.2,9.7c0.3,1,1.5,1,2,0.3c2.1-2.9,4.3-5.7,6.4-8.6 c-0.7-0.1-1.4-0.2-2-0.3c1.8,4.6,3.5,9.2,5.3,13.8c0.4,1.1,2.3,1.1,2.2-0.3c-0.4-1.8,0-3.4,1.1-5c-0.6,0-1.3,0-1.9,0 c2.8,5.2,5.2,10.5,7,16.1c0.3,0.9,1.5,1.1,2,0.3c1.3-2.1,2.1-4.1,2.6-6.5c-0.7,0.1-1.4,0.2-2,0.3c2.8,5.4,4.3,11,4.8,17 c0.5-0.4,0.9-0.7,1.4-1.1c-1.1-0.3-2.1-0.5-3.2-0.8c-1.4-0.4-2,1.8-0.6,2.2c1.1,0.3,2.1,0.5,3.2,0.8c0.7,0.2,1.5-0.3,1.4-1.1 c-0.5-6.4-2.2-12.5-5.1-18.2c-0.4-0.8-1.8-0.7-2,0.3c-0.4,2.2-1.2,4.1-2.4,6c0.7,0.1,1.4,0.2,2,0.3c-1.9-5.8-4.3-11.3-7.3-16.6 c-0.4-0.8-1.5-0.7-1.9,0c-1.2,2.1-1.6,3.7-1.4,6.2c0.7-0.1,1.5-0.2,2.2-0.3c-1.8-4.6-3.5-9.2-5.3-13.8c-0.4-1-1.4-1.1-2-0.3 c-2.1,2.9-4.3,5.7-6.4,8.6c0.7,0.1,1.4,0.2,2,0.3c-0.9-3-1.3-5.9-1.1-9.1c0-0.9-1-1.4-1.7-1c-2.8,1.8-5.6,3.5-8.5,5.3 c0.5,0.1,1,0.3,1.5,0.4c-0.7-1.5-1-3.1-0.8-4.7c0-0.7-0.7-1.3-1.4-1.1c-2.5,0.9-4.6,2.2-6.6,4c0.6,0.3,1.3,0.5,1.9,0.8 c0.1-2.1-0.3-3.6-1.2-5.5c-0.3-0.6-1-0.7-1.5-0.4c-3.6,2.1-7.1,4.2-10.8,6.2c-2.8,1.6-5.8,2.7-8.6,4.3c-4.7,2.8-8.4,6.9-11,11.7 c0.6,0,1.3,0,1.9,0c-1.7-3.1-1-6.5,1.8-8.6c-0.4-0.6-0.9-1.2-1.3-1.8c-8.1,6.4-13.7,15.2-16.2,25.3c0.7,0,1.4,0,2.1,0 c-2.8-10-5.9-24.1,5-30.3c-0.5-0.5-1-1-1.5-1.6c-1.3,2.8-2.6,5.6-3.9,8.4c0.7,0.3,1.4,0.6,2,0.9c4.1-10.3,6-21.8,14.8-29.3 c6.7-5.7,18.5-10.9,27.3-9.5c0.8,0.1,1.6-0.5,1.4-1.4c-0.5-2.5-0.3-4.5,0.9-6.8c-0.5,0.1-1,0.3-1.5,0.4c1.9,1.1,3,2.8,3.3,5 c0.1,0.8,1.4,1.1,1.9,0.5c1.8-2.2,3.8-3.8,6.4-5c-0.5-0.4-1.1-0.9-1.6-1.3c-1.1,2.9-1.5,5.6-1.3,8.7c0.1,0.9,1.2,1.6,1.9,0.8 c2.8-3.4,6.2-5.4,10.5-5.9c-0.4-0.5-0.7-1-1.1-1.4c-1.1,3.3-2.7,6.3-4.7,9.1c-0.8,1.1,0.9,2.2,1.7,1.4c12-10.5,25.1,3.9,30,14.5 c6.1,12.9,8.8,27.2,8.3,41.5c0.4-0.4,0.7-0.8,1.1-1.1c-14.1,1.5-28.2,2.7-42.4,3.8c-8.8,0.7-18.6,2.4-23.3,10.9 c0.5-0.1,1-0.3,1.5-0.4c-9.3-4.9-19.8-7-30.2-5.6c-3.7,0.5-8.6,1.2-10.5,5c-1.6,3.2-0.4,6.9,1.6,9.5c2.8,3.9,7.1,6.7,10.1,10.4 c1.9,2.3,3.2,5.4,4.7,7.9c5.3,8.9,10.6,17.7,17.3,25.6c0.4-0.6,0.7-1.3,1.1-1.9c-5.3-1.7-11.7-2.5-15.9-6.6 C803.7,222.4,802.2,224.1,803.2,225.1L803.2,225.1z"></path> </g> <g> <path class="st0" d="M876.1,170.1c3.7,2.4,5.8,5.9,6.1,10.4c0.1,1.5,2,1.4,2.2,0c0.6-4.3,2.2-11.7,6.3-14.3c4.2-2.7,4.6,4,4.5,6.8 c-0.2,4-1.1,7.9-2.5,11.6c-0.7,2-1.6,4-2.7,5.9c-0.3,0.5-1.5,2.8-2,2.9c-1.5,0.5-4.2-2.1-4.9-2.8c-0.9-0.9-2.5,0.3-1.7,1.4 c3.2,4.9,5.2,10.1,5.9,16c0.6-0.4,1.2-0.7,1.9-1.1c-2.9-3.4-5.1-7-6.6-11.2c-0.5-1.4-2.3-0.8-2.1,0.6c1.8,13.2-12,23.5-21,30.6 c-9.2,7.3-25.9,16.4-35.8,5.5c-0.5,0.5-1,1.1-1.6,1.6c2.6,2.6,4.8,5.5,7.3,8.1c0.4-0.6,0.7-1.3,1.1-1.9c-5.2-1.2-9.9-4.1-15.2-5.3 c-0.5-0.1-1,0.1-1.3,0.5c-3.8,8.2-0.8,17.6,5.5,23.5c8.3,7.8,20.4,9.4,31.1,11.1c26.2,4.3,53.2,6.4,79.2-0.4 c1.1-0.3,1.1-1.9,0-2.2c-26.3-6.6-45.2-33.1-43.6-60.7c0.1-1.1-1.6-1.5-2.1-0.6c-6.5,11.8-0.6,25.6,8.1,34.4 c11.3,11.6,27.8,15.9,39.7,26.8c0.1-0.6,0.2-1.2,0.2-1.8c-13.7,10.4-27.4,20.8-41.2,31.2c-3.7,2.8-7.3,5.7-11.1,8.4 c-4.4,3.1-8.3,3.6-13.4,1.7c-8-2.9-15.8-6.5-23.6-9.7c-7.9-3.3-15.8-6.6-23.8-9.8c-3.8-1.6-7.6-3.2-11.5-4.8 c-2.1-0.9-4.6-1.5-6.5-2.7c-2.3-1.4-2.4-1.6-2.2-4.5c1.2-17,5.2-33.6,11.4-49.3c0.2-0.6-0.3-1.2-0.8-1.4 c-5.2-1.9-9.5,1.7-12.4,5.8c-4.5,6.2-7.5,14.1-10.5,21.2c-6.5,15.6-11.1,32-13.9,48.8c0.7-0.1,1.4-0.2,2-0.3 c-3.5-4.9-7.9-8.7-13.4-11.1c-2.5-1.1-5.1-1.9-7.7-2.4c-2.2-0.4-6-1.2-8.1-0.3c-1.7,0.8-2.4,3-3.3,4.6c-1.9,3.2-3.7,6.3-5.7,9.4 c-4.3,6.7-9,13.1-14.8,18.6c-11,10.3-26.2,16.6-41,11.8c-13.5-4.4-23.7-15.7-32.9-26.1c-0.9-1-2.4,0.3-1.7,1.4 c5.8,10,13.5,18.7,22.8,25.4c9.1,6.6,20.7,12.9,32.2,10c10.7-2.8,18.6-11.6,24.8-20.4c4.2-6,7.9-12.3,12.6-17.9 c2.2-2.6,4.6-5.4,7.7-6.9c4.6-2.2,9.2-0.2,13.5,1.8c15,7.2,29.8,15,44.2,23.4c0.3-0.7,0.6-1.4,0.9-2.1c-12-4.5-25.1-2.2-35.1,5.8 c-0.9,0.7,0.1,2.2,1.1,1.9c10.8-3.5,22-4.9,33.3-4c-0.4-0.5-0.7-1-1.1-1.4c-9.3,29.4-21.1,57.8-35.5,84.9 c-0.7,1.3,1.1,2.4,1.9,1.1c13.8-21.5,27.7-42.9,41.5-64.4c-0.6-0.4-1.3-0.8-1.9-1.1c-7.8,15.1-15.6,30.2-23.4,45.3 c0.7,0.3,1.4,0.6,2,0.9c4.1-10.5,12.1-18.7,22.3-23c-0.4-0.6-0.7-1.3-1.1-1.9c-9.9,7.8-18.5,17.1-25.6,27.5 c-0.7,1,0.6,2.1,1.5,1.6c9-5.1,17.6-10.9,25.8-17.3c-0.4-0.6-0.9-1.2-1.3-1.8c-11.2,10.8-22.4,21.6-33.6,32.4 c-0.9,0.9,0.3,2.6,1.3,1.8c9.1-6.9,19.2-11.9,30.2-15.1c-0.2-0.7-0.4-1.5-0.6-2.2c-10.1,3.8-18.3,10.8-23.8,20.2 c-0.6,1.1,0.6,2,1.5,1.6c19.8-9.1,42.3-9.9,62.6-2.2c0.7,0.3,1.4-0.4,1.4-1.1c0.8-35.2-14-69.7-40-92.8c-0.2,0.6-0.3,1.3-0.5,1.9 c13.5-4.7,28-3.8,40.8,2.7c1.3,0.6,2.4-1.2,1.1-2c-19.4-12.3-39-24-59-35.2c-0.4,0.7-0.7,1.3-1.1,2c19.1,10.5,38.2,21.1,58.5,29 c5,2,10.1,3.7,15.2,5.3c2.6,0.8,5.2,1.5,7.8,2.2c2.1,0.5,6,2.2,8.2,1.9c1.3-0.2,2.3-1.7,3.2-2.6c2-1.9,4-3.8,6.1-5.7 c4.2-4,8.4-8,12.5-12.1c8-8,15.8-16.2,22.8-25.1c3.4-4.3,6.7-10.2,12.8-9.9c1.9,0.1,6.6,1.2,7.1,3.3c0.5,2.3-4.1,4.9-5.6,6.2 c-8.5,7.5-16.6,15.5-24.4,23.8c-6.5,7-14.9,14.6-18.9,23.5c-4.5,10.1-0.8,22.1,2.9,31.8c4,10.3,9.7,19.7,16.9,28.1 c0.4-0.6,0.7-1.3,1.1-1.9c-22.3-3.7-38.8-27.2-34.7-50c-0.7-0.1-1.5-0.2-2.2-0.3c-0.3,16.6,5.2,32.8,15.5,45.6 c1.3,1.6,2.7,3.2,4.2,4.7c0.7,0.7,1.3,1.3,2,2c1.4,1.4,2.3,4,1.3,6.1c-0.9,1.8-4.1,3.6-5.6,4.9c-2,1.7-4,3.4-6,5.1 c-8.4,7.2-16.8,14.3-25.1,21.5c-1,0.9,0.3,2.3,1.3,1.8c28.4-13.3,52.6-34.9,69.4-61.9c-0.6,0.1-1.2,0.2-1.7,0.2 c3.2,3.5,3.8,8.2,1.6,12.4c-0.7,1.3,1.2,2.4,1.9,1.1c5-9.1,6.8-19.7,4.7-29.9c-2.4-11.5-11.3-21.2-10.4-33.5 c-0.7,0.2-1.4,0.4-2.1,0.6c7.3,13.6,11,28.6,10.7,44.1c0,1.3,1.9,1.6,2.2,0.3c3.2-17.2,3.1-34.8-0.5-51.9c-0.7,0.3-1.4,0.6-2,0.9 c3.8,8.9,7.5,17.8,11.3,26.7c0.4,1,2.2,0.5,2.1-0.6c-1.6-12.7-3.3-25.5-4.9-38.2c-0.6,0.3-1.3,0.5-1.9,0.8 c3.4,4.3,6.9,8.7,10.3,13c0.6,0.8,1.9,0.1,1.9-0.8c0-6.2,0-12.5-1.7-18.5c-1.5-5.7-4.6-10.5-8.3-15c-0.4,0.6-0.9,1.2-1.3,1.8 c5.4,3.9,10.6,8.1,14.4,13.7c3.8,5.7,6.2,12.3,8.2,18.9c2.2,7.1,4.1,14.3,8.2,20.6c3.8,5.7,8.8,10.3,14.7,13.6 c1.2,0.7,2.4-1.2,1.1-2c-7.2-4.1-13-10.2-16.7-17.7c-3.6-7.4-5.1-15.8-8.1-23.5c-4.4-11.1-11.2-18.8-20.7-25.6 c-1.1-0.8-2.1,0.9-1.3,1.8c7.9,9.6,9.3,19.7,9.3,31.9c0.6-0.3,1.3-0.5,1.9-0.8c-3.4-4.3-6.9-8.7-10.3-13c-0.6-0.7-2-0.2-1.9,0.8 c1.6,12.7,3.3,25.5,4.9,38.2c0.7-0.2,1.4-0.4,2.1-0.6c-3.8-8.9-7.5-17.8-11.3-26.7c-0.5-1.2-2.3-0.3-2,0.9 c3.5,16.8,3.7,33.9,0.5,50.7c0.7,0.1,1.5,0.2,2.2,0.3c0.3-15.9-3.5-31.4-11-45.3c-0.6-1-2-0.5-2.1,0.6c-0.8,10.5,5.3,19,8.8,28.3 c4.1,11.2,2.9,23.6-2.8,33.9c0.6,0.4,1.3,0.8,1.9,1.1c2.7-5.1,1.9-10.9-1.9-15.2c-0.5-0.6-1.4-0.4-1.7,0.2 c-16.6,26.6-40.5,47.9-68.6,61.1c0.4,0.6,0.9,1.2,1.3,1.8c8.8-7.5,17.6-15.1,26.5-22.6c3.5-3,8.7-6.1,11.3-10 c1.5-2.3,1.2-4.4-0.5-6.4c-2.8-3.3-6.2-6-8.9-9.5c-3.1-4-5.7-8.4-7.9-13.1c-4.3-9.3-6.3-19.5-6.1-29.8c0-1.3-2-1.6-2.2-0.3 c-4.3,23.9,12.6,48.9,36.2,52.8c1.1,0.2,1.8-1,1.1-1.9c-7-8.2-12.7-17.6-16.6-27.8c-4.1-10.9-7.5-23.5-0.3-33.8 c6.3-9.1,14.6-17.3,22.3-25.2c8-8.1,16.3-15.8,24.9-23.1c0.4-0.3,0.4-1,0.2-1.4c-2.7-4.3-7.4-6.7-12.4-5.9 c-6.6,1.1-10.3,8.2-14.3,13c-10.9,13.3-23.2,25.2-35.7,36.9c-1.3,1.2-3.2,3.8-4.8,4.5c-2.1,0.9-4.3-0.1-6.4-0.6 c-4.2-1-8.3-2.2-12.4-3.6c-8.1-2.6-16.1-5.8-23.9-9.2c-15.9-7.1-31.1-15.5-46.3-23.9c-1.3-0.7-2.4,1.3-1.1,2 c20,11.2,39.6,23,59,35.2c0.4-0.7,0.7-1.3,1.1-2c-13.3-6.7-28.4-7.8-42.5-2.9c-0.7,0.3-1.2,1.3-0.5,1.9 c25.5,22.7,40.1,56.6,39.3,91.2c0.5-0.4,0.9-0.7,1.4-1.1c-20.9-7.9-44-7-64.3,2.4c0.5,0.5,1,1,1.5,1.6c5.2-8.9,13-15.5,22.5-19.1 c1.3-0.5,0.8-2.6-0.6-2.2c-11.1,3.2-21.4,8.3-30.7,15.3c0.4,0.6,0.9,1.2,1.3,1.8c11.2-10.8,22.4-21.6,33.6-32.4 c0.9-0.9-0.3-2.6-1.3-1.8c-8.2,6.4-16.8,12.2-25.8,17.3c0.5,0.5,1,1,1.5,1.6c7.1-10.3,15.6-19.4,25.3-27.1 c0.9-0.7-0.1-2.3-1.1-1.9c-11,4.6-19.5,13.3-23.9,24.6c-0.5,1.2,1.5,2,2,0.9c7.8-15.1,15.6-30.2,23.4-45.3 c0.7-1.3-1.1-2.4-1.9-1.1c-13.8,21.5-27.7,42.9-41.5,64.4c0.6,0.4,1.3,0.8,1.9,1.1c14.4-27.3,26.4-55.9,35.7-85.5 c0.2-0.7-0.4-1.4-1.1-1.4c-11.5-0.8-22.9,0.5-33.9,4.1c0.4,0.6,0.7,1.3,1.1,1.9c9.4-7.5,21.8-9.4,33-5.2c1.2,0.5,1.9-1.5,0.9-2.1 c-12.2-7.1-24.7-13.8-37.3-20.1c-4.9-2.4-10.4-6-16-6.5c-4.9-0.4-8.9,2.3-12.2,5.7c-9.2,9.4-14.4,22.1-23.8,31.3 c-4.6,4.5-10.1,8.3-16.4,9.5c-7.6,1.5-14.9-1.5-21.5-5.2c-12.4-6.9-22.5-17.1-29.7-29.5c-0.6,0.5-1.2,0.9-1.7,1.4 c8.6,9.7,17.9,19.8,29.9,25.1c11.4,5,23.7,4,34.7-1.7c12.3-6.5,21.2-17.7,28.5-29.4c1.9-3.1,3.6-6.5,5.7-9.4 c1.3-1.8,1.6-2.3,3.9-2.3c1.9,0,3.7,0.2,5.5,0.6c7.5,1.6,14,5.9,18.5,12.2c0.5,0.7,1.9,0.8,2-0.3c2.3-13.7,5.8-27.2,10.6-40.3 c2.5-6.8,5.3-13.5,8.5-20c2.6-5.4,7.3-16.8,15-13.9c-0.3-0.5-0.5-0.9-0.8-1.4c-6.8,17.3-10.7,35.5-11.7,54.1 c0,0.5,0.4,0.9,0.8,1.1c12.6,5.2,25.1,10.5,37.7,15.7c6.3,2.6,12.6,5.2,18.9,7.8c5.4,2.2,11.3,5.6,17.1,6.4 c5.1,0.6,8.9-2.3,12.8-5.3c5.7-4.3,11.4-8.6,17-12.9c10.9-8.3,21.8-16.5,32.6-24.8c0.5-0.4,0.8-1.3,0.2-1.8 c-10.1-9.2-22.9-13.8-33.8-21.7c-10.8-7.8-21-23.2-13.6-36.7c-0.7-0.2-1.4-0.4-2.1-0.6c-1.7,28.6,18.1,56,45.2,62.8 c0-0.7,0-1.5,0-2.2c-25.9,6.8-52.7,4.6-78.8,0.3c-11.1-1.8-24.8-3.5-32-13.5c-2.5-3.4-6.1-11.4-3.3-15.6c1.1-1.7,1.4-1.1,3.2-0.4 c1.3,0.5,2.6,1,3.9,1.6c2.5,1,4.9,2,7.6,2.6c1,0.2,1.9-1.1,1.1-1.9c-2.6-2.6-4.8-5.5-7.3-8.1c-1-1-2.5,0.5-1.6,1.6 c10.5,11.6,28,3.1,38-4.7c10.1-7.9,24.5-18.8,22.4-33.5c-0.7,0.2-1.4,0.4-2.1,0.6c1.7,4.6,4,8.6,7.2,12.2c0.8,0.9,2-0.1,1.9-1.1 c-0.8-6-2.8-11.5-6.1-16.5c-0.6,0.5-1.2,0.9-1.7,1.4c1.9,1.9,3.9,3.1,6.4,3.8c0.4,0.1,0.8,0,1.1-0.3c3.6-4.3,5.9-9.6,7.2-15.1 c1.1-4.3,2.2-10.1,0.2-14.3c-1-2.3-3.8-4.4-6.3-2.9c-2.1,1.2-4.5,5.7-5.5,7.8c-1.4,2.9-2,6.1-2.4,9.3c0.7,0,1.5,0,2.2,0 c-0.4-5.3-2.9-9.5-7.2-12.3C876,167.3,874.9,169.3,876.1,170.1L876.1,170.1z"></path> </g> <g> <path class="st0" d="M877.9,169.9c-3.6-1.8-7.9-1.9-11.4,0.4c-4.5,3-6.4,9.2-10.2,13c-9.6,9.5-27,11-33.6-3c-0.4-1-1.7-0.6-2,0.3 c-3.8,10.8-19.6,19.8-29.1,10.2c-3.1-3.1-2.9-6.4-0.5-9.7c0.8-1.2,1.4-2,1.5-3.5c0.3-3.4-1.2-7.5-2.8-10.4 c-0.7-1.3-2.6-0.1-1.9,1.1c1.4,2.6,3.4,7.8,2,10.6c-1.2,2.4-3.1,3.5-3.1,6.5c0,5.1,4.6,9.1,9,10.6c11.1,3.9,23.3-4.2,27-14.8 c-0.7,0.1-1.4,0.2-2,0.3c4.5,9.6,15.7,13.6,25.4,10.7c5.3-1.6,9.9-5,13.5-9.2c4.7-5.5,7.9-15.7,17.1-11.1 C878,172.5,879.2,170.5,877.9,169.9L877.9,169.9z"></path> </g> <g> <g> <path class="st0" d="M365.7,261.9c-7.2-4.4-13.4-11.1-7.5-19.3c4.8-6.8,12.8-11.3,19.8-15.3c3.3-1.9,6.7-3.7,10-5.6 c2.4-1.4,4.7-3.3,7.2-4.6c0.3-0.1,0.7-0.9,1-0.9c-0.2,0,3.2,1.6,3.2,1.6c3.4,1.1,6.9,1.6,10.4,1.7c7.1,0.2,14.1-1.5,20.4-4.8 c0.3-0.2,0.5-0.6,0.6-1c0.1-16.2,0.2-32.4,0.3-48.6c0-0.8-1-1.4-1.7-1c-5.5,3.6-12.6,4.7-19.1,4.5c-2.7-0.1-6-0.3-8.4-1.8 c-1.7-1-2.3-1.8-0.3-2.8c2.9-1.4,7.3,0.2,10,1.3c0.3-0.7,0.6-1.4,0.9-2.1c-2.4-0.6-3.8-2.9-4.3-5.3c-0.4,0.5-0.7,1-1.1,1.4 c2.2-0.3,4.3,0.2,6.5,0.5c1.3,0.2,4.3-0.2,5.3,0.3c0.8,0.4,0.9-0.9,0.4,0.9c-0.3,1.3-1.4,1.4-2.5,1.6c-1.5,0.4-3.1,0.5-4.6,0.4 c-1.2-0.1-1.5,2.1-0.3,2.2c5.4,0.8,10.7,1,16.2,0.6c-0.4-0.4-0.7-0.8-1.1-1.1c0,5.2,0,10.4,0,15.6c0.6-0.3,1.1-0.7,1.7-1 c-9.9-7.1-24-5.4-32.1,3.8c-0.6,0.7-0.3,1.6,0.5,1.9c6.4,2.3,13.2,3.3,20,2.4c3.1-0.4,9.1-1.4,9.3-5.7c0.2-4.4-7-6.7-10.2-7.4 c-5.3-1.2-10.5-0.3-15.3,2.2c0.6,0.3,1.1,0.7,1.7,1c-0.2-2.3-0.4-4.7-0.6-7c-0.1-1.5-2-1.4-2.2,0c-0.9,7.3-1.8,14.6-2.7,21.9 c-0.5,3.8-0.9,7.6-1.4,11.4c-0.2,2-1,4.5-0.3,6.5c1.4,3.7,7.3,3.7,10.4,4.2c6.5,0.9,13.1,0.7,19.6-0.2c-0.5-0.4-0.9-0.7-1.4-1.1 c1.6,14,8.1,27,18.5,36.3c3.5,3.1,9.5,8.7,14.5,6.1c2.2-1.1,3.2-3.5,4.1-5.7c1.8-4.3,3.6-8.5,5.4-12.8c0.6-1.4-1-2.3-1.9-1.1 c-4.6,6.2-10.9,10.5-18.2,12.6c0.4,0.6,0.7,1.3,1.1,1.9c7.7-9.5,8.3-23.4,1-33.4c-0.6,0.5-1.2,0.9-1.7,1.4 c5.3,6.7,7,15.3,4.8,23.6c-0.3,1.3,1.4,2,2,0.9c5.6-9.3,5.2-21.1-1.1-30c-0.6,0.5-1.2,0.9-1.7,1.4c3.4,4,5.8,8.5,7.4,13.5 c0.4,1.3,2.1,1,2.2-0.3c0.7-7.8-1.3-15.2-5.9-21.5c-0.5,0.5-1,1-1.5,1.6c3.5,2,6.2,4.5,8.4,7.9c0.7,1,2.4,0.4,2-0.9 c-1.4-4.3-2.8-8.6-4.2-12.8c-0.5,0.4-1.1,0.9-1.6,1.3c1.5,0.7,2.9,1.4,4.4,2.2c0.7,0.3,1.8,0,1.7-1c-0.4-3.2-1.7-5.5-4.2-7.5 c-0.2,0.7-0.4,1.4-0.6,2.1c1.7,0.1,3.3,0.1,5,0.2c0.9,0,1.3-1,1-1.7c-0.9-2-1.8-4.1-2.7-6.1c-0.3,0.6-0.6,1.1-1,1.7 c3.3,0.2,5.8,1.7,7.6,4.5c0.8,1.2,2.5,0.2,1.9-1.1c-1.8-3.8-3.6-7.5-5.3-11.3c-0.5,0.5-1,1-1.5,1.6c2,0.9,4,1.8,5.9,2.7 c0.8,0.4,1.9-0.3,1.6-1.3c-1-3.8-2-7.6-3-11.3c-0.6,0.4-1.2,0.7-1.9,1.1c1.4,1.3,2.7,2.6,4.1,3.9c0.6,0.6,2,0.2,1.9-0.8 c-1-9.4,0.3-18.5,4.2-27.1c0.2-0.5,0.2-1.3-0.4-1.6c-3.3-1.7-5.4-5.6-7.2-8.7c-3.6-6.3-5.3-12.1-5.8-19.4 c-0.4-6.1-1.1-11.3-2.9-17.1c-2-6.2-2.1-12.9-0.7-19.3c2.8-12.2,15.6-17.8,27-18c5-0.1,10,0.6,15,1c4.7,0.3,10.1,0.2,13.6,4 c10.9,11.9,10.2,27.4,7.1,42.3c-0.2,0.9,0.5,1.6,1.4,1.4c1-0.3,1.9-0.5,2.8-1.2c1.3-1.1,0.8-1.5,1.1-0.7c0.6,1.4-0.8,4.6-1.3,5.9 c-1.7,5.1-4.3,10.5-8.1,14.3c0.6,0.3,1.3,0.5,1.9,0.8c-0.8-12.5-5.1-25.4-13.5-34.8c-8.8-9.8-21.4-7.6-32.6-3.8 c-11.3,3.9-12.4,15.2-12.2,25.9c0.1,5.4,0.8,11,3.1,15.9c2.6,5.6,7.9,9.1,10.3,14.8c1.7,4.2,4.6,9.5,9.7,9.9 c4.8,0.4,10.8-4.1,13.5-8c0.8-1.2-1.1-2.3-1.9-1.1c-1.6,2.3-5.1,4.9-7.7,6.1c-4.5,2.1-8.5-1.4-10.5-5.3c-1.2-2.4-1.7-4.6-3.3-6.8 c-1.3-1.8-2.9-3.4-4.4-5.1c-7.4-8.8-8-23.5-5.2-34.4c1.9-7.6,8-9.6,14.7-11.3c7-1.8,14.6-3.3,21,1c11.1,7.3,16.1,24.2,16.9,36.9 c0.1,1,1.2,1.5,1.9,0.8c4.7-4.8,8.3-12.1,9.6-18.8c0.3-1.5,0.9-3.9-0.2-5.2c-2.1-2.5-4.2,1.4-6.1,1.9c0.5,0.5,0.9,0.9,1.4,1.4 c1.7-8,2.7-16,1.8-24.2c-0.7-6.3-2.9-11.3-6.5-16.5c-3-4.3-5.6-6.8-10.8-7.7c-5.4-0.9-11.1-1.2-16.6-1.5 c-11.1-0.8-25.1,1.6-31.8,12c-3.3,5.1-4.1,11.8-4,17.8c0.1,7.8,3.7,14.7,4.3,22.4c0.6,8.2,1.1,15,5,22.3c2.2,4.2,5,9.7,9.4,12 c-0.1-0.5-0.3-1-0.4-1.6c-4,8.9-5.6,18.4-4.5,28.2c0.6-0.3,1.3-0.5,1.9-0.8c-1.4-1.3-2.7-2.6-4.1-3.9c-0.8-0.8-2.2,0-1.9,1.1 c1,3.8,2,7.6,3,11.3c0.5-0.4,1.1-0.9,1.6-1.3c-2-0.9-4-1.8-5.9-2.7c-1-0.5-2,0.5-1.5,1.6c1.8,3.8,3.6,7.5,5.3,11.3 c0.6-0.4,1.3-0.8,1.9-1.1c-2.3-3.5-5.4-5.4-9.5-5.7c-0.9-0.1-1.3,1-1,1.7c0.9,2,1.8,4.1,2.7,6.1c0.3-0.6,0.6-1.1,1-1.7 c-1.7-0.1-3.3-0.1-5-0.2c-1.2,0-1.4,1.5-0.6,2.1c1.9,1.3,2.9,3.2,3.1,5.5c0.6-0.3,1.1-0.7,1.7-1c-1.5-0.7-2.9-1.4-4.4-2.2 c-0.8-0.4-2,0.3-1.6,1.3c1.4,4.3,2.8,8.6,4.2,12.8c0.7-0.3,1.4-0.6,2-0.9c-2.4-3.7-5.4-6.6-9.2-8.7c-0.9-0.5-2.2,0.6-1.5,1.6 c4.4,6,6.3,12.9,5.6,20.4c0.7-0.1,1.5-0.2,2.2-0.3c-1.7-5.4-4.4-10.2-8-14.5c-0.8-1-2.5,0.3-1.7,1.4c5.8,8.2,6.3,19,1.1,27.7 c0.7,0.3,1.4,0.6,2,0.9c2.4-9.2,0.4-18.4-5.4-25.8c-0.8-1-2.5,0.3-1.7,1.4c6.6,9.1,6.5,21.9-0.6,30.6c-0.7,0.8-0.1,2.2,1.1,1.9 c8-2.3,14.6-6.9,19.6-13.6c-0.6-0.4-1.3-0.8-1.9-1.1c-1.3,3-2.5,6-3.8,9c-1.3,3-1.9,5.9-4.6,7.8c-2.5,1.8-3.9,1-6.5-0.5 c-0.9-0.6-1.8-1.2-2.7-1.9c-2.4-1.9-4.7-3.9-6.7-6.2c-7.8-8.5-12.7-19.4-14-30.9c-0.1-0.8-0.6-1.2-1.4-1.1 c-5.2,0.7-10.5,0.9-15.8,0.4c-2.6-0.2-6.8-0.3-9.3-1.5c-3.4-1.8-2.2-5.1-1.8-8.2c1.3-10.8,2.6-21.7,4-32.5c-0.7,0-1.5,0-2.2,0 c0.2,2.3,0.4,4.7,0.6,7c0.1,0.9,0.9,1.4,1.7,1c3.5-1.8,7.3-2.7,11.2-2.3c1.7,0.2,3.4,0.5,5,1.1c2.4,0.8,7.9,4.4,2.2,7.3 c-2.9,1.4-7.8,1.1-11,0.9c-4.1-0.3-7.9-1.2-11.7-2.6c0.2,0.6,0.3,1.3,0.5,1.9c7.5-8.5,20.3-10,29.4-3.4c0.7,0.5,1.7-0.2,1.7-1 c0-5.2,0-10.4,0-15.6c0-0.6-0.5-1.2-1.1-1.1c-5.2,0.4-10.4,0.2-15.6-0.5c-0.1,0.7-0.2,1.5-0.3,2.2c3.8,0.2,13-1.5,8.8-7.1 c-0.3-0.4-0.7-0.6-1.3-0.5c-4.3,0.8-8.4-1.2-12.7-0.7c-0.7,0.1-1.3,0.7-1.1,1.4c0.8,3.2,2.7,6,5.9,6.8c1.2,0.3,2.1-1.6,0.9-2.1 c-4.8-2.1-9.7-2.9-14.4-0.3c-0.3,0.2-0.6,0.6-0.6,1c0.2,5.4,7.1,6.5,11.1,6.8c7.2,0.5,15.5-0.7,21.6-4.7c-0.6-0.3-1.1-0.7-1.7-1 c-0.1,14.1-0.1,28.2-0.2,42.3c0,1.2,0.4,3.4,0,4.5c-0.9,2.1-2.6,2.4-4.6,3.1c-3.1,1.1-6.4,1.8-9.8,2.1 c-6.3,0.5-12.6-0.6-18.4-3.1c-0.3-0.1-0.9,0-1.1,0.3c-3.3,3.9-9.4,6.2-13.7,8.6c-6.5,3.6-13,7.3-18.7,12.1c-4.1,3.4-8.8,8.2-9,14 c-0.2,6.9,6,11.6,11.2,14.7C365.8,264.6,366.9,262.7,365.7,261.9L365.7,261.9z"></path> </g> <g> <path class="st0" d="M498.2,158.2c6.2-6.6,12.4-13.3,18.6-19.9c-0.6-0.3-1.3-0.5-1.9-0.8c0.8,12.3,15.2,17.1,23.4,23.5 c12.1,9.4,21.1,22.3,26.3,36.9c0.4,1.1,2.2,1.1,2.2-0.3c-0.2-5-3.1-8.9-5.7-12.9c-3-4.7-5.8-9.5-9.2-13.9 c-5.3-7-12.4-11.5-21.1-12.4c-7.8-0.8-16,1.3-22.2,6.3c-3.9,3.2-6.7,9-11.7,10.7c-7.5,2.6-13.3-6-15.1-12.2 c-0.4-1.2-2.1-1-2.2,0.3c-0.3,7.9,5.1,15.6,13,16.9c7.6,1.2,14.7-3.7,17.3-10.8c0.4-1.2-1.4-2-2-0.9c-4.9,9.1-4.9,19.4-3.9,29.5 c0.8,9.2,1.8,18.1,1.5,27.3c-0.7,18.2-3,36.3-5.6,54.3c-0.2,1.4,1.6,2,2.1,0.6c4.6-11.9,7.2-24.6,9.5-37.1 c2.2-12.2,3.9-24.7,4.4-37.1c-0.7,0.1-1.5,0.2-2.2,0.3c3,11.7,2.4,23.5,2.3,35.5c0,1.1,1.6,1.7,2.1,0.6c4.2-10,8.5-19.8,7.6-31 c-0.7,0.1-1.5,0.2-2.2,0.3c1.7,5.6,2.4,11.3,2.2,17.2c0,1.3,1.9,1.6,2.2,0.3c1.7-7.2,3.3-14.4,5-21.6c-0.5,0.2-1.1,0.5-1.6,0.7 c2.5,1.1,4.2,3.4,3.8,6.5c-0.1,0.9,0.7,1.9,1.6,1.3c3.8-2.5,5.8-6.2,5.7-10.8c-0.6,0.3-1.1,0.7-1.7,1c1.7,1.3,3,2.8,4.1,4.7 c0.5,0.8,1.4,0.7,1.9,0c1.8-2.7,2.5-5.3,2.1-8.6c-0.5,0.4-0.9,0.7-1.4,1.1c2.5,0.9,4.5,2.1,6.5,3.9c0.9,0.8,2,0,1.9-1.1 c-0.3-2.2-0.6-4.5-1-6.7c-0.5,0.5-0.9,0.9-1.4,1.4c4.8,1.2,9.2,9.4,11.9,13c2.8,3.7,5.5,8.5,9.3,11.2c0.8,0.6,1.8-0.4,1.6-1.3 c-2.1-9.2-7.4-17.4-9.6-26.6c-0.3-1.4-2.5-0.8-2.1,0.6c2.1,9.2,7.4,17.4,9.6,26.6c0.5-0.4,1.1-0.9,1.6-1.3 c-4.7-3.3-7.9-9.7-11.4-14.3c-2.5-3.4-5.9-9.1-10.3-10.2c-0.9-0.2-1.5,0.6-1.4,1.4c0.3,2.2,0.6,4.5,1,6.7 c0.6-0.4,1.2-0.7,1.9-1.1c-2.3-2-4.7-3.5-7.5-4.5c-0.6-0.2-1.5,0.4-1.4,1.1c0.3,2.8-0.2,5.1-1.8,7.4c0.6,0,1.3,0,1.9,0 c-1.3-2.3-2.8-3.9-4.9-5.5c-0.7-0.5-1.7,0.2-1.7,1c0.1,3.8-1.5,6.8-4.6,8.8c0.5,0.4,1.1,0.9,1.6,1.3c0.5-4-1.1-7.4-4.8-9 c-0.6-0.3-1.5-0.1-1.6,0.7c-1.7,7.2-3.3,14.4-5,21.6c0.7,0.1,1.5,0.2,2.2,0.3c0.2-6.1-0.5-12-2.3-17.8c-0.3-1.2-2.3-1-2.2,0.3 c0.8,10.8-3.2,20.2-7.3,29.9c0.7,0.2,1.4,0.4,2.1,0.6c0.1-12.2,0.6-24.2-2.4-36.1c-0.3-1.3-2.1-1-2.2,0.3 c-0.5,12.7-2.3,25.4-4.6,37.9c-2.2,12.1-4.8,24.3-9.2,35.8c0.7,0.2,1.4,0.4,2.1,0.6c2.4-17,4.6-34.1,5.5-51.2 c0.4-8.4,0.2-16.5-0.7-24.8c-1.2-11.6-2.7-23.8,3-34.4c-0.7-0.3-1.4-0.6-2-0.9c-2.3,6.3-9.2,10.6-15.8,9 c-6.3-1.6-10.3-7.9-10.1-14.4c-0.7,0.1-1.5,0.2-2.2,0.3c2.1,7.1,8.1,15.5,16.3,14.2c3.8-0.6,6.5-3.4,8.9-6.2 c3.5-4,7.1-7.4,12-9.3c9.3-3.6,20.6-2.3,28.3,4.4c4.3,3.7,7.3,8.6,10.3,13.4c3.2,5,8.8,11.2,9,17.4c0.7-0.1,1.5-0.2,2.2-0.3 c-4.4-12.5-11.6-23.8-21.1-32.9c-4.6-4.4-9.7-8-15-11.3c-5.8-3.6-13-7.8-13.5-15.5c-0.1-0.9-1.2-1.6-1.9-0.8 c-6.2,6.6-12.4,13.3-18.6,19.9C495.6,157.7,497.2,159.3,498.2,158.2L498.2,158.2z"></path> </g> </g> <g> <path class="st0" d="M165.5,270.5c5.7,2.5,11.7,4.5,17.7,6.1c2.3,0.6,3.4,1.1,5.3-0.2c5.5-3.6,10-9.8,14.6-14.3 c8.3-8,16.9-15.8,26.5-22.4c9.4-6.5,20.3-12.5,32-12.6c1.6,0,1.6-2.5,0-2.5c-20.8,0.3-39.5,16.5-53.9,29.8 c-6.2,5.7-12,11.8-18,17.6c-0.7,0.7-1.5,1.7-2.4,2.2c-1.2,0.7-0.3,0.5-1.8,0.3c-6.1-0.5-13.3-3.9-18.8-6.3 C165.3,267.7,164.1,269.9,165.5,270.5L165.5,270.5z"></path> </g> </g> </svg> 