<?xml version="1.0" encoding="UTF-8"?> <!-- Generator: Adobe Illustrator 24.0.0, SVG Export Plug-In . SVG Version: 6.00 Build 0) --> <svg xmlns="http://www.w3.org/2000/svg" xmlns:xlink="http://www.w3.org/1999/xlink" id="Capa_1" x="0px" y="0px" width="463px" height="463px" viewBox="0 0 463 463" style="enable-background:new 0 0 463 463;" xml:space="preserve"> <style type="text/css"> .st0{fill:#FFFFFF;} </style> <path class="st0" d="M433.3,373.7h-14.8V359c0-5.3-3.1-9.9-7.5-12.2c0.2-0.6,0.3-1.3,0.3-2V187.8h14.8c2.4,0,4.8-1.3,5.9-3.5 c1.2-2.1,1.1-4.7-0.3-6.8L367,78c-1.3-1.9-3.4-3-5.7-3H102.6c-2.3,0-4.4,1.2-5.7,3l-64.7,99.6c-1.3,2-1.4,4.6-0.3,6.8 c1.2,2.1,3.4,3.5,5.9,3.5h14.8v156.9c0,0.7,0.1,1.3,0.3,2c-4.5,2.3-7.5,6.9-7.5,12.2v14.7H30.7c-3.7,0-6.7,3-6.7,6.7 c0,3.6,3.1,6.7,6.7,6.7h402.5c3.7,0,6.7-3,6.7-6.7C440,376.7,436.9,373.7,433.3,373.7z M353.7,345.2v-57.8H369v57.8H353.7z M325,345.2v-57.8h15.3v57.8H325z M296.2,345.2v-57.8h15.3v57.8H296.2z M181.2,345.2V226.6l39.2-38.8h23.2l39.2,38.8v118.6H181.2z M152.5,345.2v-57.8h15.3v57.8H152.5z M123.7,345.2v-57.8H139v57.8H123.7z M95,345.2v-57.8h15.3v57.8H95z M66.2,345.2 c0-0.2,0-0.3,0-0.4v-57.3h15.3v57.8H66.2z M128.6,187.8l39.2,38.8v47.5H66.2v-47.5l39.2-38.8H128.6z M273.7,88.2l21.6,86.2H168.7 l21.6-86.2H273.7z M358.6,187.8l39.2,38.8v47.5H296.2v-47.5l39.2-38.8H358.6z M262.6,187.8h20.1v19.9L262.6,187.8z M296.2,207.7 v-19.9h20.1L296.2,207.7z M181.2,207.7v-19.9h20.1L181.2,207.7z M167.8,187.8v19.9l-20.1-19.9H167.8z M382.5,287.4h15.3v57.3 c0,0.2,0,0.3,0,0.4h-15.3V287.4z M397.8,207.7l-20.1-19.9h20.1V207.7z M413.8,174.5H309.2l-21.6-86.2h70.1L413.8,174.5z M106.3,88.2 h70.1l-21.6,86.2H50.2L106.3,88.2z M86.4,187.8l-20.1,19.9v-19.9H86.4z M59,359c0-0.3,0.2-0.4,0.4-0.4h345c0.3,0,0.4,0.2,0.4,0.4 v14.7H59V359z"></path> </svg> 