<?xml version="1.0" encoding="UTF-8"?> <!-- Generator: Adobe Illustrator 24.0.0, SVG Export Plug-In . SVG Version: 6.00 Build 0) --> <svg xmlns="http://www.w3.org/2000/svg" xmlns:xlink="http://www.w3.org/1999/xlink" id="Слой_1" x="0px" y="0px" viewBox="0 0 1293 755" style="enable-background:new 0 0 1293 755;" xml:space="preserve"> <style type="text/css"> .st0{display:none;fill:#FFFFFF;} .st1{display:none;fill:#050505;stroke:#9E005D;stroke-miterlimit:10;} .st2{opacity:0.3;} .st3{fill:none;stroke:#9E005D;} .st4{display:none;fill:none;stroke:#9E005D;} </style> <rect class="st0" width="1293" height="755"></rect> <g> <rect x="-3.1" y="-0.7" class="st1" width="1293" height="755"></rect> <g class="st2"> <line class="st3" x1="-3.1" y1="514.1" x2="1289.9" y2="514.1"></line> <line class="st3" x1="-3.1" y1="166" x2="1289.9" y2="166"></line> <line class="st3" x1="-3.1" y1="563.9" x2="1289.9" y2="563.9"></line> <line class="st3" x1="-3.1" y1="215.7" x2="1289.9" y2="215.7"></line> <line class="st3" x1="-3.1" y1="613.6" x2="1289.9" y2="613.6"></line> <line class="st3" x1="-3.1" y1="265.5" x2="1289.9" y2="265.5"></line> <line class="st3" x1="-3.1" y1="464.4" x2="1289.9" y2="464.4"></line> <line class="st3" x1="-3.1" y1="116.3" x2="1289.9" y2="116.3"></line> <line class="st3" x1="-3.1" y1="663.3" x2="1289.9" y2="663.3"></line> <line class="st3" x1="-3.1" y1="315.2" x2="1289.9" y2="315.2"></line> <line class="st3" x1="-3.1" y1="713.1" x2="1289.9" y2="713.1"></line> <line class="st3" x1="-3.1" y1="364.9" x2="1289.9" y2="364.9"></line> <line class="st3" x1="-3.1" y1="414.7" x2="1289.9" y2="414.7"></line> <line class="st3" x1="-3.1" y1="66.6" x2="1289.9" y2="66.6"></line> <line class="st3" x1="444" y1="754.6" x2="444" y2="-0.7"></line> <line class="st3" x1="95.9" y1="754.6" x2="95.9" y2="-0.7"></line> <line class="st3" x1="493.7" y1="754.6" x2="493.7" y2="-0.7"></line> <line class="st3" x1="145.6" y1="754.6" x2="145.6" y2="-0.7"></line> <line class="st3" x1="543.4" y1="754.6" x2="543.4" y2="-0.7"></line> <line class="st3" x1="195.3" y1="754.6" x2="195.3" y2="-0.7"></line> <line class="st3" x1="394.2" y1="754.6" x2="394.2" y2="-0.7"></line> <line class="st3" x1="46.1" y1="754.6" x2="46.1" y2="-0.7"></line> <line class="st3" x1="593.2" y1="754.6" x2="593.2" y2="-0.7"></line> <line class="st3" x1="245.1" y1="754.6" x2="245.1" y2="-0.7"></line> <line class="st3" x1="642.9" y1="754.6" x2="642.9" y2="-0.7"></line> <line class="st3" x1="294.8" y1="754.6" x2="294.8" y2="-0.7"></line> <line class="st3" x1="344.5" y1="754.6" x2="344.5" y2="-0.7"></line> <line class="st3" x1="1090.5" y1="754.6" x2="1090.5" y2="-0.7"></line> <line class="st3" x1="742.4" y1="754.6" x2="742.4" y2="-0.7"></line> <line class="st3" x1="1140.2" y1="754.6" x2="1140.2" y2="-0.7"></line> <line class="st3" x1="792.1" y1="754.6" x2="792.1" y2="-0.7"></line> <line class="st3" x1="1189.9" y1="754.6" x2="1189.9" y2="-0.7"></line> <line class="st3" x1="841.8" y1="754.6" x2="841.8" y2="-0.7"></line> <line class="st3" x1="1040.7" y1="754.6" x2="1040.7" y2="-0.7"></line> <line class="st3" x1="692.6" y1="754.6" x2="692.6" y2="-0.7"></line> <line class="st3" x1="1239.7" y1="754.6" x2="1239.7" y2="-0.7"></line> <line class="st3" x1="891.6" y1="754.6" x2="891.6" y2="-0.7"></line> <line class="st3" x1="1289.4" y1="754.6" x2="1289.4" y2="-0.7"></line> <line class="st3" x1="941.3" y1="754.6" x2="941.3" y2="-0.7"></line> <line class="st3" x1="991" y1="754.6" x2="991" y2="-0.7"></line> <line class="st4" x1="642.9" y1="754.6" x2="642.9" y2="-0.7"></line> </g> </g> </svg> 