<?xml version="1.0" encoding="UTF-8"?> <!-- Generator: Adobe Illustrator 24.0.0, SVG Export Plug-In . SVG Version: 6.00 Build 0) --> <svg xmlns="http://www.w3.org/2000/svg" xmlns:xlink="http://www.w3.org/1999/xlink" id="Capa_1" x="0px" y="0px" width="565px" height="571.1px" viewBox="0 0 565 571.1" style="enable-background:new 0 0 565 571.1;" xml:space="preserve"> <style type="text/css"> .st0{display:none;fill:#FFFFFF;} .st1{fill:#FFFFFF;} </style> <g> <path class="st0" d="M76.1,285.4c0,13.3,10.8,24.1,24.1,24.1s24.1-10.8,24.1-24.1c0-13.3-10.8-24.1-24.1-24.1 S76.1,272.1,76.1,285.4z M100.2,276.3c5,0,9.1,4.1,9.1,9.1s-4.1,9.1-9.1,9.1s-9.1-4.1-9.1-9.1S95.2,276.3,100.2,276.3z"></path> <path class="st0" d="M464.6,309.5c13.3,0,24.1-10.8,24.1-24.1s-10.8-24.1-24.1-24.1s-24.1,10.8-24.1,24.1 C440.6,298.7,451.4,309.5,464.6,309.5z M464.6,276.3c5,0,9.1,4.1,9.1,9.1s-4.1,9.1-9.1,9.1s-9.1-4.1-9.1-9.1 S459.6,276.3,464.6,276.3z"></path> <path class="st0" d="M50.5,94.1h9.1v9.1c0,4.1,3.4,7.5,7.5,7.5s7.5-3.4,7.5-7.5v-9.1h9.1c4.1,0,7.5-3.4,7.5-7.5s-3.4-7.5-7.5-7.5 h-9.1V70c0-4.1-3.4-7.5-7.5-7.5s-7.5,3.4-7.5,7.5v9.1h-9.1c-4.1,0-7.5,3.4-7.5,7.5S46.3,94.1,50.5,94.1z"></path> <path class="st0" d="M481.2,94.1h9.1v9.1c0,4.1,3.4,7.5,7.5,7.5s7.5-3.4,7.5-7.5v-9.1h9.1c4.1,0,7.5-3.4,7.5-7.5s-3.4-7.5-7.5-7.5 h-9.1V70c0-4.1-3.4-7.5-7.5-7.5s-7.5,3.4-7.5,7.5v9.1h-9.1c-4.1,0-7.5,3.4-7.5,7.5S477.1,94.1,481.2,94.1z"></path> <path class="st1" d="M310.4,260.2c2.1-3.6,0.9-8.2-2.7-10.2c-3.6-2.1-8.2-0.9-10.2,2.7c-3.1,5.4-8.9,8.7-15,8.7 c-6.2,0-11.9-3.3-15-8.7c-2.1-3.6-6.7-4.8-10.2-2.7c-3.6,2.1-4.8,6.7-2.7,10.2c5.8,10,16.5,16.2,28,16.2 C293.9,276.3,304.6,270.1,310.4,260.2L310.4,260.2z"></path> <path class="st1" d="M522.6,493.3h-17.4v-42.2c0-13.3-10.8-24.1-24.1-24.1H472v-9.1c0-13.3-10.8-24.1-24.1-24.1h-9.4 c-3.8-37.2-35.2-66.3-73.4-66.3h-42.2v-11.1c27.3-13.8,46.7-41.2,49.4-73.2h26.5c13,0,23.5-10.5,23.5-23.5v-67.4 c0-10.5-7-19.5-16.6-22.5v-10.1c0-49.8-40.5-90.3-90.3-90.3h-66.3c-17.2,0-34,4.9-48.5,14.1c-3.5,2.2-4.5,6.9-2.3,10.4 s6.9,4.5,10.4,2.3c12.1-7.7,26-11.7,40.4-11.7h66.3c41.5,0,75.3,33.8,75.3,75.3v9.1h-18.1v-9.1c0-31.5-25.7-57.2-57.2-57.2h-66.3 c-31.5,0-57.2,25.7-57.2,57.2v9.1h-18.1v-9.1c0-16.4,5.2-32,14.9-45c2.5-3.3,1.8-8-1.5-10.5c-3.3-2.5-8-1.8-10.5,1.5 c-10.1,13.6-16.1,29.6-17.5,46.4h-42.5c-13.3,0-24.1,10.8-24.1,24.1c0,13.3,10.9,24.1,24.1,24.1h25.7v59.3 c0,13,10.5,23.5,23.5,23.5h26.5c2.6,32,22,59.3,49.4,73.2v11.2h-42.2c-38.1,0-69.6,29.1-73.4,66.3h-9.4 c-13.3,0-24.1,10.8-24.1,24.1v9.1h-9.1c-13.3,0-24.1,10.8-24.1,24.1v42.2H42.2c-8.7,0-15.8,7.1-15.8,15.8v16.6 c0,8.7,7.1,15.8,15.8,15.8h43c4.1,0,7.5-3.4,7.5-7.5c0-4.1-3.4-7.5-7.5-7.5h-43c-0.4,0-0.8-0.4-0.8-0.8v-16.6 c0-0.4,0.4-0.8,0.8-0.8h100.2v18h-27.2c-4.1,0-7.5,3.4-7.5,7.5c0,4.1,3.4,7.5,7.5,7.5h407.5c8.7,0,15.8-7.1,15.8-15.8V509 C538.4,500.3,531.3,493.3,522.6,493.3L522.6,493.3z M490.3,451.1v42.2H356.2V442h125C486.2,442,490.3,446.1,490.3,451.1 L490.3,451.1z M223.6,493.3V442h117.5v51.3H223.6L223.6,493.3z M457.1,417.9v9.1h-51.3v-9.1c0-5,4.1-9.1,9.1-9.1H448 C453.1,408.9,457.1,412.9,457.1,417.9z M207.1,160.4h150.7v51.3h-43.6c-2.4,0-4.7-0.9-6.4-2.7l-8.3-8.3c-4.7-4.7-10.9-7-17-7 s-12.3,2.3-17,7l-8.3,8.3c-1.7,1.7-4,2.7-6.4,2.7h-43.6L207.1,160.4L207.1,160.4z M291.5,145.4h-18.1v-9.1c0-5,4.1-9.1,9.1-9.1 s9.1,4.1,9.1,9.1L291.5,145.4z M407.4,219.7c0,4.7-3.8,8.5-8.5,8.5h-26.2v-75.3v-9.1h26.2c4.7,0,8.5,3.8,8.5,8.5V219.7z M207.1,119.7c0-23.3,18.9-42.2,42.2-42.2h66.3c23.3,0,42.2,18.9,42.2,42.2v25.7h-51.3v-9.1c0-13.3-10.8-24.1-24.1-24.1 s-24.1,10.8-24.1,24.1v9.1H207L207.1,119.7L207.1,119.7z M107.7,136.3c0-5,4.1-9.1,9.1-9.1H159v2.6c-7.4,2.3-13.2,8.1-15.5,15.5 h-26.8C111.7,145.4,107.7,141.3,107.7,136.3z M157.4,219.7v-67.4c0-4.7,3.8-8.5,8.5-8.5h26.2v9.1v75.3h-26.2 C161.2,228.2,157.4,224.4,157.4,219.7z M207.1,235.7v-9.1h43.6c6.4,0,12.5-2.5,17-7l8.3-8.3c1.7-1.7,4-2.7,6.4-2.7s4.7,0.9,6.4,2.7 l8.3,8.3c4.5,4.5,10.6,7.1,17,7.1h43.6v9.1c0,41.5-33.8,75.3-75.3,75.3S207.1,277.2,207.1,235.7L207.1,235.7z M282.4,326 c8.9,0,17.5-1.3,25.6-3.7v12.8c0,14.1-11.5,25.6-25.6,25.6s-25.6-11.5-25.6-25.6v-12.8C264.9,324.7,273.5,326,282.4,326L282.4,326z M199.6,342.6h42.9c3.5,18.8,20.1,33.1,39.9,33.1s36.4-14.3,39.9-33.1h42.9c29.9,0,54.6,22.4,58.3,51.3h-8.6 c-13.3,0-24.1,10.8-24.1,24.1v9.1h-101v-0.8c0-4.1-3.4-7.5-7.5-7.5s-7.5,3.4-7.5,7.5v0.8h-18.1v-0.8c0-4.1-3.4-7.5-7.5-7.5 s-7.5,3.4-7.5,7.5v0.8h-67.8V418c0-13.3-10.8-24.1-24.1-24.1h-8.6C145,365,169.7,342.6,199.6,342.6L199.6,342.6z M107.7,417.9 c0-5,4.1-9.1,9.1-9.1h33.1c5,0,9.1,4.1,9.1,9.1v9.1h-51.3V417.9z M74.5,451.1c0-5,4.1-9.1,9.1-9.1h125v51.3h-19.2 c-3-9.6-11.9-16.6-22.5-16.6h-1.1c-10.5,0-19.5,7-22.5,16.6H74.5V451.1z M157.4,500.2c0-4.7,3.8-8.5,8.5-8.5h1.1 c4.7,0,8.5,3.8,8.5,8.5v26.2h-18.1V500.2z M523.4,525.6c0,0.4-0.4,0.8-0.8,0.8H190.5v-18.1h332.1c0.4,0,0.8,0.4,0.8,0.8V525.6z"></path> </g> </svg> 