<?xml version="1.0" encoding="UTF-8"?> <!-- Generator: Adobe Illustrator 24.0.0, SVG Export Plug-In . SVG Version: 6.00 Build 0) --> <svg xmlns="http://www.w3.org/2000/svg" xmlns:xlink="http://www.w3.org/1999/xlink" id="artwork" x="0px" y="0px" width="155px" height="60px" viewBox="0 0 155 60" style="enable-background:new 0 0 155 60;" xml:space="preserve"> <style type="text/css"> .st0{display:none;fill:#FFFFFF;fill-opacity:0;} .st1{display:none;} .st2{display:inline;fill:#FFFFFF;} .st3{display:inline;} .st4{fill:#FFFFFF;} .st5{display:inline;fill:#FFFFFF;stroke:#FFFFFF;stroke-width:0.2;stroke-miterlimit:10;} .st6{opacity:0.2;fill:#FFFFFF;enable-background:new ;} .st7{opacity:0.12;fill:#FFFFFF;enable-background:new ;} .st8{display:inline;opacity:0.12;fill:#FFFFFF;enable-background:new ;} .st9{display:inline;opacity:0.25;fill:#FFFFFF;enable-background:new ;} </style> <g> <rect class="st0" width="155" height="60"></rect> <g class="st1"> <path class="st2" d="M140,50H15c-2.8,0-5-2.2-5-5V15c0-2.8,2.2-5,5-5h125c2.8,0,5,2.2,5,5v30C145,47.7,142.8,50,140,50z"></path> </g> <g class="st1"> <g class="st3"> <path class="st4" d="M140,10.8c2.3,0,4.2,1.9,4.2,4.2v30c0,2.3-1.9,4.2-4.2,4.2H15c-2.3,0-4.2-1.9-4.2-4.2V15 c0-2.3,1.9-4.2,4.2-4.2H140 M140,10H15c-2.8,0-5,2.2-5,5v30c0,2.8,2.2,5,5,5h125c2.8,0,5-2.2,5-5V15C145,12.3,142.8,10,140,10 L140,10z"></path> </g> </g> <g class="st1"> <path class="st5" d="M57.4,20.2c0,0.8-0.2,1.5-0.7,2c-0.6,0.6-1.3,0.9-2.2,0.9c-0.9,0-1.6-0.3-2.2-0.9c-0.6-0.6-0.9-1.3-0.9-2.2 c0-0.9,0.3-1.6,0.9-2.2c0.6-0.6,1.3-0.9,2.2-0.9c0.4,0,0.8,0.1,1.2,0.3c0.4,0.2,0.7,0.4,0.9,0.7l-0.5,0.5 c-0.4-0.5-0.9-0.7-1.6-0.7c-0.6,0-1.2,0.2-1.6,0.7c-0.5,0.4-0.7,1-0.7,1.7s0.2,1.3,0.7,1.7c0.5,0.4,1,0.7,1.6,0.7 c0.7,0,1.2-0.2,1.7-0.7c0.3-0.3,0.5-0.7,0.5-1.2h-2.2v-0.7h2.9C57.4,19.9,57.4,20.1,57.4,20.2z"></path> <path class="st5" d="M62,17.7h-2.7v1.9h2.5v0.7h-2.5v1.9H62V23h-3.5v-6H62V17.7z"></path> <path class="st5" d="M65.3,23h-0.8v-5.3h-1.7V17H67v0.7h-1.7V23z"></path> <path class="st5" d="M69.9,23v-6h0.8v6H69.9z"></path> <path class="st5" d="M74.1,23h-0.8v-5.3h-1.7V17h4.1v0.7h-1.7V23z"></path> <path class="st5" d="M83.6,22.2c-0.6,0.6-1.3,0.9-2.2,0.9c-0.9,0-1.6-0.3-2.2-0.9c-0.6-0.6-0.9-1.3-0.9-2.2s0.3-1.6,0.9-2.2 c0.6-0.6,1.3-0.9,2.2-0.9c0.9,0,1.6,0.3,2.2,0.9c0.6,0.6,0.9,1.3,0.9,2.2C84.5,20.9,84.2,21.6,83.6,22.2z M79.8,21.7 c0.4,0.4,1,0.7,1.6,0.7s1.2-0.2,1.6-0.7c0.4-0.4,0.7-1,0.7-1.7s-0.2-1.3-0.7-1.7c-0.4-0.4-1-0.7-1.6-0.7s-1.2,0.2-1.6,0.7 c-0.4,0.4-0.7,1-0.7,1.7S79.3,21.3,79.8,21.7z"></path> <path class="st5" d="M85.6,23v-6h0.9l2.9,4.7h0l0-1.2V17h0.8v6h-0.8l-3.1-4.9h0l0,1.2V23H85.6z"></path> </g> <path class="st4" d="M78.1,26.8c-2.4,0-4.3,1.8-4.3,4.3c0,2.4,1.9,4.3,4.3,4.3c2.4,0,4.3-1.8,4.3-4.3 C82.4,28.5,80.5,26.8,78.1,26.8z M78.1,33.6c-1.3,0-2.4-1.1-2.4-2.6c0-1.5,1.1-2.6,2.4-2.6c1.3,0,2.4,1,2.4,2.6 C80.5,32.5,79.4,33.6,78.1,33.6z M68.8,26.8c-2.4,0-4.3,1.8-4.3,4.3c0,2.4,1.9,4.3,4.3,4.3c2.4,0,4.3-1.8,4.3-4.3 C73.1,28.5,71.2,26.8,68.8,26.8z M68.8,33.6c-1.3,0-2.4-1.1-2.4-2.6c0-1.5,1.1-2.6,2.4-2.6c1.3,0,2.4,1,2.4,2.6 C71.2,32.5,70.1,33.6,68.8,33.6z M57.7,28.1v1.8h4.3c-0.1,1-0.5,1.8-1,2.3c-0.6,0.6-1.6,1.3-3.3,1.3c-2.7,0-4.7-2.1-4.7-4.8 s2.1-4.8,4.7-4.8c1.4,0,2.5,0.6,3.3,1.3l1.3-1.3c-1.1-1-2.5-1.8-4.5-1.8c-3.6,0-6.7,3-6.7,6.6c0,3.6,3.1,6.6,6.7,6.6 c2,0,3.4-0.6,4.6-1.9c1.2-1.2,1.6-2.9,1.6-4.2c0-0.4,0-0.8-0.1-1.1H57.7z M103.1,29.5c-0.4-1-1.4-2.7-3.6-2.7c-2.2,0-4,1.7-4,4.3 c0,2.4,1.8,4.3,4.2,4.3c1.9,0,3.1-1.2,3.5-1.9l-1.4-1c-0.5,0.7-1.1,1.2-2.1,1.2c-1,0-1.6-0.4-2.1-1.3l5.7-2.4L103.1,29.5z M97.3,30.9c0-1.6,1.3-2.5,2.2-2.5c0.7,0,1.4,0.4,1.6,0.9L97.3,30.9z M92.6,35h1.9V22.5h-1.9V35z M89.6,27.7L89.6,27.7 c-0.5-0.5-1.3-1-2.3-1c-2.1,0-4.1,1.9-4.1,4.3c0,2.4,1.9,4.2,4.1,4.2c1,0,1.8-0.5,2.2-1h0.1v0.6c0,1.6-0.9,2.5-2.3,2.5 c-1.1,0-1.9-0.8-2.1-1.5l-1.6,0.7c0.5,1.1,1.7,2.5,3.8,2.5c2.2,0,4-1.3,4-4.4V27h-1.8V27.7z M87.4,33.6c-1.3,0-2.4-1.1-2.4-2.6 c0-1.5,1.1-2.6,2.4-2.6c1.3,0,2.3,1.1,2.3,2.6C89.7,32.5,88.7,33.6,87.4,33.6z M111.8,22.5h-4.5V35h1.9v-4.7h2.6 c2.1,0,4.1-1.5,4.1-3.9S113.9,22.5,111.8,22.5z M111.9,28.5h-2.7v-4.3h2.7c1.4,0,2.2,1.2,2.2,2.1C114,27.4,113.2,28.5,111.9,28.5z M123.4,26.7c-1.4,0-2.8,0.6-3.3,1.9l1.7,0.7c0.4-0.7,1-0.9,1.7-0.9c1,0,1.9,0.6,2,1.6v0.1c-0.3-0.2-1.1-0.5-1.9-0.5 c-1.8,0-3.6,1-3.6,2.8c0,1.7,1.5,2.8,3.1,2.8c1.3,0,1.9-0.6,2.4-1.2h0.1v1h1.8v-4.8C127.2,28,125.5,26.7,123.4,26.7z M123.2,33.6 c-0.6,0-1.5-0.3-1.5-1.1c0-1,1.1-1.3,2-1.3c0.8,0,1.2,0.2,1.7,0.4C125.2,32.8,124.2,33.6,123.2,33.6z M133.7,27l-2.1,5.4h-0.1 l-2.2-5.4h-2l3.3,7.6l-1.9,4.2h1.9l5.1-11.8H133.7z M116.9,35h1.9V22.5h-1.9V35z"></path> <g class="st1"> <path class="st2" d="M20.4,17.5c-0.3,0.3-0.5,0.8-0.5,1.4v22.1c0,0.6,0.2,1.1,0.5,1.4l0.1,0.1l12.4-12.4V30v-0.1L20.4,17.5 L20.4,17.5z"></path> <path class="st2" d="M37,34.3l-4.1-4.1V30v-0.1l4.1-4.1l0.1,0.1l4.9,2.8c1.4,0.8,1.4,2.1,0,2.9L37,34.3L37,34.3z"></path> <path class="st2" d="M37.1,34.2L32.9,30L20.4,42.5c0.5,0.5,1.2,0.5,2.1,0.1L37.1,34.2"></path> <path class="st2" d="M37.1,25.8l-14.6-8.3c-0.9-0.5-1.6-0.4-2.1,0.1L32.9,30L37.1,25.8z"></path> <g class="st3"> <path class="st6" d="M37,34.1l-14.5,8.2c-0.8,0.5-1.5,0.4-2,0l0,0l-0.1,0.1l0,0l0.1,0.1l0,0c0.5,0.4,1.2,0.5,2,0L37,34.1L37,34.1 z"></path> <path class="st7" d="M20.4,42.3C20.1,42,20,41.5,20,40.9v0.1c0,0.6,0.2,1.1,0.5,1.4V42.3L20.4,42.3z"></path> </g> <path class="st8" d="M42,31.3l-5,2.8l0.1,0.1l4.9-2.8c0.7-0.4,1-0.9,1-1.4l0,0C43,30.5,42.6,30.9,42,31.3z"></path> <path class="st9" d="M22.5,17.6L42,28.7c0.6,0.4,1,0.8,1,1.3l0,0c0-0.5-0.3-1-1-1.4L22.5,17.5c-1.4-0.8-2.5-0.1-2.5,1.5v0.1 C20,17.5,21.1,16.8,22.5,17.6z"></path> </g> </g> <g> <g> <g> <path class="st4" d="M24.8,16.8c-1-0.6-2.1-0.6-3,0l11.1,11.2l3.7-4.1L24.8,16.8z"></path> </g> </g> <g> <g> <path class="st4" d="M20.6,17.9c-0.3,0.5-0.4,1-0.4,1.6v20.2c0,0.6,0.1,1.1,0.4,1.6l11.2-12.2L20.6,17.9z"></path> </g> </g> <g> <g> <path class="st4" d="M41.5,26.8L38,24.7L34,29l4.9,4.9l2.7-1.6c1-0.6,1.5-1.6,1.5-2.8C43.1,28.4,42.5,27.4,41.5,26.8z"></path> </g> </g> <g> <g> <path class="st4" d="M32.9,30.2L21.7,42.4c0.5,0.3,1,0.5,1.6,0.5c0.5,0,1-0.1,1.5-0.4l12.7-7.6L32.9,30.2z"></path> </g> </g> <g> </g> <g> </g> <g> </g> <g> </g> <g> </g> <g> </g> <g> </g> <g> </g> <g> </g> <g> </g> <g> </g> <g> </g> <g> </g> <g> </g> <g> </g> </g> </svg> 