<?xml version="1.0" encoding="UTF-8"?>
<!DOCTYPE svg PUBLIC "-//W3C//DTD SVG 1.1//EN" "http://www.w3.org/Graphics/SVG/1.1/DTD/svg11.dtd">
<!-- Creator: CorelDRAW -->
<svg xmlns="http://www.w3.org/2000/svg" xml:space="preserve" width="254mm" height="254mm" version="1.1" style="shape-rendering:geometricPrecision; text-rendering:geometricPrecision; image-rendering:optimizeQuality; fill-rule:evenodd; clip-rule:evenodd"
viewBox="0 0 25399.98 25399.98"
 xmlns:xlink="http://www.w3.org/1999/xlink"
 xmlns:xodm="http://www.corel.com/coreldraw/odm/2003">
 <defs>
  <style type="text/css">
   <![CDATA[
    .str3 {stroke:#FF0086;stroke-width:52.92;stroke-miterlimit:22.9256}
    .str0 {stroke:black;stroke-width:19.84;stroke-miterlimit:22.9256}
    .str1 {stroke:white;stroke-width:19.84;stroke-miterlimit:22.9256}
    .str2 {stroke:#FF0086;stroke-width:60.85;stroke-miterlimit:22.9256}
    .fil1 {fill:none;fill-rule:nonzero}
    .fil0 {fill:black;fill-rule:nonzero}
   ]]>
  </style>
   <clipPath id="id0">
    <rect x="3937.53" y="3174.97" width="17584.74" height="20777.22"/>
   </clipPath>
 </defs>
 <g id="Слой_x0020_1">
  <metadata id="CorelCorpID_0Corel-Layer"/>
  <g id="_105553185274112">
   <g>
    <path class="fil0" d="M15036.84 6171.81l388.94 2002.89 531.81 2497.67 783.17 3616.84 478.9 2288.65c0,0 375.71,1068.92 -809.63,1457.85 -1082.15,354.54 -4471.46,1195.92 -4471.46,1195.92 0,0 -1161.52,441.85 -1489.6,-1169.46 -328.08,-1611.31 -1426.11,-7585.58 -1426.11,-7585.58 0,0 -698.5,-3979.33 -724.96,-4116.92 -79.38,-415.4 -134.94,-1275.29 661.46,-1489.6l4497.92 -857.25c0,0 1060.98,-209.02 1288.52,780.52 227.54,989.54 304.27,1431.4 304.27,1431.4l-13.23 -52.92 0 -0.01zm0 0l0 0 0 0z"/>
    <path id="_1" class="fil1 str0" d="M15036.84 6171.81l388.94 2002.89 531.81 2497.67 783.17 3616.84 478.9 2288.65c0,0 375.71,1068.92 -809.63,1457.85 -1082.15,354.54 -4471.46,1195.92 -4471.46,1195.92 0,0 -1161.52,441.85 -1489.6,-1169.46 -328.08,-1611.31 -1426.11,-7585.58 -1426.11,-7585.58 0,0 -698.5,-3979.33 -724.96,-4116.92 -79.38,-415.4 -134.94,-1275.29 661.46,-1489.6l4497.92 -857.25c0,0 1060.98,-209.02 1288.52,780.52 227.54,989.54 304.27,1431.4 304.27,1431.4m-13.23 -52.93l0 0 0 0z"/>
   </g>
  </g>
  <g id="_105553185272096">
   <line class="fil1 str1" x1="16117.2" y1="10686.73" x2="15561.57" y2= "8146.73" />
   <path class="fil1 str1" d="M16937.4 14364.42l502.71 2328.33c0,0 291.04,1137.71 -846.67,1481.67 -1137.71,343.96 -4683.12,1217.08 -4683.12,1217.08 0,0 -1217.08,449.79 -1561.04,-1190.63 -343.96,-1640.42 -1508.13,-7778.73 -1508.13,-7778.73 0,0 -132.29,52.92 -158.75,-132.29 -26.46,-185.21 -132.29,-767.29 -132.29,-767.29 0,0 -52.92,-211.67 52.92,-238.13 105.84,-26.46 105.83,-26.46 105.83,-26.46l-52.92 -211.67 -105.83 26.46c0,0 -79.38,52.92 -132.29,-158.75 -52.91,-211.67 -105.83,-608.54 -105.83,-608.54 0,0 -52.92,-238.13 26.46,-238.13 79.38,0 105.83,-26.46 105.83,-26.46l-291.04 -1508.13c0,0 -476.25,-1455.21 635,-1746.25l4709.58 -873.13c0,0 1111.25,-211.67 1349.38,793.75 238.13,1005.42 317.5,1455.21 317.5,1455.21"/>
  </g>
  <g style="clip-path:url(#id0)">
   <image x="3937.53" y="3174.97" width="17584.74" height="20777.22" xlink:href="hand_Images/hand_ImgID1.png"/>
  </g>
  <g id="_105553185265792">
   <path class="fil1 str2" d="M15482.3 5896.69c0,0 -132.29,26.46 -211.67,132.29 -79.38,105.83 -396.88,502.71 -476.25,555.63 -79.37,52.92 -238.13,211.67 -291.04,449.79 -52.91,238.12 -52.92,449.79 52.92,661.46 105.84,211.67 455.08,436.56 621.77,436.56 185.21,0 304.27,-66.15 436.56,-145.52 132.29,-79.37 264.58,-185.21 370.42,-211.67 105.84,-26.46 436.56,-224.9 489.48,-330.73 52.92,-105.83 277.81,-304.27 330.73,-463.02 52.92,-158.75 145.52,-171.98 145.52,-171.98 0,0 -105.83,-343.96 -304.27,-489.48 -214.31,-156.1 -179.92,-193.15 -343.96,-291.04 -198.44,-119.06 -357.19,-145.52 -357.19,-145.52 0,0 -171.98,-39.69 -463.02,13.23z"/>
   <path class="fil1 str2" d="M16633.24 10672.42c0,0 -264.58,26.46 -476.25,132.29"/>
   <path class="fil1 str2" d="M17704.8 12273.15c0,0 542.4,-92.6 648.23,542.39 105.83,635 -449.79,899.58 -595.31,1018.65 -248.71,203.72 -1203.86,542.38 -1203.86,542.38 0,0 -264.58,52.92 -529.17,79.38 -264.59,26.46 -582.08,105.83 -582.08,105.83 0,0 -370.42,132.29 -661.46,-26.46 -291.04,-158.75 -343.96,-396.88 -343.96,-449.79 0,-52.91 -71.44,-343.96 201.08,-555.63 275.17,-211.67 1201.21,-476.25 1386.42,-582.08 185.21,-105.83 806.98,-304.26 806.98,-304.26"/>
   <path class="fil1 str2" d="M18617.61 5513.04c0,0 79.38,661.46 582.07,873.13"/>
   <path class="fil1 str2" d="M15310.32 11942.42c0,0 291.04,238.13 370.42,582.08"/>
   <path class="fil1 str2" d="M7901.99 7920.75c0,0 317.5,0 449.79,79.38"/>
   <line class="fil1 str2" x1="9330.74" y1="14350.12" x2="9701.16" y2= "14403.03" />
   <path class="fil1 str2" d="M4758.75 21917.19c0,0 828.15,-674.69 3315.23,-463.02 2487.08,211.67 -26.46,820.21 582.08,1534.58 608.54,714.37 2262.19,-92.6 2262.19,-92.6 0,0 132.29,-317.5 502.71,-1375.83 370.42,-1058.33 865.19,-2375.96 865.19,-2375.96"/>
   <path class="fil1 str3" d="M6571.14 5745.88c-2.65,-76.73 -52.92,-142.88 -116.42,-185.21 -63.5,-42.33 -137.58,-66.15 -209.02,-87.31 -39.69,243.42 134.94,463.02 230.19,690.56 95.25,224.9 119.06,484.19 267.23,679.98 15.88,21.17 37.04,44.98 63.5,52.92 26.46,7.94 60.85,0 68.79,-26.46"/>
   <path class="fil1 str3" d="M15535.22 7891.65c-47.63,42.33 -97.9,84.67 -153.46,111.13 -132.29,63.5 -296.33,39.69 -423.33,-37.04 -703.79,-425.98 -254,-1386.42 473.6,-1428.75 304.27,-18.52 605.9,269.88 669.4,563.56 79.37,373.06 -320.15,579.43 -566.21,791.1z"/>
   <path class="fil1 str3" d="M14873.76 13543.14c214.31,-52.92 645.58,486.83 502.71,740.83 -92.6,164.04 -428.63,222.25 -608.54,79.38 -264.59,-209.03 -84.67,-772.59 105.83,-820.21z"/>
   <path class="fil1 str3" d="M14000.64 12405.44c399.52,-13.23 804.33,619.12 635,926.03 -148.17,267.23 -775.23,367.77 -1031.88,26.46 -153.46,-203.73 -142.88,-526.52 26.46,-740.82 21.17,-26.46 164.04,-203.73 370.42,-211.67z"/>
   <path class="fil1 str2" d="M8219.49 6439.08c0,0 -52.92,-211.67 -449.79,-635 -396.87,-423.33 -1058.33,-211.67 -1058.33,-211.67 0,0 -238.13,0 -79.38,502.71 158.75,502.71 185.21,793.75 185.21,793.75 0,0 132.29,661.46 105.83,1031.88 -26.46,370.42 476.25,1322.92 476.25,1322.92 0,0 396.88,767.29 502.71,1296.46 105.83,529.17 396.88,1693.33 476.25,1825.63 79.37,132.3 79.38,687.91 79.38,687.91 0,0 105.83,687.92 158.75,820.21 52.92,132.29 158.75,211.67 105.83,635 -52.92,423.33 -1137.71,2301.88 -1137.71,2301.88 0,0 -2592.92,4868.31 -2831.04,5106.44"/>
   <path class="fil1 str2" d="M16977.2 6809.5c0,0 611.19,-579.44 939.27,-859.9 370.42,-317.5 396.88,-343.96 476.25,-423.33 92.6,-92.6 926.03,-767.29 926.03,-767.29 0,0 52.92,-52.92 476.25,-449.79 492.13,-460.38 899.58,-370.42 899.58,-370.42 0,0 582.08,52.92 740.83,423.33 158.75,370.41 -26.46,608.54 -79.38,740.83 -52.92,132.29 -661.46,608.54 -714.38,635 -52.92,26.46 -105.83,158.75 -105.83,158.75 0,0 -211.67,158.75 -370.42,317.5 -158.75,158.75 -370.42,211.67 -396.88,264.58 -26.46,52.91 -79.38,105.83 -79.38,105.83 0,0 -502.71,449.79 -767.29,767.29 -264.57,317.5 -1084.78,978.96 -1084.78,978.96 0,0 -158.75,264.58 -343.96,423.33 -185.21,158.75 -767.29,608.54 -978.96,820.21 -211.67,211.67 -132.29,608.54 -132.29,608.54 0,0 66.15,145.52 -185.21,449.79 -251.36,304.27 145.52,66.15 -317.5,370.42 -463.02,304.27 -1534.58,1005.42 -1534.58,1005.42l-687.92 370.42c0,0 -515.94,224.9 -317.5,926.03 198.44,701.14 1058.33,396.88 1058.33,396.88l370.42 -264.58 899.58 -423.33c0,0 648.23,-304.27 952.5,-343.96 304.27,-39.68 926.04,-317.49 926.04,-317.49 0,0 277.81,-145.52 396.88,-291.04 119.07,-145.52 383.65,-489.48 396.88,-555.63 13.23,-66.15 66.15,-383.65 -26.46,-555.63 -92.61,-171.98 -277.81,-489.48 -502.71,-555.63 -224.9,-66.15 -224.9,-92.6 -502.71,-158.75 -277.81,-66.15 -635,-26.46 -635,-26.46 0,0 -264.58,-52.92 -291.04,-132.29"/>
  </g>
 </g>
</svg>
