<?xml version="1.0" encoding="UTF-8"?> <!-- Generator: Adobe Illustrator 24.0.0, SVG Export Plug-In . SVG Version: 6.00 Build 0) --> <svg xmlns="http://www.w3.org/2000/svg" xmlns:xlink="http://www.w3.org/1999/xlink" id="Слой_1" x="0px" y="0px" viewBox="0 0 595.3 595.3" style="enable-background:new 0 0 595.3 595.3;" xml:space="preserve"> <style type="text/css"> .st0{fill:#FFFFFF;} </style> <g> <g> <path class="st0" d="M132.4,352h2.3v23.6h-2.3V352z"></path> <path class="st0" d="M155.5,374.7c-1.3-0.7-2.3-1.7-3.1-3c-0.7-1.3-1.1-2.8-1.1-4.4c0-1.6,0.4-3.1,1.1-4.4c0.7-1.3,1.8-2.3,3.1-3 c1.3-0.7,2.7-1.1,4.4-1.1c1.6,0,3.1,0.4,4.4,1.1c1.3,0.7,2.3,1.7,3,3c0.7,1.3,1.1,2.8,1.1,4.4c0,1.6-0.4,3.1-1.1,4.4 c-0.7,1.3-1.7,2.3-3,3c-1.3,0.7-2.7,1.1-4.4,1.1C158.3,375.8,156.8,375.4,155.5,374.7z M163.1,373c0.9-0.5,1.7-1.3,2.2-2.3 c0.5-1,0.8-2.1,0.8-3.4s-0.3-2.4-0.8-3.4c-0.5-1-1.3-1.8-2.2-2.3c-0.9-0.5-2-0.8-3.2-0.8c-1.2,0-2.3,0.3-3.2,0.8 c-0.9,0.5-1.7,1.3-2.2,2.3c-0.5,1-0.8,2.1-0.8,3.4s0.3,2.4,0.8,3.4c0.5,1,1.3,1.8,2.2,2.3c0.9,0.5,2,0.8,3.2,0.8 C161.1,373.8,162.1,373.5,163.1,373z"></path> <path class="st0" d="M200.2,358.9v16.7H198v-3.1c-0.6,1-1.4,1.8-2.4,2.4c-1,0.6-2.2,0.8-3.6,0.8c-2.2,0-3.9-0.6-5.2-1.8 c-1.3-1.2-1.9-3-1.9-5.4v-9.7h2.3v9.5c0,1.8,0.4,3.1,1.3,4c0.9,0.9,2.1,1.4,3.7,1.4c1.8,0,3.1-0.5,4.2-1.6c1-1.1,1.5-2.6,1.5-4.5 v-8.8H200.2z"></path> <path class="st0" d="M232.1,360.6c1.2,1.2,1.9,3,1.9,5.3v9.7h-2.3v-9.5c0-1.7-0.4-3.1-1.3-4c-0.9-0.9-2.1-1.4-3.7-1.4 c-1.8,0-3.2,0.5-4.3,1.6c-1,1.1-1.6,2.5-1.6,4.4v8.8h-2.3v-16.7h2.2v3.1c0.6-1,1.5-1.8,2.6-2.4c1.1-0.6,2.4-0.8,3.8-0.8 C229.2,358.8,230.9,359.4,232.1,360.6z"></path> <path class="st0" d="M267.8,358.9v14.7c0,2.8-0.7,4.9-2.1,6.3c-1.4,1.4-3.5,2.1-6.3,2.1c-1.5,0-3-0.2-4.4-0.7s-2.5-1.1-3.4-1.9 l1.1-1.7c0.8,0.7,1.8,1.3,2.9,1.7c1.2,0.4,2.4,0.6,3.6,0.6c2.1,0,3.7-0.5,4.7-1.5c1-1,1.5-2.5,1.5-4.6v-2.1 c-0.7,1.1-1.6,1.9-2.8,2.4c-1.1,0.6-2.4,0.8-3.8,0.8c-1.6,0-3-0.3-4.3-1c-1.3-0.7-2.3-1.7-3-2.9c-0.7-1.2-1.1-2.6-1.1-4.2 c0-1.6,0.4-3,1.1-4.2c0.7-1.2,1.7-2.2,3-2.9c1.3-0.7,2.7-1,4.3-1c1.4,0,2.7,0.3,3.8,0.9c1.1,0.6,2.1,1.4,2.8,2.5v-3.2H267.8z M262.5,372.2c1-0.5,1.7-1.2,2.3-2.2c0.5-0.9,0.8-2,0.8-3.2c0-1.2-0.3-2.2-0.8-3.2c-0.5-0.9-1.3-1.6-2.3-2.2 c-1-0.5-2.1-0.8-3.3-0.8c-1.2,0-2.3,0.3-3.3,0.8c-1,0.5-1.7,1.2-2.3,2.2c-0.5,0.9-0.8,2-0.8,3.2c0,1.2,0.3,2.2,0.8,3.2 c0.5,0.9,1.3,1.7,2.3,2.2c1,0.5,2.1,0.8,3.3,0.8C260.4,373,261.5,372.7,262.5,372.2z"></path> <path class="st0" d="M300.7,368h-14c0.1,1.7,0.8,3.1,2,4.2c1.2,1.1,2.7,1.6,4.6,1.6c1,0,2-0.2,2.9-0.6c0.9-0.4,1.6-0.9,2.3-1.6 l1.3,1.5c-0.7,0.9-1.7,1.6-2.8,2c-1.1,0.5-2.3,0.7-3.7,0.7c-1.7,0-3.2-0.4-4.6-1.1c-1.3-0.7-2.4-1.7-3.1-3 c-0.7-1.3-1.1-2.8-1.1-4.4c0-1.6,0.4-3.1,1.1-4.4c0.7-1.3,1.7-2.3,2.9-3c1.2-0.7,2.6-1.1,4.2-1.1c1.5,0,2.9,0.4,4.2,1.1 c1.2,0.7,2.2,1.7,2.9,3c0.7,1.3,1,2.8,1,4.4L300.7,368z M288.6,362.3c-1.1,1-1.7,2.4-1.9,4h11.9c-0.1-1.7-0.8-3-1.9-4 c-1.1-1-2.5-1.5-4.1-1.5C291,360.7,289.7,361.2,288.6,362.3z"></path> <path class="st0" d="M354.3,376l-3.1-3.2c-1.9,2-4.4,3-7.4,3c-1.4,0-2.7-0.2-3.9-0.7c-1.1-0.5-2-1.1-2.7-2c-0.6-0.9-1-1.8-1-2.9 c0-1.3,0.4-2.5,1.3-3.6c0.8-1.1,2.3-2.2,4.3-3.3c-1.1-1.1-1.8-2-2.2-2.8c-0.4-0.8-0.6-1.6-0.6-2.5c0-1.4,0.5-2.6,1.5-3.4 c1-0.9,2.4-1.3,4.1-1.3c1.6,0,2.9,0.4,3.8,1.2c0.9,0.8,1.4,1.9,1.4,3.2c0,1.1-0.4,2.1-1.1,3c-0.7,0.9-2,1.9-3.8,2.9l6.1,6.3 c0.7-1.2,1.2-2.6,1.5-4.3l1.8,0.6c-0.4,2-1.1,3.7-2,5.1l3.2,3.3L354.3,376z M349.9,371.4l-6.7-6.9c-1.8,1-3,1.9-3.6,2.7 c-0.7,0.8-1,1.7-1,2.7c0,1.2,0.5,2.2,1.5,2.9c1,0.7,2.3,1.1,3.9,1.1C346.4,374,348.4,373.1,349.9,371.4z M342.1,355.7 c-0.6,0.6-0.9,1.3-0.9,2.2c0,0.7,0.2,1.3,0.5,1.9c0.3,0.6,1,1.4,2,2.4c1.6-0.9,2.7-1.7,3.3-2.4c0.6-0.7,0.9-1.4,0.9-2.2 c0-0.8-0.3-1.5-0.9-2c-0.6-0.5-1.4-0.7-2.4-0.7C343.6,354.9,342.8,355.2,342.1,355.7z"></path> <path class="st0" d="M404.6,359.8c1.3,0.7,2.3,1.7,3,3c0.7,1.3,1.1,2.8,1.1,4.4c0,1.7-0.4,3.1-1.1,4.4c-0.7,1.3-1.7,2.3-3,3 c-1.3,0.7-2.7,1.1-4.3,1.1c-1.4,0-2.7-0.3-3.8-0.9c-1.1-0.6-2-1.5-2.7-2.6v3.3h-2.2V352h2.3v10.1c0.7-1.1,1.6-1.9,2.7-2.5 c1.1-0.6,2.3-0.8,3.7-0.8C401.9,358.8,403.3,359.1,404.6,359.8z M403.3,373c1-0.5,1.7-1.3,2.2-2.3s0.8-2.1,0.8-3.4 s-0.3-2.4-0.8-3.4c-0.5-1-1.3-1.8-2.2-2.3c-1-0.5-2-0.8-3.2-0.8c-1.2,0-2.3,0.3-3.2,0.8c-0.9,0.5-1.7,1.3-2.2,2.3 c-0.5,1-0.8,2.1-0.8,3.4s0.3,2.4,0.8,3.4c0.5,1,1.3,1.8,2.2,2.3c0.9,0.5,2,0.8,3.2,0.8C401.3,373.8,402.4,373.5,403.3,373z"></path> <path class="st0" d="M436.1,360.4c1.2,1.1,1.7,2.7,1.7,4.9v10.4h-2.2V373c-0.5,0.9-1.3,1.5-2.2,2c-1,0.5-2.2,0.7-3.5,0.7 c-1.9,0-3.4-0.4-4.5-1.3c-1.1-0.9-1.7-2.1-1.7-3.5c0-1.4,0.5-2.6,1.5-3.4c1-0.9,2.7-1.3,4.9-1.3h5.3v-1c0-1.4-0.4-2.5-1.2-3.3 c-0.8-0.8-2-1.1-3.5-1.1c-1.1,0-2.1,0.2-3.1,0.5c-1,0.4-1.8,0.8-2.5,1.4l-1-1.7c0.8-0.7,1.9-1.3,3.1-1.7c1.2-0.4,2.4-0.6,3.8-0.6 C433.3,358.8,435,359.3,436.1,360.4z M433.6,373.1c0.9-0.6,1.6-1.4,2-2.5v-2.7h-5.2c-2.9,0-4.3,1-4.3,3c0,1,0.4,1.7,1.1,2.3 c0.7,0.6,1.8,0.8,3.1,0.8C431.6,374,432.7,373.7,433.6,373.1z"></path> <path class="st0" d="M460.6,359.6c1-0.6,2.3-0.9,3.9-0.9v2.2l-0.5,0c-1.8,0-3.1,0.5-4.1,1.6c-1,1.1-1.5,2.6-1.5,4.5v8.5h-2.3 v-16.7h2.2v3.3C458.8,361.1,459.6,360.2,460.6,359.6z"></path> </g> <g> <path class="st0" d="M228,314.4l-0.1-75.1l-37.3,62.6h-6.8l-37.3-62.2v74.7h-14.1V211.2h12.1l43,72.5l42.4-72.5H242l0.1,103.1H228 z"></path> <path class="st0" d="M403.4,310.8c-7.1-2.4-12.6-5.4-16.6-9.1l5.3-11.2c3.8,3.5,8.8,6.3,14.8,8.4c6,2.2,12.2,3.2,18.5,3.2 c8.4,0,14.6-1.4,18.7-4.2c4.1-2.8,6.2-6.6,6.2-11.3c0-3.5-1.1-6.3-3.4-8.4c-2.3-2.2-5-3.8-8.4-5c-3.3-1.2-8-2.4-14-3.9 c-7.6-1.8-13.7-3.6-18.4-5.5c-4.7-1.8-8.6-4.6-12-8.4c-3.3-3.8-5-8.9-5-15.3c0-5.4,1.4-10.2,4.2-14.5c2.8-4.3,7.1-7.8,12.9-10.4 c5.8-2.6,12.9-3.9,21.5-3.9c6,0,11.8,0.8,17.6,2.3c5.8,1.5,10.7,3.7,14.8,6.6l-4.8,11.5c-4.2-2.7-8.7-4.7-13.5-6.1 c-4.8-1.4-9.5-2.1-14.1-2.1c-8.2,0-14.3,1.5-18.4,4.5c-4.1,3-6.1,6.8-6.1,11.5c0,3.5,1.2,6.3,3.5,8.4c2.3,2.2,5.2,3.8,8.6,5 c3.4,1.2,8,2.5,13.9,3.8c7.6,1.8,13.7,3.7,18.3,5.5c4.6,1.8,8.6,4.6,11.9,8.4c3.3,3.7,5,8.8,5,15.1c0,5.3-1.4,10.1-4.3,14.5 c-2.9,4.4-7.3,7.8-13.1,10.4c-5.9,2.5-13.1,3.8-21.6,3.8C417.8,314.4,410.4,313.2,403.4,310.8z"></path> <path class="st0" d="M317.5,211.2c-28.5,0-51.6,23.1-51.6,51.6s23.1,51.6,51.6,51.6s51.6-23.1,51.6-51.6S346,211.2,317.5,211.2z M317.5,301.3c-21.3,0-38.6-17.3-38.6-38.6s17.3-38.6,38.6-38.6s38.6,17.3,38.6,38.6S338.8,301.3,317.5,301.3z"></path> </g> </g> </svg> 