<?xml version="1.0" encoding="UTF-8"?> <!-- Generator: Adobe Illustrator 24.0.0, SVG Export Plug-In . SVG Version: 6.00 Build 0) --> <svg xmlns="http://www.w3.org/2000/svg" xmlns:xlink="http://www.w3.org/1999/xlink" id="Capa_1" x="0px" y="0px"  viewBox="0 0 95.4 95.4" style="enable-background:new 0 0 95.4 95.4;" xml:space="preserve"> <style type="text/css"> .st0{fill:#FF0086;} </style> <g> <g> <path class="st0" d="M47.7,11.7C21.4,11.7,0,33.3,0,59.9c0,14.4,6.2,23.8,6.2,23.8l83,0c0,0,6.2-10.3,6.2-23.8 C95.4,33.3,74.1,11.7,47.7,11.7z M85.7,77.9l-75.8,0c0,0-4-7.6-4-18.1c0-23.3,18.8-42.2,42-42.2c23.2,0,42,18.9,42,42.2 C89.9,70.3,85.7,77.9,85.7,77.9z"></path> <polygon class="st0" points="61.2,24.5 60.6,24.5 47.9,49.4 34.7,24.3 16.6,69.7 12,69.7 12,73.4 37.5,73.4 37.5,69.7 32.5,69.7 37.5,55.5 47.9,73.4 57.8,55.5 62.9,69.7 57.8,69.7 57.8,73.4 83.2,73.4 83.2,69.7 78.8,69.7 "></polygon> </g> </g> </svg> 