<?xml version="1.0" encoding="UTF-8"?> <!-- Generator: Adobe Illustrator 24.0.0, SVG Export Plug-In . SVG Version: 6.00 Build 0) --> <svg xmlns="http://www.w3.org/2000/svg" xmlns:xlink="http://www.w3.org/1999/xlink" id="Слой_1" x="0px" y="0px" width="512px" height="512px" viewBox="0 0 512 512" style="enable-background:new 0 0 512 512;" xml:space="preserve"> <style type="text/css"> .st0{fill:#FFFFFF;} </style> <g id="Outline"> <path class="st0" d="M256,16C158.3,16.7,79.5,96.4,80,194.1c0,62.7,28.8,132.3,85.6,206.9c25.5,33.5,54,64.7,85.1,93 c3,2.6,7.5,2.6,10.5,0c31.1-28.3,59.6-59.5,85.1-93c56.8-74.5,85.6-144.2,85.6-206.9C432.5,96.4,353.7,16.7,256,16L256,16z M256,477.2c-28.2-26.3-160-156-160-283c0-88.4,71.6-160,160-160s160,71.6,160,160C416,321.2,284.2,450.9,256,477.2z"></path> <path class="st0" d="M256,48c-79.5,0-144,64.5-144,144s64.5,144,144,144s144-64.5,144-144C399.9,112.5,335.5,48.1,256,48z M256,320 c-70.7,0-128-57.3-128-128S185.3,64,256,64s128,57.3,128,128C383.9,262.7,326.7,319.9,256,320z"></path> <path class="st0" d="M280,104h-64c-4.4,0-8,3.6-8,8v160c0,4.4,3.6,8,8,8h32c4.4,0,8-3.6,8-8v-56h24c30.9,0,56-25.1,56-56 S310.9,104,280,104z M280,200h-32c-4.4,0-8,3.6-8,8v56h-16V120h56c22.1,0,40,17.9,40,40S302.1,200,280,200z"></path> <path class="st0" d="M280,136h-32c-4.4,0-8,3.6-8,8v32c0,4.4,3.6,8,8,8h32c13.3,0,24-10.7,24-24S293.3,136,280,136z M280,168h-24 v-16h24c4.4,0,8,3.6,8,8S284.4,168,280,168z"></path> </g> </svg> 