<?xml version="1.0" encoding="UTF-8"?> <!-- Generator: Adobe Illustrator 24.0.0, SVG Export Plug-In . SVG Version: 6.00 Build 0) --> <svg xmlns="http://www.w3.org/2000/svg" xmlns:xlink="http://www.w3.org/1999/xlink" id="Слой_1" x="0px" y="0px" width="512px" height="512px" viewBox="0 0 512 512" style="enable-background:new 0 0 512 512;" xml:space="preserve"> <style type="text/css"> .st0{fill:#FFFFFF;stroke:#FF007A;stroke-miterlimit:10;} .st1{fill:#FFFFFF;stroke:#FFFFFF;stroke-miterlimit:10;} .st2{stroke:#000000;stroke-width:6;stroke-miterlimit:10;} </style> <path class="st0" d="M255.6,0C152.2,0,68,84.2,68,187.6c0,47.5,29.9,114.7,89,199.6c43.2,62.1,85.6,110.1,87.4,112.1l11.2,12.6 l11.2-12.6c1.8-2,44.2-50.1,87.4-112.1c59.1-84.9,89-152.1,89-199.6C443.3,84.2,359.1,0,255.6,0z M255.6,290.8 c-61.1,0-110.7-49.7-110.7-110.8S194.6,69.4,255.6,69.4c61.1,0,110.8,49.7,110.8,110.7S316.7,290.8,255.6,290.8z"></path> <path class="st1" d="M253.5,59C186.4,59,132,113.5,132,180.5c0,67.1,54.7,121.5,121.5,121.5c67.1,0,121.5-54.5,121.5-121.5 C375.2,113.4,320.7,59,253.5,59z"></path> <g> <path class="st2" d="M190.6,255.8h-15l-23.2-111.4V256h-13.6V116h21.8l23,111.8L205.8,116h21.8v140h-14.8V143.4L190.6,255.8z"></path> <path class="st2" d="M242.4,149.8c0-21.4,10.6-35.2,32-35.2c21.6,0,32.2,13.8,32.2,35.2v72.4c0,21.2-10.6,35.2-32.2,35.2 c-21.4,0-32-14-32-35.2V149.8z M257.8,223c0,12.8,5.4,20.2,16.6,20.2c11.4,0,16.6-7.4,16.6-20.2v-74c0-12.6-5.2-20.2-16.6-20.2 c-11.2,0-16.6,7.6-16.6,20.2V223z"></path> <path class="st2" d="M382,149.6v3.8h-14.8v-4.6c0-12.6-4.8-20-16-20s-16,7.4-16,19.8c0,31.4,47,34.4,47,73.8 c0,21.2-10.2,35-31.6,35s-31.4-13.8-31.4-35v-8h14.6v8.8c0,12.6,5.2,20,16.4,20c11.2,0,16.4-7.4,16.4-20 c0-31.2-46.8-34.2-46.8-73.6c0-21.6,10-35,31-35C372,114.6,382,128.4,382,149.6z"></path> </g> </svg> 