<svg width="434.1" height="588" xmlns="http://www.w3.org/2000/svg">
 <style type="text/css">.st0{fill:#ED1E79;}</style>

 <g>
  <title>background</title>
  <rect fill="none" id="canvas_background" height="402" width="582" y="-1" x="-1"/>
 </g>
 <g>
  <title>Layer 1</title>
  <g id="Слой_3"/>
  <style transform="matrix(0.2872194717870258,0,0,0.2872194717870258,0,0) " type="text/css">.st0{fill:#FFFFFF;stroke:#FF007A;stroke-miterlimit:10;} .st1{fill:#FFFFFF;stroke:#FFFFFF;stroke-miterlimit:10;} .st2{stroke:#000000;stroke-width:6;stroke-miterlimit:10;}</style>
  <g stroke="null" id="svg_35">
   <path stroke="null" id="svg_29" d="m267.654889,229.437228c-4.350235,0 -7.892689,3.542454 -7.892689,7.892689c0,1.998415 1.25795,4.825647 3.744399,8.397552c1.817506,2.612665 3.601355,4.632116 3.677084,4.71626l0.471205,0.530106l0.471205,-0.530106c0.075729,-0.084144 1.859578,-2.107802 3.677084,-4.71626c2.486449,-3.571904 3.744399,-6.399136 3.744399,-8.397552c0.004207,-4.350235 -3.538247,-7.892689 -7.892689,-7.892689zm0,12.234509c-2.570593,0 -4.65736,-2.090974 -4.65736,-4.661567s2.090974,-4.653152 4.65736,-4.653152c2.570593,0 4.661567,2.090974 4.661567,4.65736s-2.090974,4.65736 -4.661567,4.65736z" class="st0"/>
   <path stroke="null" id="svg_30" d="m267.566538,231.91947c-2.823025,0 -5.111736,2.292919 -5.111736,5.111736c0,2.823025 2.301333,5.111736 5.111736,5.111736c2.823025,0 5.111736,-2.292919 5.111736,-5.111736c0.008414,-2.823025 -2.284504,-5.111736 -5.111736,-5.111736z" class="st1"/>
   <g stroke="null" transform="matrix(0.04207190169210037,0,0,0.04207190169210037,163.6064146919935,282.55381636405326) " id="svg_31">
    <path stroke="null" id="svg_32" d="m2408.110773,-1006.719379l-15,0l-23.2,-111.4l0,111.6l-13.6,0l0,-140l21.8,0l23,111.8l22.2,-111.8l21.8,0l0,140l-14.8,0l0,-112.6l-22.2,112.4z" class="st2"/>
    <path stroke="null" id="svg_33" d="m2459.910773,-1112.719379c0,-21.4 10.6,-35.2 32,-35.2c21.6,0 32.2,13.8 32.2,35.2l0,72.4c0,21.2 -10.6,35.2 -32.2,35.2c-21.4,0 -32,-14 -32,-35.2l0,-72.4zm15.4,73.2c0,12.8 5.4,20.2 16.6,20.2c11.4,0 16.6,-7.4 16.6,-20.2l0,-74c0,-12.6 -5.2,-20.2 -16.6,-20.2c-11.2,0 -16.6,7.6 -16.6,20.2l0,74z" class="st2"/>
    <path stroke="null" id="svg_34" d="m2599.510773,-1112.919379l0,3.8l-14.8,0l0,-4.6c0,-12.6 -4.8,-20 -16,-20s-16,7.4 -16,19.8c0,31.4 47,34.4 47,73.8c0,21.2 -10.2,35 -31.6,35s-31.4,-13.8 -31.4,-35l0,-8l14.6,0l0,8.8c0,12.6 5.2,20 16.4,20c11.2,0 16.4,-7.4 16.4,-20c0,-31.2 -46.8,-34.2 -46.8,-73.6c0,-21.6 10,-35 31,-35c21.2,0 31.2,13.8 31.2,35z" class="st2"/>
   </g>
  </g>
  <g stroke="null" id="svg_42">
   <path stroke="null" id="svg_36" d="m204.193509,253.667937c-4.350235,0 -7.892689,3.542454 -7.892689,7.892688c0,1.998416 1.25795,4.825648 3.744399,8.397552c1.817506,2.612665 3.601355,4.632116 3.677084,4.71626l0.471206,0.530106l0.471205,-0.530106c0.075729,-0.084144 1.859578,-2.107802 3.677084,-4.71626c2.48645,-3.571904 3.744399,-6.399136 3.744399,-8.397552c0.004208,-4.350234 -3.538247,-7.892688 -7.892688,-7.892688zm0,12.234509c-2.570594,0 -4.65736,-2.090974 -4.65736,-4.661567s2.090974,-4.653152 4.65736,-4.653152c2.570593,0 4.661566,2.090973 4.661566,4.657359s-2.090973,4.65736 -4.661566,4.65736z" class="st0"/>
   <path stroke="null" id="svg_37" d="m204.105158,256.150179c-2.823025,0 -5.111736,2.292919 -5.111736,5.111736c0,2.823025 2.301333,5.111736 5.111736,5.111736c2.823024,0 5.111736,-2.292919 5.111736,-5.111736c0.008414,-2.823025 -2.284505,-5.111736 -5.111736,-5.111736z" class="st1"/>
   <g stroke="null" transform="matrix(0.04207190169210037,0,0,0.04207190169210037,163.6064146919935,282.55381636405326) " id="svg_41">
    <path stroke="null" id="svg_38" d="m899.707819,-430.78371l-15,0l-23.2,-111.4l0,111.6l-13.6,0l0,-140l21.8,0l23,111.8l22.2,-111.8l21.8,0l0,140l-14.8,0l0,-112.6l-22.2,112.4z" class="st2"/>
    <path stroke="null" id="svg_39" d="m951.507819,-536.78371c0,-21.4 10.6,-35.2 32,-35.2c21.6,0 32.2,13.8 32.2,35.2l0,72.4c0,21.2 -10.6,35.2 -32.2,35.2c-21.4,0 -32,-14 -32,-35.2l0,-72.4zm15.4,73.2c0,12.8 5.4,20.2 16.6,20.2c11.4,0 16.6,-7.4 16.6,-20.2l0,-74c0,-12.6 -5.2,-20.2 -16.6,-20.2c-11.2,0 -16.6,7.6 -16.6,20.2l0,74z" class="st2"/>
    <path stroke="null" id="svg_40" d="m1091.107819,-536.98371l0,3.8l-14.8,0l0,-4.6c0,-12.6 -4.8,-20 -16,-20s-16,7.4 -16,19.8c0,31.4 47,34.4 47,73.8c0,21.2 -10.2,35 -31.6,35s-31.4,-13.8 -31.4,-35l0,-8l14.6,0l0,8.8c0,12.6 5.2,20 16.4,20c11.2,0 16.4,-7.4 16.4,-20c0,-31.2 -46.8,-34.2 -46.8,-73.6c0,-21.6 10,-35 31,-35c21.2,0 31.2,13.8 31.2,35z" class="st2"/>
   </g>
  </g>
  <g stroke="null" id="svg_49">
   <path stroke="null" id="svg_43" d="m261.501058,253.667937c-4.350235,0 -7.892689,3.542454 -7.892689,7.892688c0,1.998416 1.25795,4.825648 3.744399,8.397552c1.817506,2.612665 3.601355,4.632116 3.677084,4.71626l0.471206,0.530106l0.471205,-0.530106c0.075729,-0.084144 1.859578,-2.107802 3.677084,-4.71626c2.48645,-3.571904 3.744399,-6.399136 3.744399,-8.397552c0.004208,-4.350234 -3.538247,-7.892688 -7.892688,-7.892688zm0,12.234509c-2.570594,0 -4.65736,-2.090974 -4.65736,-4.661567s2.090974,-4.653152 4.65736,-4.653152c2.570593,0 4.661566,2.090973 4.661566,4.657359s-2.090973,4.65736 -4.661566,4.65736z" class="st0"/>
   <path stroke="null" id="svg_44" d="m261.412707,256.150179c-2.823025,0 -5.111736,2.292919 -5.111736,5.111736c0,2.823025 2.301333,5.111736 5.111736,5.111736c2.823024,0 5.111736,-2.292919 5.111736,-5.111736c0.008414,-2.823025 -2.284505,-5.111736 -5.111736,-5.111736z" class="st1"/>
   <g stroke="null" transform="matrix(0.04207190169210037,0,0,0.04207190169210037,163.6064146919935,282.55381636405326) " id="svg_48">
    <path stroke="null" id="svg_45" d="m2261.84141,-430.78371l-15,0l-23.2,-111.4l0,111.6l-13.6,0l0,-140l21.8,0l23,111.8l22.2,-111.8l21.8,0l0,140l-14.8,0l0,-112.6l-22.2,112.4z" class="st2"/>
    <path stroke="null" id="svg_46" d="m2313.64141,-536.78371c0,-21.4 10.6,-35.2 32,-35.2c21.6,0 32.2,13.8 32.2,35.2l0,72.4c0,21.2 -10.6,35.2 -32.2,35.2c-21.4,0 -32,-14 -32,-35.2l0,-72.4zm15.4,73.2c0,12.8 5.4,20.2 16.6,20.2c11.4,0 16.6,-7.4 16.6,-20.2l0,-74c0,-12.6 -5.2,-20.2 -16.6,-20.2c-11.2,0 -16.6,7.6 -16.6,20.2l0,74z" class="st2"/>
    <path stroke="null" id="svg_47" d="m2453.24141,-536.98371l0,3.8l-14.8,0l0,-4.6c0,-12.6 -4.8,-20 -16,-20s-16,7.4 -16,19.8c0,31.4 47,34.4 47,73.8c0,21.2 -10.2,35 -31.6,35s-31.4,-13.8 -31.4,-35l0,-8l14.6,0l0,8.8c0,12.6 5.2,20 16.4,20c11.2,0 16.4,-7.4 16.4,-20c0,-31.2 -46.8,-34.2 -46.8,-73.6c0,-21.6 10,-35 31,-35c21.2,0 31.2,13.8 31.2,35z" class="st2"/>
   </g>
  </g>
  <g stroke="null" id="svg_56">
   <path stroke="null" id="svg_50" d="m285.333675,254.135243c-4.350235,0 -7.892689,3.542454 -7.892689,7.892688c0,1.998416 1.25795,4.825648 3.744399,8.397552c1.817506,2.612665 3.601355,4.632116 3.677084,4.71626l0.471206,0.530106l0.471205,-0.530106c0.075729,-0.084144 1.859578,-2.107802 3.677084,-4.71626c2.48645,-3.571904 3.744399,-6.399136 3.744399,-8.397552c0.004208,-4.350234 -3.538247,-7.892688 -7.892688,-7.892688zm0,12.234509c-2.570594,0 -4.65736,-2.090974 -4.65736,-4.661567s2.090974,-4.653152 4.65736,-4.653152c2.570593,0 4.661566,2.090973 4.661566,4.657359s-2.090973,4.65736 -4.661566,4.65736z" class="st0"/>
   <path stroke="null" id="svg_51" d="m285.245324,256.617485c-2.823025,0 -5.111736,2.292919 -5.111736,5.111736c0,2.823025 2.301333,5.111736 5.111736,5.111736c2.823024,0 5.111736,-2.292919 5.111736,-5.111736c0.008414,-2.823025 -2.284505,-5.111736 -5.111736,-5.111736z" class="st1"/>
   <g stroke="null" transform="matrix(0.04207190169210037,0,0,0.04207190169210037,163.6064146919935,282.55381636405326) " id="svg_55">
    <path stroke="null" id="svg_52" d="m2828.314921,-419.676387l-15,0l-23.2,-111.4l0,111.6l-13.6,0l0,-140l21.8,0l23,111.8l22.2,-111.8l21.8,0l0,140l-14.8,0l0,-112.6l-22.2,112.4z" class="st2"/>
    <path stroke="null" id="svg_53" d="m2880.114921,-525.676387c0,-21.4 10.6,-35.2 32,-35.2c21.6,0 32.2,13.8 32.2,35.2l0,72.4c0,21.2 -10.6,35.2 -32.2,35.2c-21.4,0 -32,-14 -32,-35.2l0,-72.4zm15.4,73.2c0,12.8 5.4,20.2 16.6,20.2c11.4,0 16.6,-7.4 16.6,-20.2l0,-74c0,-12.6 -5.2,-20.2 -16.6,-20.2c-11.2,0 -16.6,7.6 -16.6,20.2l0,74z" class="st2"/>
    <path stroke="null" id="svg_54" d="m3019.714921,-525.876387l0,3.8l-14.8,0l0,-4.6c0,-12.6 -4.8,-20 -16,-20s-16,7.4 -16,19.8c0,31.4 47,34.4 47,73.8c0,21.2 -10.2,35 -31.6,35s-31.4,-13.8 -31.4,-35l0,-8l14.6,0l0,8.8c0,12.6 5.2,20 16.4,20c11.2,0 16.4,-7.4 16.4,-20c0,-31.2 -46.8,-34.2 -46.8,-73.6c0,-21.6 10,-35 31,-35c21.2,0 31.2,13.8 31.2,35z" class="st2"/>
   </g>
  </g>
  <g stroke="null" id="svg_63">
   <path stroke="null" id="svg_57" d="m293.745187,234.97569c-4.350235,0 -7.892689,3.542454 -7.892689,7.892688c0,1.998416 1.25795,4.825648 3.744399,8.397552c1.817506,2.612665 3.601355,4.632116 3.677084,4.71626l0.471206,0.530106l0.471205,-0.530106c0.075729,-0.084144 1.859578,-2.107802 3.677084,-4.71626c2.48645,-3.571904 3.744399,-6.399136 3.744399,-8.397552c0.004208,-4.350234 -3.538247,-7.892688 -7.892688,-7.892688zm0,12.234509c-2.570594,0 -4.65736,-2.090974 -4.65736,-4.661567s2.090974,-4.653152 4.65736,-4.653152c2.570593,0 4.661566,2.090973 4.661566,4.657359s-2.090973,4.65736 -4.661566,4.65736z" class="st0"/>
   <path stroke="null" id="svg_58" d="m293.656836,237.457932c-2.823025,0 -5.111736,2.292919 -5.111736,5.111736c0,2.823025 2.301333,5.111736 5.111736,5.111736c2.823024,0 5.111736,-2.292919 5.111736,-5.111736c0.008414,-2.823025 -2.284505,-5.111736 -5.111736,-5.111736z" class="st1"/>
   <g stroke="null" transform="matrix(0.04207190169210037,0,0,0.04207190169210037,163.6064146919935,282.55381636405326) " id="svg_62">
    <path stroke="null" id="svg_59" d="m3028.246744,-875.076618l-15,0l-23.2,-111.4l0,111.6l-13.6,0l0,-140l21.8,0l23,111.8l22.2,-111.8l21.8,0l0,140l-14.8,0l0,-112.6l-22.2,112.4z" class="st2"/>
    <path stroke="null" id="svg_60" d="m3080.046744,-981.076618c0,-21.4 10.6,-35.2 32,-35.2c21.6,0 32.2,13.8 32.2,35.2l0,72.4c0,21.2 -10.6,35.2 -32.2,35.2c-21.4,0 -32,-14 -32,-35.2l0,-72.4zm15.4,73.2c0,12.8 5.4,20.2 16.6,20.2c11.4,0 16.6,-7.4 16.6,-20.2l0,-74c0,-12.6 -5.2,-20.2 -16.6,-20.2c-11.2,0 -16.6,7.6 -16.6,20.2l0,74z" class="st2"/>
    <path stroke="null" id="svg_61" d="m3219.646744,-981.276618l0,3.8l-14.8,0l0,-4.6c0,-12.6 -4.8,-20 -16,-20s-16,7.4 -16,19.8c0,31.4 47,34.4 47,73.8c0,21.2 -10.2,35 -31.6,35s-31.4,-13.8 -31.4,-35l0,-8l14.6,0l0,8.8c0,12.6 5.2,20 16.4,20c11.2,0 16.4,-7.4 16.4,-20c0,-31.2 -46.8,-34.2 -46.8,-73.6c0,-21.6 10,-35 31,-35c21.2,0 31.2,13.8 31.2,35z" class="st2"/>
   </g>
  </g>
  <g stroke="null" id="svg_77">
   <path stroke="null" id="svg_71" d="m332.06429,134.972167c-4.350235,0 -7.892689,3.542454 -7.892689,7.892688c0,1.998416 1.25795,4.825648 3.744399,8.397552c1.817506,2.612665 3.601355,4.632116 3.677084,4.71626l0.471206,0.530106l0.471205,-0.530106c0.075729,-0.084144 1.859578,-2.107802 3.677084,-4.71626c2.48645,-3.571904 3.744399,-6.399136 3.744399,-8.397552c0.004208,-4.350234 -3.538247,-7.892688 -7.892688,-7.892688zm0,12.234509c-2.570594,0 -4.65736,-2.090974 -4.65736,-4.661567s2.090974,-4.653152 4.65736,-4.653152c2.570593,0 4.661566,2.090973 4.661566,4.657359s-2.090973,4.65736 -4.661566,4.65736z" class="st0"/>
   <path stroke="null" id="svg_72" d="m331.975939,137.454409c-2.823025,0 -5.111736,2.292919 -5.111736,5.111736c0,2.823025 2.301333,5.111736 5.111736,5.111736c2.823024,0 5.111736,-2.292919 5.111736,-5.111736c0.008414,-2.823025 -2.284505,-5.111736 -5.111736,-5.111736z" class="st1"/>
   <g stroke="null" transform="matrix(0.04207190169210037,0,0,0.04207190169210037,163.6064146919935,282.55381636405326) " id="svg_76">
    <path stroke="null" id="svg_73" d="m3939.047098,-3252.04372l-15,0l-23.2,-111.4l0,111.6l-13.6,0l0,-140l21.8,0l23,111.8l22.2,-111.8l21.8,0l0,140l-14.8,0l0,-112.6l-22.2,112.4z" class="st2"/>
    <path stroke="null" id="svg_74" d="m3990.847098,-3358.04372c0,-21.4 10.6,-35.2 32,-35.2c21.6,0 32.2,13.8 32.2,35.2l0,72.4c0,21.2 -10.6,35.2 -32.2,35.2c-21.4,0 -32,-14 -32,-35.2l0,-72.4zm15.4,73.2c0,12.8 5.4,20.2 16.6,20.2c11.4,0 16.6,-7.4 16.6,-20.2l0,-74c0,-12.6 -5.2,-20.2 -16.6,-20.2c-11.2,0 -16.6,7.6 -16.6,20.2l0,74z" class="st2"/>
    <path stroke="null" id="svg_75" d="m4130.447098,-3358.24372l0,3.8l-14.8,0l0,-4.6c0,-12.6 -4.8,-20 -16,-20s-16,7.4 -16,19.8c0,31.4 47,34.4 47,73.8c0,21.2 -10.2,35 -31.6,35s-31.4,-13.8 -31.4,-35l0,-8l14.6,0l0,8.8c0,12.6 5.2,20 16.4,20c11.2,0 16.4,-7.4 16.4,-20c0,-31.2 -46.8,-34.2 -46.8,-73.6c0,-21.6 10,-35 31,-35c21.2,0 31.2,13.8 31.2,35z" class="st2"/>
   </g>
  </g>
  <g stroke="null" id="svg_84">
   <path stroke="null" id="svg_78" d="m96.541967,199.927726c-4.350235,0 -7.892689,3.542454 -7.892689,7.892688c0,1.998416 1.25795,4.825648 3.744399,8.397552c1.817506,2.612665 3.601355,4.632116 3.677084,4.71626l0.471206,0.530106l0.471205,-0.530106c0.075729,-0.084144 1.859578,-2.107802 3.677084,-4.71626c2.48645,-3.571904 3.744399,-6.399136 3.744399,-8.397552c0.004208,-4.350234 -3.538247,-7.892688 -7.892688,-7.892688zm0,12.234509c-2.570594,0 -4.65736,-2.090974 -4.65736,-4.661567s2.090974,-4.653152 4.65736,-4.653152c2.570593,0 4.661566,2.090973 4.661566,4.657359s-2.090973,4.65736 -4.661566,4.65736z" class="st0"/>
   <path stroke="null" id="svg_79" d="m96.453616,202.409968c-2.823025,0 -5.111736,2.292919 -5.111736,5.111736c0,2.823025 2.301333,5.111736 5.111736,5.111736c2.823024,0 5.111736,-2.292919 5.111736,-5.111736c0.008414,-2.823025 -2.284505,-5.111736 -5.111736,-5.111736z" class="st1"/>
   <g stroke="null" transform="matrix(0.04207190169210037,0,0,0.04207190169210037,163.6064146919935,282.55381636405326) " id="svg_83">
    <path stroke="null" id="svg_80" d="m-1659.0436,-1708.125873l-15,0l-23.2,-111.4l0,111.6l-13.6,0l0,-140l21.8,0l23,111.8l22.2,-111.8l21.8,0l0,140l-14.8,0l0,-112.6l-22.2,112.4z" class="st2"/>
    <path stroke="null" id="svg_81" d="m-1607.2436,-1814.125873c0,-21.4 10.6,-35.2 32,-35.2c21.6,0 32.2,13.8 32.2,35.2l0,72.4c0,21.2 -10.6,35.2 -32.2,35.2c-21.4,0 -32,-14 -32,-35.2l0,-72.4zm15.4,73.2c0,12.8 5.4,20.2 16.6,20.2c11.4,0 16.6,-7.4 16.6,-20.2l0,-74c0,-12.6 -5.2,-20.2 -16.6,-20.2c-11.2,0 -16.6,7.6 -16.6,20.2l0,74z" class="st2"/>
    <path stroke="null" id="svg_82" d="m-1467.6436,-1814.325873l0,3.8l-14.8,0l0,-4.6c0,-12.6 -4.8,-20 -16,-20s-16,7.4 -16,19.8c0,31.4 47,34.4 47,73.8c0,21.2 -10.2,35 -31.6,35s-31.4,-13.8 -31.4,-35l0,-8l14.6,0l0,8.8c0,12.6 5.2,20 16.4,20c11.2,0 16.4,-7.4 16.4,-20c0,-31.2 -46.8,-34.2 -46.8,-73.6c0,-21.6 10,-35 31,-35c21.2,0 31.2,13.8 31.2,35z" class="st2"/>
   </g>
  </g>
  <g stroke="null" id="svg_91">
   <path stroke="null" id="svg_85" d="m120.841894,160.206694c-4.350235,0 -7.892689,3.542454 -7.892689,7.892688c0,1.998416 1.25795,4.825648 3.744399,8.397552c1.817506,2.612665 3.601355,4.632116 3.677084,4.71626l0.471206,0.530106l0.471205,-0.530106c0.075729,-0.084144 1.859578,-2.107802 3.677084,-4.71626c2.48645,-3.571904 3.744399,-6.399136 3.744399,-8.397552c0.004208,-4.350234 -3.538247,-7.892688 -7.892688,-7.892688zm0,12.234509c-2.570594,0 -4.65736,-2.090974 -4.65736,-4.661567s2.090974,-4.653152 4.65736,-4.653152c2.570593,0 4.661566,2.090973 4.661566,4.657359s-2.090973,4.65736 -4.661566,4.65736z" class="st0"/>
   <path stroke="null" id="svg_86" d="m120.753543,162.688936c-2.823025,0 -5.111736,2.292919 -5.111736,5.111736c0,2.823025 2.301333,5.111736 5.111736,5.111736c2.823024,0 5.111736,-2.292919 5.111736,-5.111736c0.008414,-2.823025 -2.284505,-5.111736 -5.111736,-5.111736z" class="st1"/>
   <g stroke="null" transform="matrix(0.04207190169210037,0,0,0.04207190169210037,163.6064146919935,282.55381636405326) " id="svg_90">
    <path stroke="null" id="svg_87" d="m-1081.462789,-2652.24831l-15,0l-23.2,-111.4l0,111.6l-13.6,0l0,-140l21.8,0l23,111.8l22.2,-111.8l21.8,0l0,140l-14.8,0l0,-112.6l-22.2,112.4z" class="st2"/>
    <path stroke="null" id="svg_88" d="m-1029.662789,-2758.24831c0,-21.4 10.6,-35.2 32,-35.2c21.6,0 32.2,13.8 32.2,35.2l0,72.4c0,21.2 -10.6,35.2 -32.2,35.2c-21.4,0 -32,-14 -32,-35.2l0,-72.4zm15.4,73.2c0,12.8 5.4,20.2 16.6,20.2c11.4,0 16.6,-7.4 16.6,-20.2l0,-74c0,-12.6 -5.2,-20.2 -16.6,-20.2c-11.2,0 -16.6,7.6 -16.6,20.2l0,74z" class="st2"/>
    <path stroke="null" id="svg_89" d="m-890.062789,-2758.44831l0,3.8l-14.8,0l0,-4.6c0,-12.6 -4.8,-20 -16,-20s-16,7.4 -16,19.8c0,31.4 47,34.4 47,73.8c0,21.2 -10.2,35 -31.6,35s-31.4,-13.8 -31.4,-35l0,-8l14.6,0l0,8.8c0,12.6 5.2,20 16.4,20c11.2,0 16.4,-7.4 16.4,-20c0,-31.2 -46.8,-34.2 -46.8,-73.6c0,-21.6 10,-35 31,-35c21.2,0 31.2,13.8 31.2,35z" class="st2"/>
   </g>
  </g>
  <g stroke="null" id="svg_147">
   <path stroke="null" id="svg_141" d="m371.785322,220.021891c-4.350235,0 -7.892689,3.542454 -7.892689,7.892688c0,1.998416 1.25795,4.825648 3.744399,8.397552c1.817506,2.612665 3.601355,4.632116 3.677084,4.71626l0.471206,0.530106l0.471205,-0.530106c0.075729,-0.084144 1.859578,-2.107802 3.677084,-4.71626c2.48645,-3.571904 3.744399,-6.399136 3.744399,-8.397552c0.004208,-4.350234 -3.538247,-7.892688 -7.892688,-7.892688zm0,12.234509c-2.570594,0 -4.65736,-2.090974 -4.65736,-4.661567s2.090974,-4.653152 4.65736,-4.653152c2.570593,0 4.661566,2.090973 4.661566,4.657359s-2.090973,4.65736 -4.661566,4.65736z" class="st0"/>
   <path stroke="null" id="svg_142" d="m371.696971,222.504133c-2.823025,0 -5.111736,2.292919 -5.111736,5.111736c0,2.823025 2.301333,5.111736 5.111736,5.111736c2.823024,0 5.111736,-2.292919 5.111736,-5.111736c0.008414,-2.823025 -2.284505,-5.111736 -5.111736,-5.111736z" class="st1"/>
   <g stroke="null" transform="matrix(0.04207190169210037,0,0,0.04207190169210037,163.6064146919935,282.55381636405326) " id="svg_146">
    <path stroke="null" id="svg_143" d="m4883.169535,-1230.510944l-15,0l-23.2,-111.4l0,111.6l-13.6,0l0,-140l21.8,0l23,111.8l22.2,-111.8l21.8,0l0,140l-14.8,0l0,-112.6l-22.2,112.4z" class="st2"/>
    <path stroke="null" id="svg_144" d="m4934.969535,-1336.510944c0,-21.4 10.6,-35.2 32,-35.2c21.6,0 32.2,13.8 32.2,35.2l0,72.4c0,21.2 -10.6,35.2 -32.2,35.2c-21.4,0 -32,-14 -32,-35.2l0,-72.4zm15.4,73.2c0,12.8 5.4,20.2 16.6,20.2c11.4,0 16.6,-7.4 16.6,-20.2l0,-74c0,-12.6 -5.2,-20.2 -16.6,-20.2c-11.2,0 -16.6,7.6 -16.6,20.2l0,74z" class="st2"/>
    <path stroke="null" id="svg_145" d="m5074.569535,-1336.710944l0,3.8l-14.8,0l0,-4.6c0,-12.6 -4.8,-20 -16,-20s-16,7.4 -16,19.8c0,31.4 47,34.4 47,73.8c0,21.2 -10.2,35 -31.6,35s-31.4,-13.8 -31.4,-35l0,-8l14.6,0l0,8.8c0,12.6 5.2,20 16.4,20c11.2,0 16.4,-7.4 16.4,-20c0,-31.2 -46.8,-34.2 -46.8,-73.6c0,-21.6 10,-35 31,-35c21.2,0 31.2,13.8 31.2,35z" class="st2"/>
   </g>
  </g>
  <g stroke="null" id="svg_161">
   <path stroke="null" id="svg_155" d="m221.312726,159.739394c-4.350235,0 -7.892689,3.542454 -7.892689,7.892688c0,1.998416 1.25795,4.825648 3.744399,8.397552c1.817506,2.612665 3.601355,4.632116 3.677084,4.71626l0.471206,0.530106l0.471205,-0.530106c0.075729,-0.084144 1.859578,-2.107802 3.677084,-4.71626c2.48645,-3.571904 3.744399,-6.399136 3.744399,-8.397552c0.004208,-4.350234 -3.538247,-7.892688 -7.892688,-7.892688zm0,12.234509c-2.570594,0 -4.65736,-2.090974 -4.65736,-4.661567s2.090974,-4.653152 4.65736,-4.653152c2.570593,0 4.661566,2.090973 4.661566,4.657359s-2.090973,4.65736 -4.661566,4.65736z" class="st0"/>
   <path stroke="null" id="svg_156" d="m221.224375,162.221636c-2.823025,0 -5.111736,2.292919 -5.111736,5.111736c0,2.823025 2.301333,5.111736 5.111736,5.111736c2.823024,0 5.111736,-2.292919 5.111736,-5.111736c0.008414,-2.823025 -2.284505,-5.111736 -5.111736,-5.111736z" class="st1"/>
   <g stroke="null" transform="matrix(0.04207190169210037,0,0,0.04207190169210037,163.6064146919935,282.55381636405326) " id="svg_160">
    <path stroke="null" id="svg_157" d="m1306.611674,-2663.355487l-15,0l-23.2,-111.4l0,111.6l-13.6,0l0,-140l21.8,0l23,111.8l22.2,-111.8l21.8,0l0,140l-14.8,0l0,-112.6l-22.2,112.4z" class="st2"/>
    <path stroke="null" id="svg_158" d="m1358.411674,-2769.355487c0,-21.4 10.6,-35.2 32,-35.2c21.6,0 32.2,13.8 32.2,35.2l0,72.4c0,21.2 -10.6,35.2 -32.2,35.2c-21.4,0 -32,-14 -32,-35.2l0,-72.4zm15.4,73.2c0,12.8 5.4,20.2 16.6,20.2c11.4,0 16.6,-7.4 16.6,-20.2l0,-74c0,-12.6 -5.2,-20.2 -16.6,-20.2c-11.2,0 -16.6,7.6 -16.6,20.2l0,74z" class="st2"/>
    <path stroke="null" id="svg_159" d="m1498.011674,-2769.555487l0,3.8l-14.8,0l0,-4.6c0,-12.6 -4.8,-20 -16,-20s-16,7.4 -16,19.8c0,31.4 47,34.4 47,73.8c0,21.2 -10.2,35 -31.6,35s-31.4,-13.8 -31.4,-35l0,-8l14.6,0l0,8.8c0,12.6 5.2,20 16.4,20c11.2,0 16.4,-7.4 16.4,-20c0,-31.2 -46.8,-34.2 -46.8,-73.6c0,-21.6 10,-35 31,-35c21.2,0 31.2,13.8 31.2,35z" class="st2"/>
   </g>
  </g>
  <g stroke="null" id="svg_196">
   <path stroke="null" id="svg_190" d="m301.222085,206.937316c-4.350235,0 -7.892689,3.542454 -7.892689,7.892688c0,1.998416 1.25795,4.825648 3.744399,8.397552c1.817506,2.612665 3.601355,4.632116 3.677084,4.71626l0.471206,0.530106l0.471205,-0.530106c0.075729,-0.084144 1.859578,-2.107802 3.677084,-4.71626c2.48645,-3.571904 3.744399,-6.399136 3.744399,-8.397552c0.004208,-4.350234 -3.538247,-7.892688 -7.892688,-7.892688zm0,12.234509c-2.570594,0 -4.65736,-2.090974 -4.65736,-4.661567s2.090974,-4.653152 4.65736,-4.653152c2.570593,0 4.661566,2.090973 4.661566,4.657359s-2.090973,4.65736 -4.661566,4.65736z" class="st0"/>
   <path stroke="null" id="svg_191" d="m301.133734,209.419558c-2.823025,0 -5.111736,2.292919 -5.111736,5.111736c0,2.823025 2.301333,5.111736 5.111736,5.111736c2.823024,0 5.111736,-2.292919 5.111736,-5.111736c0.008414,-2.823025 -2.284505,-5.111736 -5.111736,-5.111736z" class="st1"/>
   <g stroke="null" transform="matrix(0.04207190169210037,0,0,0.04207190169210037,163.6064146919935,282.55381636405326) " id="svg_195">
    <path stroke="null" id="svg_192" d="m3205.963847,-1541.51601l-15,0l-23.2,-111.4l0,111.6l-13.6,0l0,-140l21.8,0l23,111.8l22.2,-111.8l21.8,0l0,140l-14.8,0l0,-112.6l-22.2,112.4z" class="st2"/>
    <path stroke="null" id="svg_193" d="m3257.763847,-1647.51601c0,-21.4 10.6,-35.2 32,-35.2c21.6,0 32.2,13.8 32.2,35.2l0,72.4c0,21.2 -10.6,35.2 -32.2,35.2c-21.4,0 -32,-14 -32,-35.2l0,-72.4zm15.4,73.2c0,12.8 5.4,20.2 16.6,20.2c11.4,0 16.6,-7.4 16.6,-20.2l0,-74c0,-12.6 -5.2,-20.2 -16.6,-20.2c-11.2,0 -16.6,7.6 -16.6,20.2l0,74z" class="st2"/>
    <path stroke="null" id="svg_194" d="m3397.363847,-1647.71601l0,3.8l-14.8,0l0,-4.6c0,-12.6 -4.8,-20 -16,-20s-16,7.4 -16,19.8c0,31.4 47,34.4 47,73.8c0,21.2 -10.2,35 -31.6,35s-31.4,-13.8 -31.4,-35l0,-8l14.6,0l0,8.8c0,12.6 5.2,20 16.4,20c11.2,0 16.4,-7.4 16.4,-20c0,-31.2 -46.8,-34.2 -46.8,-73.6c0,-21.6 10,-35 31,-35c21.2,0 31.2,13.8 31.2,35z" class="st2"/>
   </g>
  </g>
  <g stroke="null" id="svg_203">
   <path stroke="null" id="svg_197" d="m261.968364,177.497023c-4.350235,0 -7.892689,3.542454 -7.892689,7.892688c0,1.998416 1.25795,4.825648 3.744399,8.397552c1.817506,2.612665 3.601355,4.632116 3.677084,4.71626l0.471206,0.530106l0.471205,-0.530106c0.075729,-0.084144 1.859578,-2.107802 3.677084,-4.71626c2.48645,-3.571904 3.744399,-6.399136 3.744399,-8.397552c0.004208,-4.350234 -3.538247,-7.892688 -7.892688,-7.892688zm0,12.234509c-2.570594,0 -4.65736,-2.090974 -4.65736,-4.661567s2.090974,-4.653152 4.65736,-4.653152c2.570593,0 4.661566,2.090973 4.661566,4.657359s-2.090973,4.65736 -4.661566,4.65736z" class="st0"/>
   <path stroke="null" id="svg_198" d="m261.880013,179.979265c-2.823025,0 -5.111736,2.292919 -5.111736,5.111736c0,2.823025 2.301333,5.111736 5.111736,5.111736c2.823024,0 5.111736,-2.292919 5.111736,-5.111736c0.008414,-2.823025 -2.284505,-5.111736 -5.111736,-5.111736z" class="st1"/>
   <g stroke="null" transform="matrix(0.04207190169210037,0,0,0.04207190169210037,163.6064146919935,282.55381636405326) " id="svg_202">
    <path stroke="null" id="svg_199" d="m2272.948733,-2241.277484l-15,0l-23.2,-111.4l0,111.6l-13.6,0l0,-140l21.8,0l23,111.8l22.2,-111.8l21.8,0l0,140l-14.8,0l0,-112.6l-22.2,112.4z" class="st2"/>
    <path stroke="null" id="svg_200" d="m2324.748733,-2347.277484c0,-21.4 10.6,-35.2 32,-35.2c21.6,0 32.2,13.8 32.2,35.2l0,72.4c0,21.2 -10.6,35.2 -32.2,35.2c-21.4,0 -32,-14 -32,-35.2l0,-72.4zm15.4,73.2c0,12.8 5.4,20.2 16.6,20.2c11.4,0 16.6,-7.4 16.6,-20.2l0,-74c0,-12.6 -5.2,-20.2 -16.6,-20.2c-11.2,0 -16.6,7.6 -16.6,20.2l0,74z" class="st2"/>
    <path stroke="null" id="svg_201" d="m2464.348733,-2347.477484l0,3.8l-14.8,0l0,-4.6c0,-12.6 -4.8,-20 -16,-20s-16,7.4 -16,19.8c0,31.4 47,34.4 47,73.8c0,21.2 -10.2,35 -31.6,35s-31.4,-13.8 -31.4,-35l0,-8l14.6,0l0,8.8c0,12.6 5.2,20 16.4,20c11.2,0 16.4,-7.4 16.4,-20c0,-31.2 -46.8,-34.2 -46.8,-73.6c0,-21.6 10,-35 31,-35c21.2,0 31.2,13.8 31.2,35z" class="st2"/>
   </g>
  </g>
 </g>
</svg>