<?xml version="1.0" encoding="UTF-8"?> <!-- Generator: Adobe Illustrator 24.0.0, SVG Export Plug-In . SVG Version: 6.00 Build 0) --> <svg xmlns="http://www.w3.org/2000/svg" xmlns:xlink="http://www.w3.org/1999/xlink" id="Capa_1" x="0px" y="0px" width="512px" height="512px" viewBox="0 0 512 512" style="enable-background:new 0 0 512 512;" xml:space="preserve"> <style type="text/css"> .st0{fill:#FFFFFF;} </style> <g> <g> <path class="st0" d="M142.7,41.1c-4.2,0-7.6,3.4-7.6,7.6v47.6c0,4.2,3.4,7.6,7.6,7.6s7.6-3.4,7.6-7.6V48.7 C150.3,44.5,146.9,41.1,142.7,41.1z"></path> </g> </g> <g> <g> <path class="st0" d="M475.8,413.6L475.8,413.6c0-2.3,0-4.7-0.1-7c-0.4-20.7-3.3-41.4-8.7-61.4c-1-3.5-4.5-5.5-8.1-4.6 c-3.6,0.9-5.7,4.4-4.7,7.9c4.8,18,7.5,36.4,8.2,55c-6.5,4.1-14.7,8.7-26.9,11.8c-9.7,2.5-20.1,3.6-31.4,3.2l-6.9-22.9 c-2.4-7.8-7.5-14.3-14.3-18.4c8-6.4,13.1-16.1,13.1-26.8c0-1.8-0.2-3.5-0.4-5.2c3.6,0.9,7.3,1.5,11.2,1.5 c17.3,0,32.2-10.4,38.5-25c0.3,0.8,0.7,1.8,1,2.7c1,2.6,3.5,4.2,6.2,4.2c0.8,0,1.6-0.2,2.3-0.4c3.4-1.3,5.1-4.9,3.9-8.3 c-4.8-12.6-10.6-25-17.3-36.7l-3.3-5.8c-5.9-10.5-17.4-17-29.6-17h-7.8c-3.8,0-7.4,1.4-10.1,4.1c-0.2,0.2-0.4,0.3-0.7,0.3h-43.3 h-36.9h-34.1h-45.9c-0.3,0-0.5-0.1-0.7-0.3c-2.7-2.6-6.3-4.1-10.1-4.1h-7.8c-12.3,0-23.6,6.5-29.6,17l-3.3,5.8 c-21.6,37.9-33.3,80.5-34.2,123.7c-0.2,4-0.1,8,0,11.9l0.3,9.5h-19.3V186.1H177v58.5c0,3.6,3,6.5,6.6,6.5s6.6-2.9,6.6-6.5V55.7 c0-11.4-9.5-20.7-21.3-20.7H69.5c-11.7,0-21.3,9.3-21.3,20.7V433l-14.3,27.6c-1,2-1,4.4,0.3,6.3c1.2,1.9,3.3,3.1,5.7,3.1h141.5 c0.3,0,0.5,0,0.7,0c0.6,0,1.2,0,1.7,0c17.6,0,33.3-11.5,38.2-28l12.8-43c2.5-8.4,10.6-14.3,19.6-14.3h110.5 c9,0,17.1,5.9,19.6,14.3l12.8,43c4.9,16.5,20.7,28,38.2,28l0,0l0,0c10.5,0,20.3-3.9,27.8-11s11.8-16.7,12-26.8l0.3-13.7 C475.7,416.9,475.8,415.3,475.8,413.6L475.8,413.6c0-0.6,0-0.6,0-0.5C475.8,412,475.8,413.2,475.8,413.6z M406.9,278.2 c15.7,0,28.4,12.4,28.4,27.7s-12.7,27.7-28.4,27.7c-15.7,0-28.4-12.4-28.4-27.7S391.2,278.2,406.9,278.2z M282.1,277.5h27.6h30.3 v11.2c0,4.8-4,8.7-8.9,8.7h-40.2c-4.9,0-8.9-3.9-8.9-8.7L282.1,277.5L282.1,277.5z M189.9,293.5c3-5,7.6-8.9,13-11.2 c3.4-1.4,7-2.1,10.6-2.1c15.1,0,27.4,12,27.4,26.7s-12.3,26.7-27.4,26.7c-15.1,0-27.4-12-27.4-26.7 C186.2,302.2,187.5,297.6,189.9,293.5z M61.4,55.7c0-4.3,3.6-7.8,8-7.8h42V66c0,3.6,3,6.5,6.6,6.5c3.7,0,6.6-2.9,6.6-6.5V47.9H169 c4.4,0,8,3.5,8,7.8v117.4h-52.2V96.6c0-3.6-3-6.5-6.6-6.5c-3.7,0-6.6,2.9-6.6,6.5v76.6H61.4V55.7z M61.4,186.1h50.1v242.1H61.4 V186.1z M50.6,457.1l8.3-16.1h86.4c1.6,5.9,4.6,11.4,8.9,16.1H50.6z M222.1,395.4l-6.9,22.9c-1.6,0-3.1,0.1-4.6,0c0,0,0,0-0.1,0 c-3.7,0-6.6,2.9-6.6,6.4c0,3.6,2.9,6.5,6.5,6.5c0.3,0,0.6,0,0.9,0l-2.1,7.1c-3.3,11-13.8,18.6-25.5,18.6 c-14.5,0-26.2-11-26.5-25.2l-0.3-13.5c6.1,3.3,13.8,6.7,23.6,9.3c3.6,0.9,7.2-1.2,8.1-4.6c1-3.5-1.2-7-4.7-7.9 c-12.2-3.1-20.4-7.7-26.9-11.8c1-28.9,7.1-57.3,18-84.1c5.3,15.8,20.6,27.3,38.6,27.3c3.5,0,6.9-0.4,10.1-1.3 c-0.3,1.6-0.3,3.2-0.3,4.9c0,10.8,5.1,20.5,13.1,26.8C229.7,381.1,224.5,387.7,222.1,395.4z M260.5,371.8h-3.1 c-10.2-0.7-18.5-8.1-20.4-17.7c3.7,3.2,8.6,5.1,14,5.1c11.6,0,21.1-9.3,21.1-20.6c0-2.5-0.4-4.8-1.3-7.1 c6.3,3.8,10.6,10.7,10.6,18.4C281.3,361.6,272.1,371,260.5,371.8z M243.1,338.7c0-4.2,3.5-7.6,7.8-7.6c4.4,0,7.8,3.4,7.8,7.6 s-3.5,7.6-7.8,7.6C246.6,346.4,243.1,343,243.1,338.7z M332.7,371.8h-23l0,0h-23c4.9-5.9,7.8-13.5,7.8-21.7 c0-19.1-16-34.7-35.6-34.7c-2,0-3.9,0.2-5.8,0.5c0.7-2.9,1-5.9,1-9c0-11.7-5.2-22.2-13.5-29.5h28.2v11.2 c0,11.9,9.9,21.6,22.1,21.6h40.2c12.2,0,22.1-9.7,22.1-21.6v-11.2h24.1c-7.4,7.3-12,17.4-12,28.5c0,3.5,0.4,6.9,1.3,10 c-2-0.3-4-0.5-6.1-0.5c-19.6,0-35.6,15.5-35.6,34.7C324.9,358.4,327.8,365.8,332.7,371.8z M377.3,338.7c0,4.2-3.5,7.6-7.8,7.6 s-7.8-3.4-7.8-7.6s3.5-7.6,7.8-7.6c1,0,1.8,0.2,2.7,0.4c1.4,0.8,2.6,1.8,3.7,2.9C376.7,335.6,377.3,337.1,377.3,338.7z M362,371.8 h-3.1c-11.6-0.8-20.8-10.2-20.8-21.7c0-8.2,4.8-15.5,11.8-19.1c-1,2.4-1.6,5-1.6,7.7c0,11.3,9.5,20.6,21.1,20.6 c4.8,0,9.2-1.6,12.8-4.2C380.1,364.2,371.9,371.1,362,371.8z M462.1,431.9c-0.3,14.1-12,25.2-26.5,25.2 c-11.7,0-22.2-7.6-25.5-18.6l-2.1-7.1c10.9,0,21.3-1.3,30.9-3.7c9.9-2.5,17.5-5.9,23.6-9.3L462.1,431.9z"></path> </g> </g> <g> <g> <circle class="st0" cx="429.6" cy="305.2" r="7.6"></circle> </g> </g> <g> <g> <circle class="st0" cx="429.6" cy="334.9" r="7.6"></circle> </g> </g> <g> <g> <circle class="st0" cx="414.4" cy="319.7" r="7.6"></circle> </g> </g> <g> <g> <circle class="st0" cx="444.8" cy="319.7" r="7.6"></circle> </g> </g> <g> <g> <circle class="st0" cx="209.1" cy="305.2" r="7.6"></circle> </g> </g> <g> <g> <circle class="st0" cx="209.1" cy="335" r="7.6"></circle> </g> </g> <g> <g> <circle class="st0" cx="193.9" cy="319.8" r="7.6"></circle> </g> </g> <g> <g> <circle class="st0" cx="224.3" cy="319.8" r="7.6"></circle> </g> </g> </svg> 