<svg width="434.1" height="588" xmlns="http://www.w3.org/2000/svg">
 <style type="text/css">.st0{fill:#ED1E79;}</style>

 <g>
  <title>background</title>
  <rect fill="none" id="canvas_background" height="402" width="582" y="-1" x="-1"/>
 </g>
 <g>
  <title>Layer 1</title>
  <g id="Слой_3"/>
  <style transform="matrix(0.2872194717870258,0,0,0.2872194717870258,0,0) " type="text/css">.st0{fill:#FFFFFF;stroke:#FF007A;stroke-miterlimit:10;} .st1{fill:#FFFFFF;stroke:#FFFFFF;stroke-miterlimit:10;} .st2{stroke:#000000;stroke-width:6;stroke-miterlimit:10;}</style>
  <g stroke="null" id="svg_35">
   <path stroke="null" id="svg_29" d="m267.654889,229.437228c-4.350235,0 -7.892689,3.542454 -7.892689,7.892689c0,1.998415 1.25795,4.825647 3.744399,8.397552c1.817506,2.612665 3.601355,4.632116 3.677084,4.71626l0.471205,0.530106l0.471205,-0.530106c0.075729,-0.084144 1.859578,-2.107802 3.677084,-4.71626c2.486449,-3.571904 3.744399,-6.399136 3.744399,-8.397552c0.004207,-4.350235 -3.538247,-7.892689 -7.892689,-7.892689zm0,12.234509c-2.570593,0 -4.65736,-2.090974 -4.65736,-4.661567s2.090974,-4.653152 4.65736,-4.653152c2.570593,0 4.661567,2.090974 4.661567,4.65736s-2.090974,4.65736 -4.661567,4.65736z" class="st0"/>
   <path stroke="null" id="svg_30" d="m267.566538,231.91947c-2.823025,0 -5.111736,2.292919 -5.111736,5.111736c0,2.823025 2.301333,5.111736 5.111736,5.111736c2.823025,0 5.111736,-2.292919 5.111736,-5.111736c0.008414,-2.823025 -2.284504,-5.111736 -5.111736,-5.111736z" class="st1"/>
   <g stroke="null" transform="matrix(0.04207190169210037,0,0,0.04207190169210037,163.6064146919935,282.55381636405326) " id="svg_31">
    <path stroke="null" id="svg_32" d="m2408.110773,-1006.719379l-15,0l-23.2,-111.4l0,111.6l-13.6,0l0,-140l21.8,0l23,111.8l22.2,-111.8l21.8,0l0,140l-14.8,0l0,-112.6l-22.2,112.4z" class="st2"/>
    <path stroke="null" id="svg_33" d="m2459.910773,-1112.719379c0,-21.4 10.6,-35.2 32,-35.2c21.6,0 32.2,13.8 32.2,35.2l0,72.4c0,21.2 -10.6,35.2 -32.2,35.2c-21.4,0 -32,-14 -32,-35.2l0,-72.4zm15.4,73.2c0,12.8 5.4,20.2 16.6,20.2c11.4,0 16.6,-7.4 16.6,-20.2l0,-74c0,-12.6 -5.2,-20.2 -16.6,-20.2c-11.2,0 -16.6,7.6 -16.6,20.2l0,74z" class="st2"/>
    <path stroke="null" id="svg_34" d="m2599.510773,-1112.919379l0,3.8l-14.8,0l0,-4.6c0,-12.6 -4.8,-20 -16,-20s-16,7.4 -16,19.8c0,31.4 47,34.4 47,73.8c0,21.2 -10.2,35 -31.6,35s-31.4,-13.8 -31.4,-35l0,-8l14.6,0l0,8.8c0,12.6 5.2,20 16.4,20c11.2,0 16.4,-7.4 16.4,-20c0,-31.2 -46.8,-34.2 -46.8,-73.6c0,-21.6 10,-35 31,-35c21.2,0 31.2,13.8 31.2,35z" class="st2"/>
   </g>
  </g>
  <g stroke="null" id="svg_42">
   <path stroke="null" id="svg_36" d="m204.193509,253.667937c-4.350235,0 -7.892689,3.542454 -7.892689,7.892688c0,1.998416 1.25795,4.825648 3.744399,8.397552c1.817506,2.612665 3.601355,4.632116 3.677084,4.71626l0.471206,0.530106l0.471205,-0.530106c0.075729,-0.084144 1.859578,-2.107802 3.677084,-4.71626c2.48645,-3.571904 3.744399,-6.399136 3.744399,-8.397552c0.004208,-4.350234 -3.538247,-7.892688 -7.892688,-7.892688zm0,12.234509c-2.570594,0 -4.65736,-2.090974 -4.65736,-4.661567s2.090974,-4.653152 4.65736,-4.653152c2.570593,0 4.661566,2.090973 4.661566,4.657359s-2.090973,4.65736 -4.661566,4.65736z" class="st0"/>
   <path stroke="null" id="svg_37" d="m204.105158,256.150179c-2.823025,0 -5.111736,2.292919 -5.111736,5.111736c0,2.823025 2.301333,5.111736 5.111736,5.111736c2.823024,0 5.111736,-2.292919 5.111736,-5.111736c0.008414,-2.823025 -2.284505,-5.111736 -5.111736,-5.111736z" class="st1"/>
   <g stroke="null" transform="matrix(0.04207190169210037,0,0,0.04207190169210037,163.6064146919935,282.55381636405326) " id="svg_41">
    <path stroke="null" id="svg_38" d="m899.707819,-430.78371l-15,0l-23.2,-111.4l0,111.6l-13.6,0l0,-140l21.8,0l23,111.8l22.2,-111.8l21.8,0l0,140l-14.8,0l0,-112.6l-22.2,112.4z" class="st2"/>
    <path stroke="null" id="svg_39" d="m951.507819,-536.78371c0,-21.4 10.6,-35.2 32,-35.2c21.6,0 32.2,13.8 32.2,35.2l0,72.4c0,21.2 -10.6,35.2 -32.2,35.2c-21.4,0 -32,-14 -32,-35.2l0,-72.4zm15.4,73.2c0,12.8 5.4,20.2 16.6,20.2c11.4,0 16.6,-7.4 16.6,-20.2l0,-74c0,-12.6 -5.2,-20.2 -16.6,-20.2c-11.2,0 -16.6,7.6 -16.6,20.2l0,74z" class="st2"/>
    <path stroke="null" id="svg_40" d="m1091.107819,-536.98371l0,3.8l-14.8,0l0,-4.6c0,-12.6 -4.8,-20 -16,-20s-16,7.4 -16,19.8c0,31.4 47,34.4 47,73.8c0,21.2 -10.2,35 -31.6,35s-31.4,-13.8 -31.4,-35l0,-8l14.6,0l0,8.8c0,12.6 5.2,20 16.4,20c11.2,0 16.4,-7.4 16.4,-20c0,-31.2 -46.8,-34.2 -46.8,-73.6c0,-21.6 10,-35 31,-35c21.2,0 31.2,13.8 31.2,35z" class="st2"/>
   </g>
  </g>
  <g stroke="null" id="svg_49">
   <path stroke="null" id="svg_43" d="m261.501058,253.667937c-4.350235,0 -7.892689,3.542454 -7.892689,7.892688c0,1.998416 1.25795,4.825648 3.744399,8.397552c1.817506,2.612665 3.601355,4.632116 3.677084,4.71626l0.471206,0.530106l0.471205,-0.530106c0.075729,-0.084144 1.859578,-2.107802 3.677084,-4.71626c2.48645,-3.571904 3.744399,-6.399136 3.744399,-8.397552c0.004208,-4.350234 -3.538247,-7.892688 -7.892688,-7.892688zm0,12.234509c-2.570594,0 -4.65736,-2.090974 -4.65736,-4.661567s2.090974,-4.653152 4.65736,-4.653152c2.570593,0 4.661566,2.090973 4.661566,4.657359s-2.090973,4.65736 -4.661566,4.65736z" class="st0"/>
   <path stroke="null" id="svg_44" d="m261.412707,256.150179c-2.823025,0 -5.111736,2.292919 -5.111736,5.111736c0,2.823025 2.301333,5.111736 5.111736,5.111736c2.823024,0 5.111736,-2.292919 5.111736,-5.111736c0.008414,-2.823025 -2.284505,-5.111736 -5.111736,-5.111736z" class="st1"/>
   <g stroke="null" transform="matrix(0.04207190169210037,0,0,0.04207190169210037,163.6064146919935,282.55381636405326) " id="svg_48">
    <path stroke="null" id="svg_45" d="m2261.84141,-430.78371l-15,0l-23.2,-111.4l0,111.6l-13.6,0l0,-140l21.8,0l23,111.8l22.2,-111.8l21.8,0l0,140l-14.8,0l0,-112.6l-22.2,112.4z" class="st2"/>
    <path stroke="null" id="svg_46" d="m2313.64141,-536.78371c0,-21.4 10.6,-35.2 32,-35.2c21.6,0 32.2,13.8 32.2,35.2l0,72.4c0,21.2 -10.6,35.2 -32.2,35.2c-21.4,0 -32,-14 -32,-35.2l0,-72.4zm15.4,73.2c0,12.8 5.4,20.2 16.6,20.2c11.4,0 16.6,-7.4 16.6,-20.2l0,-74c0,-12.6 -5.2,-20.2 -16.6,-20.2c-11.2,0 -16.6,7.6 -16.6,20.2l0,74z" class="st2"/>
    <path stroke="null" id="svg_47" d="m2453.24141,-536.98371l0,3.8l-14.8,0l0,-4.6c0,-12.6 -4.8,-20 -16,-20s-16,7.4 -16,19.8c0,31.4 47,34.4 47,73.8c0,21.2 -10.2,35 -31.6,35s-31.4,-13.8 -31.4,-35l0,-8l14.6,0l0,8.8c0,12.6 5.2,20 16.4,20c11.2,0 16.4,-7.4 16.4,-20c0,-31.2 -46.8,-34.2 -46.8,-73.6c0,-21.6 10,-35 31,-35c21.2,0 31.2,13.8 31.2,35z" class="st2"/>
   </g>
  </g>
 </g>
</svg>