<?xml version="1.0" encoding="UTF-8"?> <!-- Generator: Adobe Illustrator 24.0.0, SVG Export Plug-In . SVG Version: 6.00 Build 0) --> <svg xmlns="http://www.w3.org/2000/svg" xmlns:xlink="http://www.w3.org/1999/xlink" id="Слой_1" x="0px" y="0px" width="512px" height="512px" viewBox="0 0 512 512" style="enable-background:new 0 0 512 512;" xml:space="preserve"> <style type="text/css"> .st0{fill:#FFFFFF;} </style> <path class="st0" d="M452.4,230.7h-17.1L284.9,85.3C283.5,72.2,272,62,258,62c-14,0-25.5,10.2-26.9,23.3L80.7,230.7H63.6 c-13,0-23.6,10.1-23.6,22.7v155.4c0,12.5,10.6,22.7,23.6,22.7h312.4c3.5,0,6.4-2.8,6.4-6.1c0-3.4-2.9-6.1-6.4-6.1H63.6 c-6,0-10.8-4.7-10.8-10.4V253.3c0-5.7,4.9-10.4,10.8-10.4H146c3.5,0,6.4-2.8,6.4-6.1s-2.9-6.1-6.4-6.1H98.8L234,99.9 c4.5,8.3,13.5,14.1,24,14.1c10.5,0,19.5-5.7,24-14.1l135.2,130.8H175.8c-3.5,0-6.4,2.8-6.4,6.1c0,3.4,2.9,6.1,6.4,6.1h276.6 c6,0,10.8,4.7,10.8,10.4v155.4c0,5.7-4.9,10.4-10.8,10.4h-46.7c-3.5,0-6.4,2.8-6.4,6.1s2.9,6.1,6.4,6.1h46.7 c13,0,23.6-10.1,23.6-22.7V253.3C476,240.8,465.4,230.7,452.4,230.7z M258,101.7c-7.8,0-14.2-6.1-14.2-13.7s6.4-13.7,14.2-13.7 c7.8,0,14.2,6.1,14.2,13.7S265.8,101.7,258,101.7z"></path> <path class="st0" d="M238.7,271.5v119.1c0,10.2,8.7,18.6,19.3,18.6s19.3-8.3,19.3-18.6V271.5c0-10.2-8.7-18.6-19.3-18.6 S238.7,261.3,238.7,271.5z M264.6,271.5v119.1c0,3.4-2.9,6.3-6.6,6.3c-3.7,0-6.6-2.8-6.6-6.3V271.5c0-3.4,2.9-6.3,6.6-6.3 C261.7,265.2,264.6,268.1,264.6,271.5z"></path> <path class="st0" d="M192.1,252.9c-8.4,0-16,5.4-18.5,13.2L154.9,326l-18.7-59.9c-2.8-9.1-12.8-14.8-22.5-12.8 c-10.9,2.2-17.7,13.2-14.5,23.5l37.3,119.2c2.5,7.9,9.9,13.2,18.5,13.2s16-5.3,18.5-13.2l37.2-119.1 C214.2,265.1,204.9,252.9,192.1,252.9z M198.4,273.3l-37.2,119.1c-0.9,2.7-3.3,4.5-6.2,4.5s-5.4-1.8-6.2-4.5l-37.2-119.1 c-1-3.4,1.1-7,4.7-7.9c3.3-0.8,6.8,1.1,7.8,4.3l24.8,79.5c0.9,2.6,3.3,4.3,6.1,4.3s5.3-1.8,6.1-4.3l24.8-79.5c1.1-3.4,5.1-5.3,8.6-4 C197.6,266.7,199.3,270.2,198.4,273.3z"></path> <path class="st0" d="M417.5,301.3c0-26.7-22.6-48.3-50.2-48.3h-43.3c-10.6,0-19.3,8.3-19.3,18.6v119.1c0,10.2,8.7,18.6,19.3,18.6 s19.3-8.3,19.3-18.6v-41h24.1C394.9,349.6,417.5,327.9,417.5,301.3z M367.3,337.3h-30.5c-3.5,0-6.4,2.8-6.4,6.1v47.1 c0,3.4-2.9,6.3-6.6,6.3s-6.6-2.8-6.6-6.3V271.5c0-3.4,2.9-6.3,6.6-6.3h43.3c20.7,0,37.5,16.2,37.5,36 C404.7,321.1,387.9,337.3,367.3,337.3z"></path> <path class="st0" d="M367.3,277.7h-30.5c-3.5,0-6.4,2.8-6.4,6.1v34.7c0,3.4,2.9,6.1,6.4,6.1h30.5c13.5,0,24.4-10.6,24.4-23.5 S380.7,277.7,367.3,277.7z M367.3,312.5h-24.1v-22.4h24.1c6.5,0,11.7,5.1,11.7,11.2C378.9,307.4,373.6,312.5,367.3,312.5z"></path> </svg> 