<?xml version="1.0" encoding="UTF-8"?> <!-- Generator: Adobe Illustrator 24.0.0, SVG Export Plug-In . SVG Version: 6.00 Build 0) --> <svg xmlns="http://www.w3.org/2000/svg" xmlns:xlink="http://www.w3.org/1999/xlink" id="Слой_1" x="0px" y="0px" viewBox="0 0 32 19" style="enable-background:new 0 0 32 19;" xml:space="preserve"> <style type="text/css"> .st0{fill-rule:evenodd;clip-rule:evenodd;fill:#FFFFFF;} </style> <path class="st0" d="M4.7,0H1.2C0.2,0,0,0.5,0,1c0,0.9,1.2,5.5,5.5,11.6c2.9,4.2,7,6.4,10.7,6.4c2.2,0,2.5-0.5,2.5-1.4v-3.1 c0-1,0.2-1.2,0.9-1.2c0.5,0,1.4,0.3,3.5,2.3c2.4,2.4,2.8,3.4,4.1,3.4h3.5c1,0,1.5-0.5,1.2-1.5c-0.3-1-1.4-2.4-3-4.1 c-0.8-1-2-2-2.4-2.5c-0.5-0.7-0.4-1,0-1.6c0,0,4.3-6,4.7-8c0.2-0.7,0-1.3-1.1-1.3h-3.5c-0.9,0-1.3,0.5-1.5,1c0,0-1.8,4.3-4.3,7.2 c-0.8,0.8-1.2,1.1-1.6,1.1c-0.2,0-0.5-0.3-0.5-1V1.3c0-0.9-0.3-1.3-1-1.3h-5.5c-0.6,0-0.9,0.4-0.9,0.8c0,0.8,1.3,1,1.4,3.4v5.2 c0,1.1-0.2,1.3-0.6,1.3c-1.2,0-4.1-4.4-5.8-9.3C5.9,0.4,5.6,0,4.7,0z"></path> </svg> 