<?xml version="1.0" encoding="UTF-8"?> <!-- Generator: Adobe Illustrator 24.0.0, SVG Export Plug-In . SVG Version: 6.00 Build 0) --> <svg xmlns="http://www.w3.org/2000/svg" xmlns:xlink="http://www.w3.org/1999/xlink" id="Capa_1" x="0px" y="0px" width="512px" height="512px" viewBox="0 0 512 512" style="enable-background:new 0 0 512 512;" xml:space="preserve"> <style type="text/css"> .st0{fill:#FFFFFF;} </style> <g> <g> <path class="st0" d="M333.1,92.1c-17.6-33.1-39.2-54.8-62-61.2v103.8c27-0.4,53.5-2,78.3-4.7C344.7,116.5,339.3,103.7,333.1,92.1z "></path> </g> </g> <g> <g> <path class="st0" d="M357.8,159.3c-27.5,3.2-56.8,5.1-86.8,5.5V241h97.5C367.6,212.3,364,184.7,357.8,159.3z"></path> </g> </g> <g> <g> <path class="st0" d="M154.3,158.6c-6.2,25.6-9.9,53.5-10.9,82.4H241v-76.3C210.9,164.1,181.6,162,154.3,158.6z"></path> </g> </g> <g> <g> <path class="st0" d="M178.9,92.1c-6.1,11.5-11.4,23.9-16,37.3c24.6,2.9,51,4.7,78.1,5.2V30.9C218.1,37.3,196.5,59,178.9,92.1z"></path> </g> </g> <g> <g> <path class="st0" d="M143.5,271c1.2,34.4,6.4,67.2,15.1,96.6c25.3-3.4,52.9-5.6,82.3-6.6v-90H143.5z"></path> </g> </g> <g> <g> <path class="st0" d="M479.5,130c-15.6,6.2-21.9,8.7-23.9,9.6c0.8-0.3,1.6-0.5,2.4-0.8c0.5-0.2-5.3,2-2.4,0.8 c-19.8,6.3-42.7,11.5-67.8,15.6c6.3,27,10,55.9,10.9,85.8H512C509.7,201.5,498.6,163.7,479.5,130z"></path> </g> </g> <g> <g> <path class="st0" d="M113.4,271H0c2.7,46.8,17.9,91.3,44.1,129.4c8.7-5.1,18.8-9.7,30.2-13.8c15.7-5.6,34.1-10.4,54.5-14.2 C119.9,341.2,114.6,306.8,113.4,271z"></path> </g> </g> <g> <g> <path class="st0" d="M54.8,137c-2.9-1-11.4-4-21.6-8.3C13.7,162.8,2.3,201,0,241h113.4c0.9-30.3,4.7-59.5,11.1-86.8 C98.4,149.7,74.8,144,54.8,137z"></path> </g> </g> <g> <g> <path class="st0" d="M74.7,74.7c-9,9-17.2,18.5-24.7,28.5c4.6,1.8,9.4,3.7,14.5,5.4l0.1,0.1c19.3,6.7,42.4,12.2,68,16.5 c5.5-16.9,12.1-32.7,19.8-47.1C175.8,33.8,206.9,6.1,241,0C178.1,3.6,119.5,29.8,74.7,74.7z"></path> </g> </g> <g> <g> <path class="st0" d="M152.3,432.3c-5.2-9.7-9.9-20.1-14.1-31.1c-20.4,3.7-38.6,8.3-53.9,13.8c-8.6,3.1-15.8,6.3-21.7,9.5 c3.8,4.4,7.8,8.7,12,12.8c44.9,44.9,103.5,71.1,166.3,74.7C206.9,505.9,175.8,476.4,152.3,432.3z"></path> </g> </g> <g> <g> <path class="st0" d="M437.3,74.7C392.5,29.8,333.9,3.6,271,0c34.1,6.1,65.1,33.8,88.6,78c7.8,14.7,14.5,30.8,20,48 c25.6-4,48.9-9.3,68.6-15.7c2.2-0.8,5.6-2.4,14.5-6C455.2,93.9,446.7,84,437.3,74.7z"></path> </g> </g> <g> <g> <path class="st0" d="M375.4,396.7c-4.6,12.6-9.9,24.5-15.8,35.6c-23.5,44.2-54.5,73.6-88.6,79.7c62.8-3.6,121.4-29.8,166.3-74.7 c7.5-7.5,14.5-15.5,21-23.7C434.7,406.3,406.5,400.6,375.4,396.7z"></path> </g> </g> <g> <g> <path class="st0" d="M168.8,396.6c3.1,7.5,6.5,14.7,10.1,21.6c17.6,33.1,39.2,56.6,62,63v-90C215.3,391.9,191,393.8,168.8,396.6z"></path> </g> </g> <g> <g> <path class="st0" d="M398.6,271c-1.1,33.9-5.9,66.7-13.9,96.5c34.6,4.7,65.9,11.5,91.5,20.2c21.1-35.2,33.5-75,35.9-116.7 L398.6,271L398.6,271z"></path> </g> </g> <g> <g> <path class="st0" d="M271,271v89.5c0.8,0,1.7,0,2.5,0c27.8,0,55,1.3,80.9,3.7c8.1-28.5,12.9-60.1,14.1-93.1H271z"></path> </g> </g> <g> <g> <path class="st0" d="M273.5,390.6c-0.8,0-1.7,0-2.5,0v90.6c22.8-6.4,44.5-29.9,62-63c4.1-7.8,7.9-16,11.4-24.7 C321.7,391.6,297.9,390.6,273.5,390.6z"></path> </g> </g> </svg> 